<svg width="210" height="48" viewBox="0 0 210 48" fill="none" xmlns="http://www.w3.org/2000/svg">
<path d="M199.04 33.156C199.23 32.35 200.038 31.8503 200.844 32.0398C201.65 32.2296 202.149 33.0373 201.96 33.8435C201.285 36.7093 198.997 38.2384 196.391 38.988C193.807 39.7314 190.617 39.8125 187.472 39.6218C184.299 39.4295 181.035 38.9509 178.25 38.4958C175.402 38.0306 173.168 37.6124 171.864 37.4939C170.495 37.3694 169.099 37.2589 167.679 37.1589C167.755 37.0927 167.834 37.028 167.908 36.9587L167.909 36.9597C168.704 36.2294 169.308 35.3375 169.742 34.3034C170.548 34.367 171.346 34.4338 172.136 34.5056C173.582 34.637 176.035 35.094 178.734 35.5349C181.496 35.9861 184.638 36.4449 187.653 36.6277C190.695 36.812 193.474 36.7055 195.561 36.1052C197.627 35.5111 198.714 34.5399 199.04 33.156ZM87.3544 35.0437C109.92 34.1949 132.645 33.1533 152.379 33.5163L150.766 36.2263L151.09 36.4929C131.799 36.1968 109.65 37.2073 87.4667 38.0417C57.3428 39.1748 27.1484 39.9825 4.35145 36.6443L3.27137 36.4822L3.12098 36.4509C2.3855 36.2597 1.89941 35.5386 2.01746 34.7712C2.13592 34.0042 2.81623 33.4628 3.57508 33.5017L3.7284 33.5173L4.79188 33.6765C27.2586 36.966 57.1619 36.1793 87.3544 35.0437ZM154.666 33.5652C155.249 33.9212 155.917 34.2216 156.672 34.4636C157.68 34.7996 158.696 34.989 159.721 35.031L160.16 35.0398C161.886 35.0398 163.187 34.668 164.065 33.9284C165.631 34.014 167.17 34.1126 168.682 34.2243C168.31 35.0077 167.829 35.6748 167.232 36.2234C166.898 36.535 166.531 36.8117 166.134 37.0573C161.884 36.7867 157.422 36.6139 152.786 36.5232C152.531 36.359 152.29 36.1851 152.064 35.9997L153.53 33.5378C153.91 33.5459 154.288 33.556 154.666 33.5652Z" fill="white"/>
<path d="M210 21H207.667L201.832 29.752C201.436 30.3456 200.564 30.3457 200.168 29.752L194.333 21H192V10H210V21Z" fill="white"/>
<path d="M97.7344 32.4844C94.849 32.4844 92.5729 31.6823 90.9062 30.0781C89.1979 28.4635 88.3438 26.2552 88.3438 23.4531C88.3438 20.6406 89.224 18.4115 90.9844 16.7656C92.6094 15.2344 94.6667 14.4688 97.1562 14.4688C99.6458 14.4688 101.641 15.1562 103.141 16.5312C104.651 17.8958 105.406 19.5781 105.406 21.5781C105.406 23.3594 104.786 24.7031 103.547 25.6094C102.401 26.4635 100.839 26.8906 98.8594 26.8906C97.3802 26.8906 96.1302 26.5833 95.1094 25.9688C95.026 26.0312 94.9844 26.1458 94.9844 26.3125C94.9844 26.625 95.3958 26.9115 96.2188 27.1719C97.0417 27.4531 97.974 27.5938 99.0156 27.5938C100.068 27.5938 101.021 27.4635 101.875 27.2031C102.74 26.9323 103.432 26.6146 103.953 26.25C104.203 26.4688 104.401 26.875 104.547 27.4688C104.703 28.0521 104.781 28.5885 104.781 29.0781C104.781 29.5573 104.734 29.9844 104.641 30.3594C103.828 31.0469 102.995 31.5365 102.141 31.8281C100.932 32.2656 99.4635 32.4844 97.7344 32.4844ZM97.5312 21.9062C98.0521 21.9062 98.3125 21.7083 98.3125 21.3125C98.3125 20.9375 98.0365 20.75 97.4844 20.75C96.9323 20.75 96.6146 21.0469 96.5312 21.6406C96.8229 21.8177 97.1562 21.9062 97.5312 21.9062Z" fill="black"/>
<path d="M79.9531 20.7969C79.9531 20.4219 79.8125 20.2344 79.5312 20.2344C79.2708 20.2344 79.1406 20.3906 79.1406 20.7031V22.3125C79.224 22.3854 79.349 22.4219 79.5156 22.4219C79.6823 22.4219 79.7969 22.3594 79.8594 22.2344C79.9219 22.1094 79.9531 21.8802 79.9531 21.5469V20.7969ZM80.5312 27.125C79.8646 27.125 79.2969 27.0781 78.8281 26.9844C78.7969 27.0781 78.7812 27.1667 78.7812 27.25C78.7812 27.4792 78.9427 27.6354 79.2656 27.7188C79.599 27.7917 80.0208 27.8281 80.5312 27.8281C82.1562 27.8281 83.5417 27.5885 84.6875 27.1094C85.8125 27.401 86.6875 28.0365 87.3125 29.0156C87.8229 29.8177 88.0781 30.7604 88.0781 31.8438C88.0781 33.7708 87.2604 35.2708 85.625 36.3438C83.9896 37.4167 81.8802 37.9531 79.2969 37.9531C76.724 37.9531 74.7344 37.4948 73.3281 36.5781C72.026 35.7448 71.375 34.6615 71.375 33.3281C71.375 32.8177 71.4948 32.3281 71.7344 31.8594C71.974 31.3802 72.25 31.0521 72.5625 30.875C73.0833 31.3125 73.849 31.6667 74.8594 31.9375C75.8802 32.2083 76.9271 32.3438 78 32.3438C79.0729 32.3438 79.7604 32.3021 80.0625 32.2188C80.375 32.1354 80.5312 31.9896 80.5312 31.7812C80.5312 31.6771 80.5 31.5729 80.4375 31.4688C79.9167 31.5833 79.2656 31.6406 78.4844 31.6406C76.474 31.6406 74.8958 31.3542 73.75 30.7812C72.3542 30.0938 71.6562 29.0573 71.6562 27.6719C71.6562 27.1302 71.7656 26.6302 71.9844 26.1719C72.2031 25.7031 72.526 25.3542 72.9531 25.125C72.3802 24.7708 71.8906 24.2344 71.4844 23.5156C71.0885 22.7969 70.8906 21.9115 70.8906 20.8594C70.8906 18.8594 71.6406 17.2812 73.1406 16.125C74.6406 14.9688 76.5885 14.3906 78.9844 14.3906C80.1406 14.3906 81.2552 14.5833 82.3281 14.9688V13.875C82.9427 13.6354 83.7552 13.5156 84.7656 13.5156C85.7865 13.5156 86.5625 13.6875 87.0938 14.0312C87.7396 14.4479 88.0625 15.1823 88.0625 16.2344C88.0625 16.8177 88 17.2865 87.875 17.6406C87.7604 17.9948 87.5885 18.3646 87.3594 18.75C87.6302 19.4375 87.7656 20.2917 87.7656 21.3125C87.7656 23.1562 87.1094 24.5885 85.7969 25.6094C84.4948 26.6198 82.7396 27.125 80.5312 27.125Z" fill="black"/>
<path d="M69.4844 24.2656C69.4844 25.0156 69.5677 25.6198 69.7344 26.0781C69.901 26.5365 70.1927 26.8958 70.6094 27.1562C70.6198 27.2083 70.625 27.3073 70.625 27.4531V27.7344C70.625 29.2135 70.1771 30.3646 69.2812 31.1875C68.4896 31.9167 67.5104 32.2812 66.3438 32.2812C65.5521 32.2812 64.8281 32.0938 64.1719 31.7188C63.5156 31.3438 63.0469 30.8021 62.7656 30.0938C62.4115 30.0938 62.2344 30.2656 62.2344 30.6094C62.2344 30.901 62.4167 31.2292 62.7812 31.5938C62.1042 32.0521 61.0833 32.2812 59.7188 32.2812C57.7917 32.2812 56.25 31.7604 55.0938 30.7188C53.9479 29.6667 53.375 28.2031 53.375 26.3281C53.375 24.4427 53.9844 22.9844 55.2031 21.9531C56.3177 21.026 57.7604 20.5625 59.5312 20.5625C60.1354 20.5625 60.7188 20.6042 61.2812 20.6875C61.6562 20.7604 61.8594 20.8021 61.8906 20.8125C61.9219 20.7083 61.9375 20.6198 61.9375 20.5469C61.9375 20.276 61.7083 20.0938 61.25 20C60.7917 19.9062 60.1927 19.8594 59.4531 19.8594C57.8802 19.8594 56.5365 20.1771 55.4219 20.8125C54.9115 19.9479 54.6562 18.8542 54.6562 17.5312C54.6562 16.7812 54.75 16.224 54.9375 15.8594C55.6875 15.5156 56.6406 15.2135 57.7969 14.9531C58.9531 14.6823 60.1719 14.5469 61.4531 14.5469C64.099 14.5469 66.099 15.125 67.4531 16.2812C68.8073 17.4375 69.4844 19.0781 69.4844 21.2031V24.2656ZM61.375 25.0312C60.9375 25.0312 60.7188 25.2292 60.7188 25.625C60.7188 26 60.974 26.1875 61.4844 26.1875C61.8385 26.1875 62.099 26.1042 62.2656 25.9375C62.4323 25.7604 62.5156 25.4583 62.5156 25.0312C62.5156 25.0312 62.1354 25.0312 61.375 25.0312Z" fill="black"/>
<path d="M44.2031 32.2031C42.9635 32.2031 41.974 31.9792 41.2344 31.5312C40.4115 31.0625 40 30.3698 40 29.4531V21.4062C39.3854 20.5417 39.0781 19.4792 39.0781 18.2188C39.0781 16.9479 39.3854 15.849 40 14.9219H42.3906C43.6198 14.9219 44.5 15.3177 45.0312 16.1094C44.7708 16.401 44.5417 16.7708 44.3438 17.2188C44.1458 17.6667 44.0469 17.9896 44.0469 18.1875C44.0469 18.375 44.0938 18.5156 44.1875 18.6094C44.2917 18.7031 44.4375 18.75 44.625 18.75C44.9896 17.3021 45.6823 16.2396 46.7031 15.5625C47.5469 14.9896 48.5885 14.7031 49.8281 14.7031C51.3698 14.7031 52.5781 15.0312 53.4531 15.6875C53.7656 16.5208 53.9219 17.5417 53.9219 18.75C53.9219 19.9479 53.6823 21.0365 53.2031 22.0156C52.849 22.2031 52.3594 22.3646 51.7344 22.5C51.1094 22.625 50.4792 22.6875 49.8438 22.6875C49.2083 22.6875 48.6354 22.6458 48.125 22.5625C47.625 22.4688 47.2604 22.3854 47.0312 22.3125C46.9479 22.3958 46.9062 22.5156 46.9062 22.6719C46.9062 22.8281 47.0052 22.9479 47.2031 23.0312C47.4115 23.1042 47.7552 23.1875 48.2344 23.2812V31.125C47.099 31.8438 45.7552 32.2031 44.2031 32.2031Z" fill="black"/>
<path d="M37.9844 24.2656C37.9844 25.0156 38.0677 25.6198 38.2344 26.0781C38.401 26.5365 38.6927 26.8958 39.1094 27.1562C39.1198 27.2083 39.125 27.3073 39.125 27.4531V27.7344C39.125 29.2135 38.6771 30.3646 37.7812 31.1875C36.9896 31.9167 36.0104 32.2812 34.8438 32.2812C34.0521 32.2812 33.3281 32.0938 32.6719 31.7188C32.0156 31.3438 31.5469 30.8021 31.2656 30.0938C30.9115 30.0938 30.7344 30.2656 30.7344 30.6094C30.7344 30.901 30.9167 31.2292 31.2812 31.5938C30.6042 32.0521 29.5833 32.2812 28.2188 32.2812C26.2917 32.2812 24.75 31.7604 23.5938 30.7188C22.4479 29.6667 21.875 28.2031 21.875 26.3281C21.875 24.4427 22.4844 22.9844 23.7031 21.9531C24.8177 21.026 26.2604 20.5625 28.0312 20.5625C28.6354 20.5625 29.2188 20.6042 29.7812 20.6875C30.1562 20.7604 30.3594 20.8021 30.3906 20.8125C30.4219 20.7083 30.4375 20.6198 30.4375 20.5469C30.4375 20.276 30.2083 20.0938 29.75 20C29.2917 19.9062 28.6927 19.8594 27.9531 19.8594C26.3802 19.8594 25.0365 20.1771 23.9219 20.8125C23.4115 19.9479 23.1562 18.8542 23.1562 17.5312C23.1562 16.7812 23.25 16.224 23.4375 15.8594C24.1875 15.5156 25.1406 15.2135 26.2969 14.9531C27.4531 14.6823 28.6719 14.5469 29.9531 14.5469C32.599 14.5469 34.599 15.125 35.9531 16.2812C37.3073 17.4375 37.9844 19.0781 37.9844 21.2031V24.2656ZM29.875 25.0312C29.4375 25.0312 29.2188 25.2292 29.2188 25.625C29.2188 26 29.474 26.1875 29.9844 26.1875C30.3385 26.1875 30.599 26.1042 30.7656 25.9375C30.9323 25.7604 31.0156 25.4583 31.0156 25.0312C31.0156 25.0312 30.6354 25.0312 29.875 25.0312Z" fill="black"/>
<path d="M11.8125 18.9844H21.0781C21.6719 19.849 21.9688 20.901 21.9688 22.1406C21.9688 23.3698 21.7135 24.3698 21.2031 25.1406H20.5625V29.8281C18.5104 31.6094 15.8021 32.5 12.4375 32.5C10.3854 32.5 8.5625 32.1354 6.96875 31.4062C5.22917 30.625 3.88021 29.4844 2.92188 27.9844C1.86979 26.3385 1.34375 24.3177 1.34375 21.9219C1.34375 18.5156 2.36458 15.8802 4.40625 14.0156C6.34375 12.2344 8.96875 11.3438 12.2812 11.3438C13.9167 11.3438 15.4583 11.5885 16.9062 12.0781C18.3646 12.5677 19.5156 13.1771 20.3594 13.9062C20.3594 14.5312 20.2812 15.2969 20.125 16.2031C19.9792 17.1094 19.7917 17.8021 19.5625 18.2812H11.3281C10.9948 18.6354 10.6771 19.1458 10.375 19.8125C10.0833 20.4792 9.9375 21.2448 9.9375 22.1094C9.9375 23.2969 10.2344 24.2292 10.8281 24.9062C11.349 25.5208 12.0156 25.8281 12.8281 25.8281C13.1615 25.8281 13.3281 25.7135 13.3281 25.4844V25.125H13.1562C12.4688 25.125 11.8958 24.8594 11.4375 24.3281C10.9896 23.7865 10.7656 23.0156 10.7656 22.0156C10.7656 20.7656 11.1146 19.7552 11.8125 18.9844Z" fill="black"/>
<path d="M105.406 21.5781C105.406 19.5781 104.651 17.8958 103.141 16.5312C101.641 15.1562 99.6458 14.4688 97.1562 14.4688C94.6667 14.4688 92.6094 15.2344 90.9844 16.7656C89.224 18.4115 88.3438 20.6406 88.3438 23.4531C88.3438 26.2552 89.1979 28.4635 90.9062 30.0781C92.5729 31.6823 94.849 32.4844 97.7344 32.4844C99.4635 32.4844 100.932 32.2656 102.141 31.8281C102.995 31.5365 103.828 31.0469 104.641 30.3594C104.734 29.9844 104.781 29.5573 104.781 29.0781C104.781 28.5885 104.703 28.0521 104.547 27.4688C104.401 26.875 104.203 26.4688 103.953 26.25C103.432 26.6146 102.74 26.9323 101.875 27.2031C101.021 27.4635 100.068 27.5938 99.0156 27.5938C97.974 27.5938 97.0417 27.4531 96.2188 27.1719C95.3958 26.9115 94.9844 26.625 94.9844 26.3125C94.9844 26.1458 95.026 26.0312 95.1094 25.9688C96.1302 26.5833 97.3802 26.8906 98.8594 26.8906C100.839 26.8906 102.401 26.4635 103.547 25.6094C104.786 24.7031 105.406 23.3594 105.406 21.5781ZM106.406 21.5781C106.406 23.2627 105.909 24.6925 104.87 25.7744C105.19 26.1777 105.384 26.6951 105.512 27.21H105.513C105.687 27.8589 105.781 28.4836 105.781 29.0781C105.781 29.6203 105.728 30.1311 105.61 30.6016L105.532 30.915L105.286 31.123C104.4 31.8725 103.465 32.4285 102.48 32.7676C101.133 33.2556 99.542 33.4844 97.7344 33.4844C94.6577 33.4844 92.1092 32.624 90.2129 30.7988V30.7979C88.302 28.9881 87.3746 26.548 87.3457 23.5957C87.6238 22.9214 87.7656 22.1611 87.7656 21.3125C87.7656 20.9858 87.7494 20.6764 87.7217 20.3838C88.1705 18.6906 89.0233 17.2304 90.3018 16.0352C92.1337 14.3103 94.445 13.4688 97.1562 13.4688C99.8373 13.4688 102.093 14.214 103.816 15.7939H103.815C105.528 17.3436 106.406 19.2917 106.406 21.5781ZM98.3125 21.3125C98.3125 21.7083 98.0521 21.9062 97.5312 21.9062C97.1562 21.9062 96.8229 21.8177 96.5312 21.6406C96.6146 21.0469 96.9323 20.75 97.4844 20.75C98.0365 20.75 98.3125 20.9375 98.3125 21.3125Z" fill="white"/>
<path d="M88.0781 31.8438C88.0781 30.7604 87.8229 29.8177 87.3125 29.0156C86.6875 28.0365 85.8125 27.401 84.6875 27.1094C83.5417 27.5885 82.1562 27.8281 80.5312 27.8281C80.0208 27.8281 79.599 27.7917 79.2656 27.7188C78.9427 27.6354 78.7812 27.4792 78.7812 27.25C78.7812 27.1667 78.7969 27.0781 78.8281 26.9844C79.2969 27.0781 79.8646 27.125 80.5312 27.125C82.7396 27.125 84.4948 26.6198 85.7969 25.6094C87.1094 24.5885 87.7656 23.1562 87.7656 21.3125C87.7656 20.2917 87.6302 19.4375 87.3594 18.75C87.5885 18.3646 87.7604 17.9948 87.875 17.6406C88 17.2865 88.0625 16.8177 88.0625 16.2344C88.0625 15.1823 87.7396 14.4479 87.0938 14.0312C86.5625 13.6875 85.7865 13.5156 84.7656 13.5156C83.7552 13.5156 82.9427 13.6354 82.3281 13.875V14.9688C81.2552 14.5833 80.1406 14.3906 78.9844 14.3906C76.5885 14.3906 74.6406 14.9688 73.1406 16.125C71.6406 17.2812 70.8906 18.8594 70.8906 20.8594C70.8906 21.9115 71.0885 22.7969 71.4844 23.5156C71.8906 24.2344 72.3802 24.7708 72.9531 25.125C72.526 25.3542 72.2031 25.7031 71.9844 26.1719C71.7656 26.6302 71.6562 27.1302 71.6562 27.6719C71.6562 29.0573 72.3542 30.0938 73.75 30.7812C74.8958 31.3542 76.474 31.6406 78.4844 31.6406C79.2656 31.6406 79.9167 31.5833 80.4375 31.4688C80.5 31.5729 80.5312 31.6771 80.5312 31.7812C80.5312 31.9896 80.375 32.1354 80.0625 32.2188C79.7604 32.3021 79.0729 32.3438 78 32.3438C76.9271 32.3438 75.8802 32.2083 74.8594 31.9375C73.849 31.6667 73.0833 31.3125 72.5625 30.875C72.25 31.0521 71.974 31.3802 71.7344 31.8594C71.4948 32.3281 71.375 32.8177 71.375 33.3281C71.375 34.6615 72.026 35.7448 73.3281 36.5781C74.7344 37.4948 76.724 37.9531 79.2969 37.9531C81.8802 37.9531 83.9896 37.4167 85.625 36.3438C87.2604 35.2708 88.0781 33.7708 88.0781 31.8438ZM79.5312 20.2344C79.8125 20.2344 79.9531 20.4219 79.9531 20.7969V21.5469C79.9531 21.8802 79.9219 22.1094 79.8594 22.2344C79.7969 22.3594 79.6823 22.4219 79.5156 22.4219C79.349 22.4219 79.224 22.3854 79.1406 22.3125V20.7031C79.1406 20.3906 79.2708 20.2344 79.5312 20.2344ZM89.0625 16.2344C89.0625 16.8755 88.996 17.4704 88.8184 17.9736L88.8164 17.9727C88.7205 18.2639 88.5959 18.5547 88.4463 18.8457C88.5954 19.3452 88.6893 19.8888 88.7334 20.4717C88.4739 21.3795 88.3438 22.3733 88.3438 23.4531C88.3438 23.5611 88.3471 23.6682 88.3496 23.7744C87.9696 24.8013 87.328 25.6852 86.4111 26.3984L86.4102 26.3994C86.3209 26.4687 86.2291 26.5347 86.1367 26.5996C86.9544 27.0281 87.6318 27.6575 88.1553 28.4775L88.1562 28.4785C88.7825 29.4626 89.0781 30.5975 89.0781 31.8438C89.0781 34.1138 88.0857 35.9253 86.1738 37.1797C84.3308 38.3888 82.0137 38.9531 79.2969 38.9531C76.626 38.9531 74.416 38.4809 72.7822 37.416V37.415C71.251 36.4325 70.375 35.0588 70.375 33.3281C70.375 32.6545 70.5345 32.0093 70.8438 31.4043C71.0386 31.0162 71.2825 30.6546 71.5898 30.3643C71.5055 30.262 71.4248 30.157 71.3506 30.0469C70.8785 29.3458 70.6562 28.5411 70.6562 27.6719C70.6562 26.9913 70.7949 26.3429 71.082 25.7412C71.1818 25.5287 71.3006 25.3317 71.4355 25.1494C71.1271 24.8147 70.854 24.4319 70.6143 24.0078L70.6084 23.998C70.1114 23.0956 69.8906 22.0337 69.8906 20.8594C69.8906 18.5694 70.7691 16.6906 72.5303 15.333C74.247 14.0097 76.4271 13.3906 78.9844 13.3906C79.7821 13.3906 80.5639 13.474 81.3281 13.6416V13.1914L81.9648 12.9434C82.7398 12.6412 83.6901 12.5156 84.7656 12.5156C85.8717 12.5156 86.8724 12.697 87.6367 13.1914H87.6357C88.6664 13.8564 89.0625 14.981 89.0625 16.2344Z" fill="white"/>
<path d="M52.375 26.3281C52.375 24.2304 53.0581 22.4849 54.5098 21.2314C54.227 20.7315 54.0185 20.1838 53.8789 19.5938C53.9065 19.3188 53.9219 19.0376 53.9219 18.75C53.9219 17.9446 53.8508 17.2228 53.7119 16.584C53.7682 16.1475 53.8718 15.7448 54.0479 15.4023L54.2061 15.0947L54.5205 14.9502C55.3544 14.568 56.3798 14.2472 57.5771 13.9775C58.8113 13.6892 60.1041 13.5469 61.4531 13.5469C64.2248 13.5469 66.4972 14.1498 68.1025 15.5205C69.7226 16.9038 70.4844 18.8478 70.4844 21.2031V24.2656C70.4844 24.9548 70.5625 25.43 70.6738 25.7363C70.7524 25.9525 70.8748 26.1188 71.0576 26.2529L71.1396 26.3086L71.5049 26.5371L71.5898 26.96C71.6225 27.1231 71.625 27.3176 71.625 27.4531V27.7344C71.625 29.4281 71.1035 30.8715 69.958 31.9238C68.9656 32.8375 67.7381 33.2812 66.3438 33.2812C65.3866 33.2812 64.4904 33.0524 63.6758 32.5869C63.572 32.5276 63.4719 32.4645 63.375 32.3984L63.3418 32.4219C62.4218 33.0446 61.1629 33.2812 59.7188 33.2812C57.6061 33.2812 55.8057 32.7058 54.4248 31.4619L54.417 31.4551C53.0233 30.1752 52.375 28.4207 52.375 26.3281ZM61.375 25.0312H62.5156C62.5156 25.4583 62.4323 25.7604 62.2656 25.9375C62.099 26.1042 61.8385 26.1875 61.4844 26.1875C60.974 26.1875 60.7188 26 60.7188 25.625C60.7188 25.2292 60.9375 25.0312 61.375 25.0312ZM54.6562 17.5312C54.6562 18.8542 54.9115 19.9479 55.4219 20.8125C56.5365 20.1771 57.8802 19.8594 59.4531 19.8594C60.1927 19.8594 60.7917 19.9062 61.25 20C61.7083 20.0938 61.9375 20.276 61.9375 20.5469C61.9375 20.6198 61.9219 20.7083 61.8906 20.8125C61.8594 20.8021 61.6562 20.7604 61.2812 20.6875C60.7188 20.6042 60.1354 20.5625 59.5312 20.5625C57.7604 20.5625 56.3177 21.026 55.2031 21.9531C53.9844 22.9844 53.375 24.4427 53.375 26.3281C53.375 28.2031 53.9479 29.6667 55.0938 30.7188C56.25 31.7604 57.7917 32.2812 59.7188 32.2812C61.0833 32.2812 62.1042 32.0521 62.7812 31.5938C62.4167 31.2292 62.2344 30.901 62.2344 30.6094C62.2344 30.2656 62.4115 30.0938 62.7656 30.0938C63.0469 30.8021 63.5156 31.3438 64.1719 31.7188C64.8281 32.0938 65.5521 32.2812 66.3438 32.2812C67.5104 32.2812 68.4896 31.9167 69.2812 31.1875C70.1771 30.3646 70.625 29.2135 70.625 27.7344V27.4531C70.625 27.3073 70.6198 27.2083 70.6094 27.1562C70.1927 26.8958 69.901 26.5365 69.7344 26.0781C69.5677 25.6198 69.4844 25.0156 69.4844 24.2656V21.2031C69.4844 19.0781 68.8073 17.4375 67.4531 16.2812C66.099 15.125 64.099 14.5469 61.4531 14.5469C60.1719 14.5469 58.9531 14.6823 57.7969 14.9531C56.6406 15.2135 55.6875 15.5156 54.9375 15.8594C54.75 16.224 54.6562 16.7812 54.6562 17.5312Z" fill="white"/>
<path d="M53.9219 18.75C53.9219 17.5417 53.7656 16.5208 53.4531 15.6875C52.5781 15.0312 51.3698 14.7031 49.8281 14.7031C48.5885 14.7031 47.5469 14.9896 46.7031 15.5625C45.6823 16.2396 44.9896 17.3021 44.625 18.75C44.4375 18.75 44.2917 18.7031 44.1875 18.6094C44.0938 18.5156 44.0469 18.375 44.0469 18.1875C44.0469 17.9896 44.1458 17.6667 44.3438 17.2188C44.5417 16.7708 44.7708 16.401 45.0312 16.1094C44.5 15.3177 43.6198 14.9219 42.3906 14.9219V13.9219C43.6738 13.9219 44.7943 14.2984 45.5693 15.1748C45.7513 15.0149 45.9446 14.866 46.1504 14.7295C47.1909 14.0259 48.4359 13.7031 49.8281 13.7031C51.3954 13.7031 52.7652 14.0147 53.8418 14.7373L54.0527 14.8877L54.2871 15.0625L54.3896 15.3359C54.532 15.7156 54.6417 16.1217 54.7256 16.5508C54.6787 16.8294 54.6562 17.1563 54.6562 17.5312C54.6562 18.2558 54.7355 18.911 54.8887 19.498C54.8059 20.5507 54.5494 21.5399 54.1016 22.4551L53.958 22.7471L53.6709 22.8994C53.2028 23.1472 52.6142 23.3328 51.9463 23.4775L51.9385 23.4795L51.9307 23.4805C51.2413 23.6183 50.5452 23.6875 49.8438 23.6875C49.6359 23.6875 49.4328 23.6813 49.2344 23.6729V31.6758L48.7695 31.9697C47.4505 32.8047 45.9146 33.2031 44.2031 33.2031C42.8664 33.2031 41.6849 32.9647 40.7393 32.3994C39.6172 31.7601 39 30.7435 39 29.4531V28.9941C39.083 28.6046 39.125 28.1847 39.125 27.7344V27.4531C39.125 27.3073 39.1198 27.2083 39.1094 27.1562C39.0715 27.1326 39.0358 27.1064 39 27.0811V21.7061C38.3721 20.7009 38.0781 19.524 38.0781 18.2188C38.0781 16.7802 38.4289 15.4825 39.167 14.3691L39.4629 13.9219H42.3906V14.9219H40C39.3854 15.849 39.0781 16.9479 39.0781 18.2188C39.0781 19.4792 39.3854 20.5417 40 21.4062V29.4531C40 30.3698 40.4115 31.0625 41.2344 31.5312C41.974 31.9792 42.9635 32.2031 44.2031 32.2031C45.7552 32.2031 47.099 31.8438 48.2344 31.125V23.2812C47.7552 23.1875 47.4115 23.1042 47.2031 23.0312C47.0052 22.9479 46.9062 22.8281 46.9062 22.6719C46.9062 22.5156 46.9479 22.3958 47.0312 22.3125C47.2604 22.3854 47.625 22.4688 48.125 22.5625C48.6354 22.6458 49.2083 22.6875 49.8438 22.6875C50.4792 22.6875 51.1094 22.625 51.7344 22.5C52.3594 22.3646 52.849 22.2031 53.2031 22.0156C53.6823 21.0365 53.9219 19.9479 53.9219 18.75Z" fill="white"/>
<path d="M20.875 26.3281C20.875 25.9185 20.9014 25.5224 20.9541 25.1406H21.2031C21.6756 24.4272 21.9258 23.5173 21.9609 22.4111C22.2505 21.9807 22.5989 21.5862 23.0098 21.2314C22.4201 20.1889 22.1562 18.9374 22.1562 17.5312C22.1562 16.7337 22.2498 15.9821 22.5479 15.4023L22.7061 15.0947L23.0205 14.9502C23.8544 14.568 24.8798 14.2472 26.0771 13.9775C27.3113 13.6892 28.6041 13.5469 29.9531 13.5469C32.7248 13.5469 34.9972 14.1498 36.6025 15.5205C38.2226 16.9038 38.9844 18.8478 38.9844 21.2031V24.2656C38.9844 24.9548 39.0625 25.43 39.1738 25.7363C39.2524 25.9525 39.3748 26.1188 39.5576 26.2529L39.6396 26.3086L40 26.5332V29.083C39.7852 30.1985 39.2856 31.1635 38.458 31.9238C37.4656 32.8375 36.2381 33.2812 34.8438 33.2812C33.8866 33.2812 32.9904 33.0524 32.1758 32.5869C32.072 32.5276 31.9719 32.4645 31.875 32.3984L31.8418 32.4219C30.9218 33.0446 29.6629 33.2812 28.2188 33.2812C26.1061 33.2812 24.3057 32.7058 22.9248 31.4619L22.917 31.4551C21.5233 30.1752 20.875 28.4207 20.875 26.3281ZM29.875 25.0312H31.0156C31.0156 25.4583 30.9323 25.7604 30.7656 25.9375C30.599 26.1042 30.3385 26.1875 29.9844 26.1875C29.474 26.1875 29.2188 26 29.2188 25.625C29.2188 25.2292 29.4375 25.0312 29.875 25.0312ZM23.1562 17.5312C23.1562 18.8542 23.4115 19.9479 23.9219 20.8125C25.0365 20.1771 26.3802 19.8594 27.9531 19.8594C28.6927 19.8594 29.2917 19.9062 29.75 20C30.2083 20.0938 30.4375 20.276 30.4375 20.5469C30.4375 20.6198 30.4219 20.7083 30.3906 20.8125C30.3594 20.8021 30.1562 20.7604 29.7812 20.6875C29.2188 20.6042 28.6354 20.5625 28.0312 20.5625C26.2604 20.5625 24.8177 21.026 23.7031 21.9531C22.4844 22.9844 21.875 24.4427 21.875 26.3281C21.875 28.2031 22.4479 29.6667 23.5938 30.7188C24.75 31.7604 26.2917 32.2812 28.2188 32.2812C29.5833 32.2812 30.6042 32.0521 31.2812 31.5938C30.9167 31.2292 30.7344 30.901 30.7344 30.6094C30.7344 30.2656 30.9115 30.0938 31.2656 30.0938C31.5469 30.8021 32.0156 31.3438 32.6719 31.7188C33.3281 32.0938 34.0521 32.2812 34.8438 32.2812C36.0104 32.2812 36.9896 31.9167 37.7812 31.1875C38.6771 30.3646 39.125 29.2135 39.125 27.7344V27.4531C39.125 27.3073 39.1198 27.2083 39.1094 27.1562C38.6927 26.8958 38.401 26.5365 38.2344 26.0781C38.0677 25.6198 37.9844 25.0156 37.9844 24.2656V21.2031C37.9844 19.0781 37.3073 17.4375 35.9531 16.2812C34.599 15.125 32.599 14.5469 29.9531 14.5469C28.6719 14.5469 27.4531 14.6823 26.2969 14.9531C25.1406 15.2135 24.1875 15.5156 23.4375 15.8594C23.25 16.224 23.1562 16.7812 23.1562 17.5312Z" fill="white"/>
<path d="M20.3594 13.9062C19.5156 13.1771 18.3646 12.5677 16.9062 12.0781C15.4583 11.5885 13.9167 11.3438 12.2812 11.3438C8.96875 11.3438 6.34375 12.2344 4.40625 14.0156C2.36458 15.8802 1.34375 18.5156 1.34375 21.9219C1.34375 24.3177 1.86979 26.3385 2.92188 27.9844C3.88021 29.4844 5.22917 30.625 6.96875 31.4062C8.5625 32.1354 10.3854 32.5 12.4375 32.5C15.8021 32.5 18.5104 31.6094 20.5625 29.8281V25.1406H21.2031C21.7135 24.3698 21.9688 23.3698 21.9688 22.1406C21.9688 20.901 21.6719 19.849 21.0781 18.9844H11.8125C11.1146 19.7552 10.7656 20.7656 10.7656 22.0156C10.7656 23.0156 10.9896 23.7865 11.4375 24.3281C11.8958 24.8594 12.4688 25.125 13.1562 25.125H13.3281V25.4844C13.3281 25.7135 13.1615 25.8281 12.8281 25.8281C12.0156 25.8281 11.349 25.5208 10.8281 24.9062C10.2344 24.2292 9.9375 23.2969 9.9375 22.1094C9.9375 21.2448 10.0833 20.4792 10.375 19.8125C10.6771 19.1458 10.9948 18.6354 11.3281 18.2812H19.5625C19.7917 17.8021 19.9792 17.1094 20.125 16.2031C20.2812 15.2969 20.3594 14.5312 20.3594 13.9062ZM21.3594 13.9062C21.3594 14.6051 21.2719 15.4273 21.1113 16.3613C21.0142 16.9646 20.8954 17.5108 20.7461 17.9844H21.6045L21.9023 18.418C22.6301 19.4777 22.9688 20.7365 22.9688 22.1406C22.9688 22.3481 22.9587 22.5518 22.9453 22.752C22.3005 23.6041 21.9465 24.6601 21.8848 25.9209L21.7402 26.1406H21.5625V30.2842L21.2178 30.583C18.9434 32.5572 15.9834 33.5 12.4375 33.5C10.2685 33.5 8.30197 33.1139 6.55859 32.3174V32.3184C4.65483 31.4633 3.14977 30.1983 2.0791 28.5225V28.5234C0.903102 26.6838 0.34375 24.4652 0.34375 21.9219C0.34375 18.305 1.43583 15.374 3.73145 13.2773C5.89755 11.287 8.78666 10.3438 12.2812 10.3438C14.0169 10.3438 15.6664 10.6037 17.2236 11.1299C18.7616 11.6462 20.0419 12.3096 21.0137 13.1494L21.3594 13.4492V13.9062Z" fill="white"/>
<path d="M180.011 32.224C178.112 32.224 176.448 31.8506 175.019 31.104C173.611 30.336 172.512 29.2906 171.723 27.968C170.955 26.6453 170.571 25.1413 170.571 23.456C170.571 21.7493 170.944 20.2453 171.691 18.944C172.459 17.6213 173.504 16.5866 174.827 15.84C176.171 15.0933 177.696 14.72 179.403 14.72C181.067 14.72 182.55 15.0826 183.851 15.808C185.152 16.5333 186.176 17.5573 186.923 18.88C187.67 20.2026 188.043 21.76 188.043 23.552C188.043 23.7226 188.032 23.9146 188.011 24.128C188.011 24.3413 188 24.544 187.979 24.736H173.739V22.08H185.867L184.299 22.912C184.32 21.9306 184.118 21.0666 183.691 20.32C183.264 19.5733 182.678 18.9866 181.931 18.56C181.206 18.1333 180.363 17.92 179.403 17.92C178.422 17.92 177.558 18.1333 176.811 18.56C176.086 18.9866 175.51 19.584 175.083 20.352C174.678 21.0986 174.475 21.984 174.475 23.008V23.648C174.475 24.672 174.71 25.5786 175.179 26.368C175.648 27.1573 176.31 27.7653 177.163 28.192C178.016 28.6186 178.998 28.832 180.107 28.832C181.067 28.832 181.931 28.6826 182.699 28.384C183.467 28.0853 184.15 27.616 184.747 26.976L186.891 29.44C186.123 30.336 185.152 31.0293 183.979 31.52C182.827 31.9893 181.504 32.224 180.011 32.224Z" fill="white"/>
<path d="M160.384 38.432C158.806 38.432 157.259 38.2186 155.744 37.792C154.251 37.3866 153.024 36.7893 152.064 36L153.856 32.992C154.603 33.6106 155.542 34.1013 156.672 34.464C157.824 34.848 158.987 35.04 160.16 35.04C162.038 35.04 163.414 34.6026 164.288 33.728C165.163 32.8746 165.6 31.584 165.6 29.856V26.816L165.92 22.944L165.792 19.072V14.912H169.6V29.408C169.6 32.5013 168.811 34.7733 167.232 36.224C165.654 37.696 163.371 38.432 160.384 38.432ZM159.872 31.232C158.251 31.232 156.779 30.8906 155.456 30.208C154.155 29.504 153.12 28.5333 152.352 27.296C151.606 26.0586 151.232 24.608 151.232 22.944C151.232 21.3013 151.606 19.8613 152.352 18.624C153.12 17.3866 154.155 16.4266 155.456 15.744C156.779 15.0613 158.251 14.72 159.872 14.72C161.323 14.72 162.624 15.008 163.776 15.584C164.928 16.16 165.846 17.056 166.528 18.272C167.232 19.488 167.584 21.0453 167.584 22.944C167.584 24.8426 167.232 26.4106 166.528 27.648C165.846 28.864 164.928 29.7706 163.776 30.368C162.624 30.944 161.323 31.232 159.872 31.232ZM160.48 27.84C161.483 27.84 162.379 27.6373 163.168 27.232C163.958 26.8053 164.566 26.2293 164.992 25.504C165.44 24.7573 165.664 23.904 165.664 22.944C165.664 21.984 165.44 21.1413 164.992 20.416C164.566 19.6693 163.958 19.104 163.168 18.72C162.379 18.3146 161.483 18.112 160.48 18.112C159.478 18.112 158.571 18.3146 157.76 18.72C156.971 19.104 156.352 19.6693 155.904 20.416C155.478 21.1413 155.264 21.984 155.264 22.944C155.264 23.904 155.478 24.7573 155.904 25.504C156.352 26.2293 156.971 26.8053 157.76 27.232C158.571 27.6373 159.478 27.84 160.48 27.84Z" fill="white"/>
<path d="M142.395 32V14.912H146.203V19.616L145.755 18.24C146.267 17.088 147.067 16.2133 148.155 15.616C149.265 15.0186 150.641 14.72 152.283 14.72V18.528C152.113 18.4853 151.953 18.464 151.803 18.464C151.654 18.4426 151.505 18.432 151.355 18.432C149.841 18.432 148.635 18.88 147.739 19.776C146.843 20.6506 146.395 21.9626 146.395 23.712V32H142.395Z" fill="white"/>
<path d="M132.33 32.224C130.581 32.224 129.024 31.8506 127.658 31.104C126.293 30.336 125.216 29.2906 124.426 27.968C123.637 26.6453 123.242 25.1413 123.242 23.456C123.242 21.7493 123.637 20.2453 124.426 18.944C125.216 17.6213 126.293 16.5866 127.658 15.84C129.024 15.0933 130.581 14.72 132.33 14.72C134.101 14.72 135.669 15.0933 137.034 15.84C138.421 16.5866 139.498 17.6106 140.266 18.912C141.056 20.2133 141.45 21.728 141.45 23.456C141.45 25.1413 141.056 26.6453 140.266 27.968C139.498 29.2906 138.421 30.336 137.034 31.104C135.669 31.8506 134.101 32.224 132.33 32.224ZM132.33 28.8C133.312 28.8 134.186 28.5866 134.954 28.16C135.722 27.7333 136.32 27.1146 136.746 26.304C137.194 25.4933 137.418 24.544 137.418 23.456C137.418 22.3466 137.194 21.3973 136.746 20.608C136.32 19.7973 135.722 19.1786 134.954 18.752C134.186 18.3253 133.322 18.112 132.362 18.112C131.381 18.112 130.506 18.3253 129.738 18.752C128.992 19.1786 128.394 19.7973 127.946 20.608C127.498 21.3973 127.274 22.3466 127.274 23.456C127.274 24.544 127.498 25.4933 127.946 26.304C128.394 27.1146 128.992 27.7333 129.738 28.16C130.506 28.5866 131.37 28.8 132.33 28.8Z" fill="white"/>
<path d="M111.816 19.904H122.984V23.424H111.816V19.904ZM112.168 32H108.008V9.59998H124.36V13.088H112.168V32Z" fill="white"/>
</svg>
