<svg width="107" height="57" viewBox="0 0 107 57" fill="none" xmlns="http://www.w3.org/2000/svg">
<path d="M105 37H102.667L96.832 45.752C96.4362 46.3456 95.5638 46.3457 95.168 45.752L89.333 37H87V26H105V37Z" fill="black"/>
<path d="M97.3906 22.1406C94.5052 22.1406 92.2292 21.3385 90.5625 19.7344C88.8542 18.1198 88 15.9115 88 13.1094C88 10.2969 88.8802 8.06771 90.6406 6.42188C92.2656 4.89062 94.3229 4.125 96.8125 4.125C99.3021 4.125 101.297 4.8125 102.797 6.1875C104.307 7.55208 105.062 9.23438 105.062 11.2344C105.062 13.0156 104.443 14.3594 103.203 15.2656C102.057 16.1198 100.495 16.5469 98.5156 16.5469C97.0365 16.5469 95.7865 16.2396 94.7656 15.625C94.6823 15.6875 94.6406 15.8021 94.6406 15.9688C94.6406 16.2812 95.0521 16.5677 95.875 16.8281C96.6979 17.1094 97.6302 17.25 98.6719 17.25C99.724 17.25 100.677 17.1198 101.531 16.8594C102.396 16.5885 103.089 16.2708 103.609 15.9062C103.859 16.125 104.057 16.5312 104.203 17.125C104.359 17.7083 104.438 18.2448 104.438 18.7344C104.438 19.2135 104.391 19.6406 104.297 20.0156C103.484 20.7031 102.651 21.1927 101.797 21.4844C100.589 21.9219 99.1198 22.1406 97.3906 22.1406ZM97.1875 11.5625C97.7083 11.5625 97.9688 11.3646 97.9688 10.9688C97.9688 10.5938 97.6927 10.4062 97.1406 10.4062C96.5885 10.4062 96.2708 10.7031 96.1875 11.2969C96.4792 11.474 96.8125 11.5625 97.1875 11.5625Z" fill="white"/>
<path d="M79.6094 10.4531C79.6094 10.0781 79.4688 9.89062 79.1875 9.89062C78.9271 9.89062 78.7969 10.0469 78.7969 10.3594V11.9688C78.8802 12.0417 79.0052 12.0781 79.1719 12.0781C79.3385 12.0781 79.4531 12.0156 79.5156 11.8906C79.5781 11.7656 79.6094 11.5365 79.6094 11.2031V10.4531ZM80.1875 16.7812C79.5208 16.7812 78.9531 16.7344 78.4844 16.6406C78.4531 16.7344 78.4375 16.8229 78.4375 16.9062C78.4375 17.1354 78.599 17.2917 78.9219 17.375C79.2552 17.4479 79.6771 17.4844 80.1875 17.4844C81.8125 17.4844 83.1979 17.2448 84.3438 16.7656C85.4688 17.0573 86.3438 17.6927 86.9688 18.6719C87.4792 19.474 87.7344 20.4167 87.7344 21.5C87.7344 23.4271 86.9167 24.9271 85.2812 26C83.6458 27.0729 81.5365 27.6094 78.9531 27.6094C76.3802 27.6094 74.3906 27.151 72.9844 26.2344C71.6823 25.401 71.0312 24.3177 71.0312 22.9844C71.0312 22.474 71.151 21.9844 71.3906 21.5156C71.6302 21.0365 71.9062 20.7083 72.2188 20.5312C72.7396 20.9688 73.5052 21.3229 74.5156 21.5938C75.5365 21.8646 76.5833 22 77.6562 22C78.7292 22 79.4167 21.9583 79.7188 21.875C80.0312 21.7917 80.1875 21.6458 80.1875 21.4375C80.1875 21.3333 80.1562 21.2292 80.0938 21.125C79.5729 21.2396 78.9219 21.2969 78.1406 21.2969C76.1302 21.2969 74.5521 21.0104 73.4062 20.4375C72.0104 19.75 71.3125 18.7135 71.3125 17.3281C71.3125 16.7865 71.4219 16.2865 71.6406 15.8281C71.8594 15.3594 72.1823 15.0104 72.6094 14.7812C72.0365 14.4271 71.5469 13.8906 71.1406 13.1719C70.7448 12.4531 70.5469 11.5677 70.5469 10.5156C70.5469 8.51562 71.2969 6.9375 72.7969 5.78125C74.2969 4.625 76.2448 4.04688 78.6406 4.04688C79.7969 4.04688 80.9115 4.23958 81.9844 4.625V3.53125C82.599 3.29167 83.4115 3.17188 84.4219 3.17188C85.4427 3.17188 86.2188 3.34375 86.75 3.6875C87.3958 4.10417 87.7188 4.83854 87.7188 5.89062C87.7188 6.47396 87.6562 6.94271 87.5312 7.29688C87.4167 7.65104 87.2448 8.02083 87.0156 8.40625C87.2865 9.09375 87.4219 9.94792 87.4219 10.9688C87.4219 12.8125 86.7656 14.2448 85.4531 15.2656C84.151 16.276 82.3958 16.7812 80.1875 16.7812Z" fill="white"/>
<path d="M69.1406 13.9219C69.1406 14.6719 69.224 15.276 69.3906 15.7344C69.5573 16.1927 69.849 16.5521 70.2656 16.8125C70.276 16.8646 70.2812 16.9635 70.2812 17.1094V17.3906C70.2812 18.8698 69.8333 20.0208 68.9375 20.8438C68.1458 21.5729 67.1667 21.9375 66 21.9375C65.2083 21.9375 64.4844 21.75 63.8281 21.375C63.1719 21 62.7031 20.4583 62.4219 19.75C62.0677 19.75 61.8906 19.9219 61.8906 20.2656C61.8906 20.5573 62.0729 20.8854 62.4375 21.25C61.7604 21.7083 60.7396 21.9375 59.375 21.9375C57.4479 21.9375 55.9062 21.4167 54.75 20.375C53.6042 19.3229 53.0312 17.8594 53.0312 15.9844C53.0312 14.099 53.6406 12.6406 54.8594 11.6094C55.974 10.6823 57.4167 10.2188 59.1875 10.2188C59.7917 10.2188 60.375 10.2604 60.9375 10.3438C61.3125 10.4167 61.5156 10.4583 61.5469 10.4688C61.5781 10.3646 61.5938 10.276 61.5938 10.2031C61.5938 9.93229 61.3646 9.75 60.9062 9.65625C60.4479 9.5625 59.849 9.51562 59.1094 9.51562C57.5365 9.51562 56.1927 9.83333 55.0781 10.4688C54.5677 9.60417 54.3125 8.51042 54.3125 7.1875C54.3125 6.4375 54.4062 5.88021 54.5938 5.51562C55.3438 5.17188 56.2969 4.86979 57.4531 4.60938C58.6094 4.33854 59.8281 4.20312 61.1094 4.20312C63.7552 4.20312 65.7552 4.78125 67.1094 5.9375C68.4635 7.09375 69.1406 8.73438 69.1406 10.8594V13.9219ZM61.0312 14.6875C60.5938 14.6875 60.375 14.8854 60.375 15.2812C60.375 15.6562 60.6302 15.8438 61.1406 15.8438C61.4948 15.8438 61.7552 15.7604 61.9219 15.5938C62.0885 15.4167 62.1719 15.1146 62.1719 14.6875C62.1719 14.6875 61.7917 14.6875 61.0312 14.6875Z" fill="white"/>
<path d="M43.8594 21.8594C42.6198 21.8594 41.6302 21.6354 40.8906 21.1875C40.0677 20.7188 39.6562 20.026 39.6562 19.1094V11.0625C39.0417 10.1979 38.7344 9.13542 38.7344 7.875C38.7344 6.60417 39.0417 5.50521 39.6562 4.57812H42.0469C43.276 4.57812 44.1562 4.97396 44.6875 5.76562C44.4271 6.05729 44.1979 6.42708 44 6.875C43.8021 7.32292 43.7031 7.64583 43.7031 7.84375C43.7031 8.03125 43.75 8.17188 43.8438 8.26562C43.9479 8.35938 44.0938 8.40625 44.2812 8.40625C44.6458 6.95833 45.3385 5.89583 46.3594 5.21875C47.2031 4.64583 48.2448 4.35938 49.4844 4.35938C51.026 4.35938 52.2344 4.6875 53.1094 5.34375C53.4219 6.17708 53.5781 7.19792 53.5781 8.40625C53.5781 9.60417 53.3385 10.6927 52.8594 11.6719C52.5052 11.8594 52.0156 12.0208 51.3906 12.1562C50.7656 12.2812 50.1354 12.3438 49.5 12.3438C48.8646 12.3438 48.2917 12.3021 47.7812 12.2188C47.2812 12.125 46.9167 12.0417 46.6875 11.9688C46.6042 12.0521 46.5625 12.1719 46.5625 12.3281C46.5625 12.4844 46.6615 12.6042 46.8594 12.6875C47.0677 12.7604 47.4115 12.8438 47.8906 12.9375V20.7812C46.7552 21.5 45.4115 21.8594 43.8594 21.8594Z" fill="white"/>
<path d="M37.6406 13.9219C37.6406 14.6719 37.724 15.276 37.8906 15.7344C38.0573 16.1927 38.349 16.5521 38.7656 16.8125C38.776 16.8646 38.7812 16.9635 38.7812 17.1094V17.3906C38.7812 18.8698 38.3333 20.0208 37.4375 20.8438C36.6458 21.5729 35.6667 21.9375 34.5 21.9375C33.7083 21.9375 32.9844 21.75 32.3281 21.375C31.6719 21 31.2031 20.4583 30.9219 19.75C30.5677 19.75 30.3906 19.9219 30.3906 20.2656C30.3906 20.5573 30.5729 20.8854 30.9375 21.25C30.2604 21.7083 29.2396 21.9375 27.875 21.9375C25.9479 21.9375 24.4062 21.4167 23.25 20.375C22.1042 19.3229 21.5312 17.8594 21.5312 15.9844C21.5312 14.099 22.1406 12.6406 23.3594 11.6094C24.474 10.6823 25.9167 10.2188 27.6875 10.2188C28.2917 10.2188 28.875 10.2604 29.4375 10.3438C29.8125 10.4167 30.0156 10.4583 30.0469 10.4688C30.0781 10.3646 30.0938 10.276 30.0938 10.2031C30.0938 9.93229 29.8646 9.75 29.4062 9.65625C28.9479 9.5625 28.349 9.51562 27.6094 9.51562C26.0365 9.51562 24.6927 9.83333 23.5781 10.4688C23.0677 9.60417 22.8125 8.51042 22.8125 7.1875C22.8125 6.4375 22.9062 5.88021 23.0938 5.51562C23.8438 5.17188 24.7969 4.86979 25.9531 4.60938C27.1094 4.33854 28.3281 4.20312 29.6094 4.20312C32.2552 4.20312 34.2552 4.78125 35.6094 5.9375C36.9635 7.09375 37.6406 8.73438 37.6406 10.8594V13.9219ZM29.5312 14.6875C29.0938 14.6875 28.875 14.8854 28.875 15.2812C28.875 15.6562 29.1302 15.8438 29.6406 15.8438C29.9948 15.8438 30.2552 15.7604 30.4219 15.5938C30.5885 15.4167 30.6719 15.1146 30.6719 14.6875C30.6719 14.6875 30.2917 14.6875 29.5312 14.6875Z" fill="white"/>
<path d="M11.4688 8.64062H20.7344C21.3281 9.50521 21.625 10.5573 21.625 11.7969C21.625 13.026 21.3698 14.026 20.8594 14.7969H20.2188V19.4844C18.1667 21.2656 15.4583 22.1562 12.0938 22.1562C10.0417 22.1562 8.21875 21.7917 6.625 21.0625C4.88542 20.2812 3.53646 19.1406 2.57812 17.6406C1.52604 15.9948 1 13.974 1 11.5781C1 8.17188 2.02083 5.53646 4.0625 3.67188C6 1.89062 8.625 1 11.9375 1C13.5729 1 15.1146 1.24479 16.5625 1.73438C18.0208 2.22396 19.1719 2.83333 20.0156 3.5625C20.0156 4.1875 19.9375 4.95312 19.7812 5.85938C19.6354 6.76562 19.4479 7.45833 19.2188 7.9375H10.9844C10.651 8.29167 10.3333 8.80208 10.0312 9.46875C9.73958 10.1354 9.59375 10.901 9.59375 11.7656C9.59375 12.9531 9.89062 13.8854 10.4844 14.5625C11.0052 15.1771 11.6719 15.4844 12.4844 15.4844C12.8177 15.4844 12.9844 15.3698 12.9844 15.1406V14.7812H12.8125C12.125 14.7812 11.5521 14.5156 11.0938 13.9844C10.6458 13.4427 10.4219 12.6719 10.4219 11.6719C10.4219 10.4219 10.7708 9.41146 11.4688 8.64062Z" fill="white"/>
<path d="M105.062 11.2344C105.062 9.23438 104.307 7.55208 102.797 6.1875C101.297 4.8125 99.3021 4.125 96.8125 4.125C94.3229 4.125 92.2656 4.89062 90.6406 6.42188C88.8802 8.06771 88 10.2969 88 13.1094C88 15.9115 88.8542 18.1198 90.5625 19.7344C92.2292 21.3385 94.5052 22.1406 97.3906 22.1406C99.1198 22.1406 100.589 21.9219 101.797 21.4844C102.651 21.1927 103.484 20.7031 104.297 20.0156C104.391 19.6406 104.438 19.2135 104.438 18.7344C104.438 18.2448 104.359 17.7083 104.203 17.125C104.057 16.5312 103.859 16.125 103.609 15.9062C103.089 16.2708 102.396 16.5885 101.531 16.8594C100.677 17.1198 99.724 17.25 98.6719 17.25C97.6302 17.25 96.6979 17.1094 95.875 16.8281C95.0521 16.5677 94.6406 16.2812 94.6406 15.9688C94.6406 15.8021 94.6823 15.6875 94.7656 15.625C95.7865 16.2396 97.0365 16.5469 98.5156 16.5469C100.495 16.5469 102.057 16.1198 103.203 15.2656C104.443 14.3594 105.062 13.0156 105.062 11.2344ZM106.062 11.2344C106.062 12.919 105.565 14.3487 104.526 15.4307C104.847 15.8339 105.04 16.3514 105.168 16.8662H105.169C105.343 17.5151 105.438 18.1399 105.438 18.7344C105.438 19.2766 105.384 19.7873 105.267 20.2578L105.188 20.5713L104.942 20.7793C104.057 21.5287 103.122 22.0848 102.137 22.4238C100.789 22.9118 99.1982 23.1406 97.3906 23.1406C94.3139 23.1406 91.7655 22.2802 89.8691 20.4551V20.4541C87.9583 18.6443 87.0308 16.2042 87.002 13.252C87.28 12.5777 87.4219 11.8174 87.4219 10.9688C87.4219 10.642 87.4057 10.3326 87.3779 10.04C87.8268 8.34682 88.6795 6.88666 89.958 5.69141C91.79 3.96659 94.1013 3.125 96.8125 3.125C99.4936 3.125 101.749 3.87029 103.473 5.4502H103.472C105.185 6.99984 106.062 8.94799 106.062 11.2344ZM97.9688 10.9688C97.9688 11.3646 97.7083 11.5625 97.1875 11.5625C96.8125 11.5625 96.4792 11.474 96.1875 11.2969C96.2708 10.7031 96.5885 10.4062 97.1406 10.4062C97.6927 10.4062 97.9688 10.5938 97.9688 10.9688Z" fill="black"/>
<path d="M87.7344 21.5C87.7344 20.4167 87.4792 19.474 86.9688 18.6719C86.3438 17.6927 85.4688 17.0573 84.3438 16.7656C83.1979 17.2448 81.8125 17.4844 80.1875 17.4844C79.6771 17.4844 79.2552 17.4479 78.9219 17.375C78.599 17.2917 78.4375 17.1354 78.4375 16.9062C78.4375 16.8229 78.4531 16.7344 78.4844 16.6406C78.9531 16.7344 79.5208 16.7812 80.1875 16.7812C82.3958 16.7812 84.151 16.276 85.4531 15.2656C86.7656 14.2448 87.4219 12.8125 87.4219 10.9688C87.4219 9.94792 87.2865 9.09375 87.0156 8.40625C87.2448 8.02083 87.4167 7.65104 87.5312 7.29688C87.6562 6.94271 87.7188 6.47396 87.7188 5.89062C87.7188 4.83854 87.3958 4.10417 86.75 3.6875C86.2188 3.34375 85.4427 3.17188 84.4219 3.17188C83.4115 3.17188 82.599 3.29167 81.9844 3.53125V4.625C80.9115 4.23958 79.7969 4.04688 78.6406 4.04688C76.2448 4.04688 74.2969 4.625 72.7969 5.78125C71.2969 6.9375 70.5469 8.51562 70.5469 10.5156C70.5469 11.5677 70.7448 12.4531 71.1406 13.1719C71.5469 13.8906 72.0365 14.4271 72.6094 14.7812C72.1823 15.0104 71.8594 15.3594 71.6406 15.8281C71.4219 16.2865 71.3125 16.7865 71.3125 17.3281C71.3125 18.7135 72.0104 19.75 73.4062 20.4375C74.5521 21.0104 76.1302 21.2969 78.1406 21.2969C78.9219 21.2969 79.5729 21.2396 80.0938 21.125C80.1562 21.2292 80.1875 21.3333 80.1875 21.4375C80.1875 21.6458 80.0312 21.7917 79.7188 21.875C79.4167 21.9583 78.7292 22 77.6562 22C76.5833 22 75.5365 21.8646 74.5156 21.5938C73.5052 21.3229 72.7396 20.9688 72.2188 20.5312C71.9062 20.7083 71.6302 21.0365 71.3906 21.5156C71.151 21.9844 71.0312 22.474 71.0312 22.9844C71.0312 24.3177 71.6823 25.401 72.9844 26.2344C74.3906 27.151 76.3802 27.6094 78.9531 27.6094C81.5365 27.6094 83.6458 27.0729 85.2812 26C86.9167 24.9271 87.7344 23.4271 87.7344 21.5ZM79.1875 9.89062C79.4688 9.89062 79.6094 10.0781 79.6094 10.4531V11.2031C79.6094 11.5365 79.5781 11.7656 79.5156 11.8906C79.4531 12.0156 79.3385 12.0781 79.1719 12.0781C79.0052 12.0781 78.8802 12.0417 78.7969 11.9688V10.3594C78.7969 10.0469 78.9271 9.89062 79.1875 9.89062ZM88.7188 5.89062C88.7188 6.53173 88.6522 7.12662 88.4746 7.62988L88.4727 7.62891C88.3768 7.92019 88.2521 8.21092 88.1025 8.50195C88.2517 9.0015 88.3455 9.54509 88.3896 10.1279C88.1301 11.0358 88 12.0295 88 13.1094C88 13.2174 88.0033 13.3244 88.0059 13.4307C87.6258 14.4576 86.9843 15.3414 86.0674 16.0547L86.0664 16.0557C85.9771 16.1249 85.8854 16.191 85.793 16.2559C86.6106 16.6843 87.288 17.3137 87.8115 18.1338L87.8125 18.1348C88.4387 19.1188 88.7344 20.2537 88.7344 21.5C88.7344 23.77 87.742 25.5815 85.8301 26.8359C83.987 28.0451 81.67 28.6094 78.9531 28.6094C76.2823 28.6094 74.0722 28.1371 72.4385 27.0723V27.0713C70.9073 26.0888 70.0312 24.715 70.0312 22.9844C70.0312 22.3107 70.1908 21.6656 70.5 21.0605C70.6949 20.6724 70.9388 20.3108 71.2461 20.0205C71.1618 19.9183 71.081 19.8133 71.0068 19.7031C70.5348 19.0021 70.3125 18.1973 70.3125 17.3281C70.3125 16.6475 70.4511 15.9992 70.7383 15.3975C70.838 15.185 70.9568 14.9879 71.0918 14.8057C70.7834 14.4709 70.5103 14.0882 70.2705 13.6641L70.2646 13.6543C69.7676 12.7518 69.5469 11.6899 69.5469 10.5156C69.5469 8.22569 70.4254 6.34682 72.1865 4.98926C73.9033 3.66595 76.0833 3.04688 78.6406 3.04688C79.4384 3.04688 80.2201 3.13025 80.9844 3.29785V2.84766L81.6211 2.59961C82.3961 2.29749 83.3464 2.17188 84.4219 2.17188C85.5279 2.17188 86.5287 2.35325 87.293 2.84766H87.292C88.3227 3.51267 88.7188 4.63725 88.7188 5.89062Z" fill="black"/>
<path d="M52.0312 15.9844C52.0312 13.8867 52.7143 12.1411 54.166 10.8877C53.8833 10.3878 53.6748 9.8401 53.5352 9.25C53.5628 8.975 53.5781 8.69386 53.5781 8.40625C53.5781 7.60081 53.507 6.87905 53.3682 6.24023C53.4244 5.80374 53.528 5.40108 53.7041 5.05859L53.8623 4.75098L54.1768 4.60645C55.0107 4.22423 56.036 3.90346 57.2334 3.63379C58.4675 3.34544 59.7604 3.20312 61.1094 3.20312C63.8811 3.20312 66.1535 3.8061 67.7588 5.17676C69.3788 6.56002 70.1406 8.50405 70.1406 10.8594V13.9219C70.1406 14.6111 70.2187 15.0862 70.3301 15.3926C70.4087 15.6087 70.5311 15.7751 70.7139 15.9092L70.7959 15.9648L71.1611 16.1934L71.2461 16.6162C71.2787 16.7793 71.2812 16.9738 71.2812 17.1094V17.3906C71.2812 19.0843 70.7598 20.5277 69.6143 21.5801C68.6219 22.4938 67.3944 22.9375 66 22.9375C65.0429 22.9375 64.1467 22.7087 63.332 22.2432C63.2282 22.1838 63.1281 22.1207 63.0312 22.0547L62.998 22.0781C62.0781 22.7009 60.8192 22.9375 59.375 22.9375C57.2623 22.9375 55.462 22.3621 54.0811 21.1182L54.0732 21.1113C52.6796 19.8315 52.0312 18.0769 52.0312 15.9844ZM61.0312 14.6875H62.1719C62.1719 15.1146 62.0885 15.4167 61.9219 15.5938C61.7552 15.7604 61.4948 15.8438 61.1406 15.8438C60.6302 15.8438 60.375 15.6562 60.375 15.2812C60.375 14.8854 60.5938 14.6875 61.0312 14.6875ZM54.3125 7.1875C54.3125 8.51042 54.5677 9.60417 55.0781 10.4688C56.1927 9.83333 57.5365 9.51562 59.1094 9.51562C59.849 9.51562 60.4479 9.5625 60.9062 9.65625C61.3646 9.75 61.5938 9.93229 61.5938 10.2031C61.5938 10.276 61.5781 10.3646 61.5469 10.4688C61.5156 10.4583 61.3125 10.4167 60.9375 10.3438C60.375 10.2604 59.7917 10.2188 59.1875 10.2188C57.4167 10.2188 55.974 10.6823 54.8594 11.6094C53.6406 12.6406 53.0312 14.099 53.0312 15.9844C53.0312 17.8594 53.6042 19.3229 54.75 20.375C55.9062 21.4167 57.4479 21.9375 59.375 21.9375C60.7396 21.9375 61.7604 21.7083 62.4375 21.25C62.0729 20.8854 61.8906 20.5573 61.8906 20.2656C61.8906 19.9219 62.0677 19.75 62.4219 19.75C62.7031 20.4583 63.1719 21 63.8281 21.375C64.4844 21.75 65.2083 21.9375 66 21.9375C67.1667 21.9375 68.1458 21.5729 68.9375 20.8438C69.8333 20.0208 70.2812 18.8698 70.2812 17.3906V17.1094C70.2812 16.9635 70.276 16.8646 70.2656 16.8125C69.849 16.5521 69.5573 16.1927 69.3906 15.7344C69.224 15.276 69.1406 14.6719 69.1406 13.9219V10.8594C69.1406 8.73438 68.4635 7.09375 67.1094 5.9375C65.7552 4.78125 63.7552 4.20312 61.1094 4.20312C59.8281 4.20312 58.6094 4.33854 57.4531 4.60938C56.2969 4.86979 55.3438 5.17188 54.5938 5.51562C54.4062 5.88021 54.3125 6.4375 54.3125 7.1875Z" fill="black"/>
<path d="M53.5781 8.40625C53.5781 7.19792 53.4219 6.17708 53.1094 5.34375C52.2344 4.6875 51.026 4.35938 49.4844 4.35938C48.2448 4.35938 47.2031 4.64583 46.3594 5.21875C45.3385 5.89583 44.6458 6.95833 44.2812 8.40625C44.0938 8.40625 43.9479 8.35938 43.8438 8.26562C43.75 8.17188 43.7031 8.03125 43.7031 7.84375C43.7031 7.64583 43.8021 7.32292 44 6.875C44.1979 6.42708 44.4271 6.05729 44.6875 5.76562C44.1562 4.97396 43.276 4.57812 42.0469 4.57812V3.57812C43.33 3.57812 44.4505 3.95465 45.2256 4.83105C45.4076 4.67117 45.6008 4.52225 45.8066 4.38574C46.8471 3.68217 48.0921 3.35938 49.4844 3.35938C51.0517 3.35938 52.4214 3.67094 53.498 4.39355L53.709 4.54395L53.9434 4.71875L54.0459 4.99219C54.1883 5.37183 54.298 5.77792 54.3818 6.20703C54.335 6.48564 54.3125 6.81257 54.3125 7.1875C54.3125 7.91209 54.3918 8.56721 54.5449 9.1543C54.4622 10.207 54.2056 11.1961 53.7578 12.1113L53.6143 12.4033L53.3271 12.5557C52.8591 12.8035 52.2704 12.9891 51.6025 13.1338L51.5947 13.1357L51.5869 13.1367C50.8975 13.2746 50.2015 13.3438 49.5 13.3438C49.2921 13.3438 49.089 13.3376 48.8906 13.3291V21.332L48.4258 21.626C47.1068 22.4609 45.5709 22.8594 43.8594 22.8594C42.5227 22.8594 41.3412 22.6209 40.3955 22.0557C39.2734 21.4163 38.6562 20.3997 38.6562 19.1094V18.6504C38.7393 18.2609 38.7812 17.841 38.7812 17.3906V17.1094C38.7812 16.9635 38.776 16.8646 38.7656 16.8125C38.7277 16.7888 38.6921 16.7626 38.6562 16.7373V11.3623C38.0284 10.3571 37.7344 9.18027 37.7344 7.875C37.7344 6.43647 38.0852 5.13878 38.8232 4.02539L39.1191 3.57812H42.0469V4.57812H39.6562C39.0417 5.50521 38.7344 6.60417 38.7344 7.875C38.7344 9.13542 39.0417 10.1979 39.6562 11.0625V19.1094C39.6562 20.026 40.0677 20.7188 40.8906 21.1875C41.6302 21.6354 42.6198 21.8594 43.8594 21.8594C45.4115 21.8594 46.7552 21.5 47.8906 20.7812V12.9375C47.4115 12.8438 47.0677 12.7604 46.8594 12.6875C46.6615 12.6042 46.5625 12.4844 46.5625 12.3281C46.5625 12.1719 46.6042 12.0521 46.6875 11.9688C46.9167 12.0417 47.2812 12.125 47.7812 12.2188C48.2917 12.3021 48.8646 12.3438 49.5 12.3438C50.1354 12.3438 50.7656 12.2812 51.3906 12.1562C52.0156 12.0208 52.5052 11.8594 52.8594 11.6719C53.3385 10.6927 53.5781 9.60417 53.5781 8.40625Z" fill="black"/>
<path d="M20.5312 15.9844C20.5312 15.5748 20.5577 15.1786 20.6104 14.7969H20.8594C21.3318 14.0834 21.582 13.1735 21.6172 12.0674C21.9068 11.6369 22.2552 11.2424 22.666 10.8877C22.0764 9.84514 21.8125 8.59369 21.8125 7.1875C21.8125 6.38991 21.9061 5.63831 22.2041 5.05859L22.3623 4.75098L22.6768 4.60645C23.5107 4.22423 24.536 3.90346 25.7334 3.63379C26.9675 3.34544 28.2604 3.20312 29.6094 3.20312C32.3811 3.20312 34.6535 3.8061 36.2588 5.17676C37.8788 6.56002 38.6406 8.50405 38.6406 10.8594V13.9219C38.6406 14.6111 38.7187 15.0862 38.8301 15.3926C38.9087 15.6087 39.0311 15.7751 39.2139 15.9092L39.2959 15.9648L39.6562 16.1895V18.7393C39.4414 19.8548 38.9419 20.8197 38.1143 21.5801C37.1219 22.4938 35.8944 22.9375 34.5 22.9375C33.5429 22.9375 32.6467 22.7087 31.832 22.2432C31.7282 22.1838 31.6281 22.1207 31.5312 22.0547L31.498 22.0781C30.5781 22.7009 29.3192 22.9375 27.875 22.9375C25.7623 22.9375 23.962 22.3621 22.5811 21.1182L22.5732 21.1113C21.1796 19.8315 20.5312 18.0769 20.5312 15.9844ZM29.5312 14.6875H30.6719C30.6719 15.1146 30.5885 15.4167 30.4219 15.5938C30.2552 15.7604 29.9948 15.8438 29.6406 15.8438C29.1302 15.8438 28.875 15.6562 28.875 15.2812C28.875 14.8854 29.0938 14.6875 29.5312 14.6875ZM22.8125 7.1875C22.8125 8.51042 23.0677 9.60417 23.5781 10.4688C24.6927 9.83333 26.0365 9.51562 27.6094 9.51562C28.349 9.51562 28.9479 9.5625 29.4062 9.65625C29.8646 9.75 30.0938 9.93229 30.0938 10.2031C30.0938 10.276 30.0781 10.3646 30.0469 10.4688C30.0156 10.4583 29.8125 10.4167 29.4375 10.3438C28.875 10.2604 28.2917 10.2188 27.6875 10.2188C25.9167 10.2188 24.474 10.6823 23.3594 11.6094C22.1406 12.6406 21.5312 14.099 21.5312 15.9844C21.5312 17.8594 22.1042 19.3229 23.25 20.375C24.4062 21.4167 25.9479 21.9375 27.875 21.9375C29.2396 21.9375 30.2604 21.7083 30.9375 21.25C30.5729 20.8854 30.3906 20.5573 30.3906 20.2656C30.3906 19.9219 30.5677 19.75 30.9219 19.75C31.2031 20.4583 31.6719 21 32.3281 21.375C32.9844 21.75 33.7083 21.9375 34.5 21.9375C35.6667 21.9375 36.6458 21.5729 37.4375 20.8438C38.3333 20.0208 38.7812 18.8698 38.7812 17.3906V17.1094C38.7812 16.9635 38.776 16.8646 38.7656 16.8125C38.349 16.5521 38.0573 16.1927 37.8906 15.7344C37.724 15.276 37.6406 14.6719 37.6406 13.9219V10.8594C37.6406 8.73438 36.9635 7.09375 35.6094 5.9375C34.2552 4.78125 32.2552 4.20312 29.6094 4.20312C28.3281 4.20312 27.1094 4.33854 25.9531 4.60938C24.7969 4.86979 23.8438 5.17188 23.0938 5.51562C22.9062 5.88021 22.8125 6.4375 22.8125 7.1875Z" fill="black"/>
<path d="M20.0156 3.5625C19.1719 2.83333 18.0208 2.22396 16.5625 1.73438C15.1146 1.24479 13.5729 1 11.9375 1C8.625 1 6 1.89062 4.0625 3.67188C2.02083 5.53646 1 8.17188 1 11.5781C1 13.974 1.52604 15.9948 2.57812 17.6406C3.53646 19.1406 4.88542 20.2812 6.625 21.0625C8.21875 21.7917 10.0417 22.1562 12.0938 22.1562C15.4583 22.1562 18.1667 21.2656 20.2188 19.4844V14.7969H20.8594C21.3698 14.026 21.625 13.026 21.625 11.7969C21.625 10.5573 21.3281 9.50521 20.7344 8.64062H11.4688C10.7708 9.41146 10.4219 10.4219 10.4219 11.6719C10.4219 12.6719 10.6458 13.4427 11.0938 13.9844C11.5521 14.5156 12.125 14.7812 12.8125 14.7812H12.9844V15.1406C12.9844 15.3698 12.8177 15.4844 12.4844 15.4844C11.6719 15.4844 11.0052 15.1771 10.4844 14.5625C9.89062 13.8854 9.59375 12.9531 9.59375 11.7656C9.59375 10.901 9.73958 10.1354 10.0312 9.46875C10.3333 8.80208 10.651 8.29167 10.9844 7.9375H19.2188C19.4479 7.45833 19.6354 6.76562 19.7812 5.85938C19.9375 4.95312 20.0156 4.1875 20.0156 3.5625ZM21.0156 3.5625C21.0156 4.26133 20.9282 5.08354 20.7676 6.01758C20.6705 6.62087 20.5517 7.16708 20.4023 7.64062H21.2607L21.5586 8.07422C22.2863 9.13393 22.625 10.3928 22.625 11.7969C22.625 12.0044 22.615 12.2081 22.6016 12.4082C21.9568 13.2604 21.6027 14.3163 21.541 15.5771L21.3965 15.7969H21.2188V19.9404L20.874 20.2393C18.5996 22.2135 15.6397 23.1562 12.0938 23.1562C9.92471 23.1562 7.95822 22.7702 6.21484 21.9736V21.9746C4.31108 21.1195 2.80602 19.8545 1.73535 18.1787V18.1797C0.559352 16.34 0 14.1214 0 11.5781C0 7.96126 1.09208 5.03027 3.3877 2.93359C5.5538 0.943299 8.44291 0 11.9375 0C13.6731 0 15.3226 0.259952 16.8799 0.786133C18.4178 1.30244 19.6981 1.96583 20.6699 2.80566L21.0156 3.10547V3.5625Z" fill="black"/>
<path d="M76.0111 48.224C74.1124 48.224 72.4484 47.8506 71.0191 47.104C69.6111 46.336 68.5124 45.2906 67.7231 43.968C66.9551 42.6453 66.5711 41.1413 66.5711 39.456C66.5711 37.7493 66.9444 36.2453 67.6911 34.944C68.4591 33.6213 69.5044 32.5866 70.8271 31.84C72.1711 31.0933 73.6964 30.72 75.4031 30.72C77.0671 30.72 78.5498 31.0826 79.8511 31.808C81.1524 32.5333 82.1764 33.5573 82.9231 34.88C83.6698 36.2026 84.0431 37.76 84.0431 39.552C84.0431 39.7226 84.0324 39.9146 84.0111 40.128C84.0111 40.3413 84.0004 40.544 83.9791 40.736H69.7391V38.08H81.8671L80.2991 38.912C80.3204 37.9306 80.1178 37.0666 79.6911 36.32C79.2644 35.5733 78.6778 34.9866 77.9311 34.56C77.2058 34.1333 76.3631 33.92 75.4031 33.92C74.4218 33.92 73.5578 34.1333 72.8111 34.56C72.0858 34.9866 71.5098 35.584 71.0831 36.352C70.6778 37.0986 70.4751 37.984 70.4751 39.008V39.648C70.4751 40.672 70.7098 41.5786 71.1791 42.368C71.6484 43.1573 72.3098 43.7653 73.1631 44.192C74.0164 44.6186 74.9978 44.832 76.1071 44.832C77.0671 44.832 77.9311 44.6826 78.6991 44.384C79.4671 44.0853 80.1498 43.616 80.7471 42.976L82.8911 45.44C82.1231 46.336 81.1524 47.0293 79.9791 47.52C78.8271 47.9893 77.5044 48.224 76.0111 48.224Z" fill="black"/>
<path d="M56.3844 54.432C54.8057 54.432 53.259 54.2186 51.7444 53.792C50.251 53.3866 49.0244 52.7893 48.0644 52L49.8564 48.992C50.603 49.6106 51.5417 50.1013 52.6724 50.464C53.8244 50.848 54.987 51.04 56.1604 51.04C58.0377 51.04 59.4137 50.6026 60.2884 49.728C61.163 48.8746 61.6004 47.584 61.6004 45.856V42.816L61.9204 38.944L61.7924 35.072V30.912H65.6004V45.408C65.6004 48.5013 64.811 50.7733 63.2324 52.224C61.6537 53.696 59.371 54.432 56.3844 54.432ZM55.8724 47.232C54.251 47.232 52.779 46.8906 51.4564 46.208C50.155 45.504 49.1204 44.5333 48.3524 43.296C47.6057 42.0586 47.2324 40.608 47.2324 38.944C47.2324 37.3013 47.6057 35.8613 48.3524 34.624C49.1204 33.3866 50.155 32.4266 51.4564 31.744C52.779 31.0613 54.251 30.72 55.8724 30.72C57.323 30.72 58.6244 31.008 59.7764 31.584C60.9284 32.16 61.8457 33.056 62.5284 34.272C63.2324 35.488 63.5844 37.0453 63.5844 38.944C63.5844 40.8426 63.2324 42.4106 62.5284 43.648C61.8457 44.864 60.9284 45.7706 59.7764 46.368C58.6244 46.944 57.323 47.232 55.8724 47.232ZM56.4804 43.84C57.483 43.84 58.379 43.6373 59.1684 43.232C59.9577 42.8053 60.5657 42.2293 60.9924 41.504C61.4404 40.7573 61.6644 39.904 61.6644 38.944C61.6644 37.984 61.4404 37.1413 60.9924 36.416C60.5657 35.6693 59.9577 35.104 59.1684 34.72C58.379 34.3146 57.483 34.112 56.4804 34.112C55.4777 34.112 54.571 34.3146 53.7604 34.72C52.971 35.104 52.3524 35.6693 51.9044 36.416C51.4777 37.1413 51.2644 37.984 51.2644 38.944C51.2644 39.904 51.4777 40.7573 51.9044 41.504C52.3524 42.2293 52.971 42.8053 53.7604 43.232C54.571 43.6373 55.4777 43.84 56.4804 43.84Z" fill="black"/>
<path d="M96.0003 47.5004C96.8285 47.5006 97.5003 48.1721 97.5003 49.0004C97.5002 50.6005 97.3249 52.5196 95.4905 53.9945C93.8388 55.3223 91.0589 56.0924 86.636 56.4945C83.7135 56.7602 80.7302 56.49 77.1018 56.0521C73.4468 55.611 69.088 54.9915 63.2483 54.4945C62.7715 54.4539 62.2843 54.4161 61.7874 54.3773C62.5751 54.0071 63.2849 53.5387 63.9075 52.9594L63.9085 52.9603C64.3362 52.5672 64.7083 52.1264 65.0296 51.6429C70.1895 52.1198 74.183 52.678 77.4612 53.0736C81.0823 53.5106 83.7873 53.7405 86.3645 53.5062C90.7411 53.1083 92.7123 52.3787 93.6106 51.6566C94.3257 51.0817 94.5002 50.3998 94.5003 49.0004C94.5003 48.1719 95.1718 47.5004 96.0003 47.5004ZM4.87136 52.5062C23.1843 50.9275 36.9894 50.54 47.6604 50.722L46.7649 52.2269L47.429 52.7728C47.8723 53.1373 48.3609 53.4603 48.8909 53.7455C38.1652 53.5112 24.0949 53.8595 5.12917 55.4945C4.30397 55.5656 3.57752 54.9544 3.50612 54.1293C3.43497 53.3039 4.04604 52.5774 4.87136 52.5062ZM48.8108 50.7445C50.8937 50.7889 52.8539 50.855 54.7024 50.9379C55.0408 50.9842 55.3798 51.0167 55.72 51.0306L56.1594 51.0404C56.307 51.0404 56.4517 51.036 56.593 51.0306C59.1021 51.1637 61.3951 51.3269 63.5022 51.5062C63.6243 51.5166 63.7456 51.528 63.8665 51.5385C63.6707 51.7835 63.4607 52.0135 63.2317 52.224C62.1769 53.2074 60.8075 53.8596 59.1243 54.1859C56.9073 54.0411 54.5023 53.9165 51.8821 53.8285C51.8362 53.816 51.7893 53.8053 51.7434 53.7924C50.2504 53.387 49.0236 52.7895 48.0637 52.0004L48.8108 50.7445Z" fill="black"/>
<path d="M38.3953 48V30.912H42.2033V35.616L41.7553 34.24C42.2673 33.088 43.0673 32.2133 44.1553 31.616C45.2647 31.0186 46.6407 30.72 48.2833 30.72V34.528C48.1127 34.4853 47.9527 34.464 47.8033 34.464C47.654 34.4426 47.5047 34.432 47.3553 34.432C45.8407 34.432 44.6353 34.88 43.7393 35.776C42.8433 36.6506 42.3953 37.9626 42.3953 39.712V48H38.3953Z" fill="black"/>
<path d="M28.3303 48.224C26.581 48.224 25.0236 47.8506 23.6583 47.104C22.293 46.336 21.2156 45.2906 20.4263 43.968C19.637 42.6453 19.2423 41.1413 19.2423 39.456C19.2423 37.7493 19.637 36.2453 20.4263 34.944C21.2156 33.6213 22.293 32.5866 23.6583 31.84C25.0236 31.0933 26.581 30.72 28.3303 30.72C30.101 30.72 31.669 31.0933 33.0343 31.84C34.421 32.5866 35.4983 33.6106 36.2663 34.912C37.0556 36.2133 37.4503 37.728 37.4503 39.456C37.4503 41.1413 37.0556 42.6453 36.2663 43.968C35.4983 45.2906 34.421 46.336 33.0343 47.104C31.669 47.8506 30.101 48.224 28.3303 48.224ZM28.3303 44.8C29.3116 44.8 30.1863 44.5866 30.9543 44.16C31.7223 43.7333 32.3196 43.1146 32.7463 42.304C33.1943 41.4933 33.4183 40.544 33.4183 39.456C33.4183 38.3466 33.1943 37.3973 32.7463 36.608C32.3196 35.7973 31.7223 35.1786 30.9543 34.752C30.1863 34.3253 29.3223 34.112 28.3623 34.112C27.381 34.112 26.5063 34.3253 25.7383 34.752C24.9916 35.1786 24.3943 35.7973 23.9463 36.608C23.4983 37.3973 23.2743 38.3466 23.2743 39.456C23.2743 40.544 23.4983 41.4933 23.9463 42.304C24.3943 43.1146 24.9916 43.7333 25.7383 44.16C26.5063 44.5866 27.3703 44.8 28.3303 44.8Z" fill="black"/>
<path d="M7.81606 35.904H18.9841V39.424H7.81606V35.904ZM8.16806 48H4.00806V25.6H20.3601V29.088H8.16806V48Z" fill="black"/>
</svg>
