<svg width="107" height="58" viewBox="0 0 107 58" fill="none" xmlns="http://www.w3.org/2000/svg">
<path d="M105 37.7993H102.667L96.832 46.5513C96.4362 47.1449 95.5638 47.145 95.168 46.5513L89.333 37.7993H87V26.7993H105V37.7993Z" fill="black"/>
<path d="M97.3906 22.9399C94.5052 22.9399 92.2292 22.1379 90.5625 20.5337C88.8542 18.9191 88 16.7108 88 13.9087C88 11.0962 88.8802 8.86702 90.6406 7.22119C92.2656 5.68994 94.3229 4.92432 96.8125 4.92432C99.3021 4.92432 101.297 5.61182 102.797 6.98682C104.307 8.3514 105.062 10.0337 105.062 12.0337C105.062 13.8149 104.443 15.1587 103.203 16.0649C102.057 16.9191 100.495 17.3462 98.5156 17.3462C97.0365 17.3462 95.7865 17.0389 94.7656 16.4243C94.6823 16.4868 94.6406 16.6014 94.6406 16.7681C94.6406 17.0806 95.0521 17.367 95.875 17.6274C96.6979 17.9087 97.6302 18.0493 98.6719 18.0493C99.724 18.0493 100.677 17.9191 101.531 17.6587C102.396 17.3879 103.089 17.0701 103.609 16.7056C103.859 16.9243 104.057 17.3306 104.203 17.9243C104.359 18.5076 104.438 19.0441 104.438 19.5337C104.438 20.0129 104.391 20.4399 104.297 20.8149C103.484 21.5024 102.651 21.992 101.797 22.2837C100.589 22.7212 99.1198 22.9399 97.3906 22.9399ZM97.1875 12.3618C97.7083 12.3618 97.9688 12.1639 97.9688 11.7681C97.9688 11.3931 97.6927 11.2056 97.1406 11.2056C96.5885 11.2056 96.2708 11.5024 96.1875 12.0962C96.4792 12.2733 96.8125 12.3618 97.1875 12.3618Z" fill="#FF9500"/>
<path d="M79.6094 11.2524C79.6094 10.8774 79.4688 10.6899 79.1875 10.6899C78.9271 10.6899 78.7969 10.8462 78.7969 11.1587V12.7681C78.8802 12.841 79.0052 12.8774 79.1719 12.8774C79.3385 12.8774 79.4531 12.8149 79.5156 12.6899C79.5781 12.5649 79.6094 12.3358 79.6094 12.0024V11.2524ZM80.1875 17.5806C79.5208 17.5806 78.9531 17.5337 78.4844 17.4399C78.4531 17.5337 78.4375 17.6222 78.4375 17.7056C78.4375 17.9347 78.599 18.091 78.9219 18.1743C79.2552 18.2472 79.6771 18.2837 80.1875 18.2837C81.8125 18.2837 83.1979 18.0441 84.3438 17.5649C85.4688 17.8566 86.3438 18.492 86.9688 19.4712C87.4792 20.2733 87.7344 21.216 87.7344 22.2993C87.7344 24.2264 86.9167 25.7264 85.2812 26.7993C83.6458 27.8722 81.5365 28.4087 78.9531 28.4087C76.3802 28.4087 74.3906 27.9504 72.9844 27.0337C71.6823 26.2004 71.0312 25.117 71.0312 23.7837C71.0312 23.2733 71.151 22.7837 71.3906 22.3149C71.6302 21.8358 71.9062 21.5077 72.2188 21.3306C72.7396 21.7681 73.5052 22.1222 74.5156 22.3931C75.5365 22.6639 76.5833 22.7993 77.6562 22.7993C78.7292 22.7993 79.4167 22.7577 79.7188 22.6743C80.0312 22.591 80.1875 22.4452 80.1875 22.2368C80.1875 22.1327 80.1562 22.0285 80.0938 21.9243C79.5729 22.0389 78.9219 22.0962 78.1406 22.0962C76.1302 22.0962 74.5521 21.8097 73.4062 21.2368C72.0104 20.5493 71.3125 19.5129 71.3125 18.1274C71.3125 17.5858 71.4219 17.0858 71.6406 16.6274C71.8594 16.1587 72.1823 15.8097 72.6094 15.5806C72.0365 15.2264 71.5469 14.6899 71.1406 13.9712C70.7448 13.2524 70.5469 12.367 70.5469 11.3149C70.5469 9.31494 71.2969 7.73682 72.7969 6.58057C74.2969 5.42432 76.2448 4.84619 78.6406 4.84619C79.7969 4.84619 80.9115 5.0389 81.9844 5.42432V4.33057C82.599 4.09098 83.4115 3.97119 84.4219 3.97119C85.4427 3.97119 86.2188 4.14307 86.75 4.48682C87.3958 4.90348 87.7188 5.63786 87.7188 6.68994C87.7188 7.27327 87.6562 7.74202 87.5312 8.09619C87.4167 8.45036 87.2448 8.82015 87.0156 9.20557C87.2865 9.89307 87.4219 10.7472 87.4219 11.7681C87.4219 13.6118 86.7656 15.0441 85.4531 16.0649C84.151 17.0754 82.3958 17.5806 80.1875 17.5806Z" fill="#FF9500"/>
<path d="M69.1406 14.7212C69.1406 15.4712 69.224 16.0754 69.3906 16.5337C69.5573 16.992 69.849 17.3514 70.2656 17.6118C70.276 17.6639 70.2812 17.7629 70.2812 17.9087V18.1899C70.2812 19.6691 69.8333 20.8201 68.9375 21.6431C68.1458 22.3722 67.1667 22.7368 66 22.7368C65.2083 22.7368 64.4844 22.5493 63.8281 22.1743C63.1719 21.7993 62.7031 21.2577 62.4219 20.5493C62.0677 20.5493 61.8906 20.7212 61.8906 21.0649C61.8906 21.3566 62.0729 21.6847 62.4375 22.0493C61.7604 22.5077 60.7396 22.7368 59.375 22.7368C57.4479 22.7368 55.9062 22.216 54.75 21.1743C53.6042 20.1222 53.0312 18.6587 53.0312 16.7837C53.0312 14.8983 53.6406 13.4399 54.8594 12.4087C55.974 11.4816 57.4167 11.0181 59.1875 11.0181C59.7917 11.0181 60.375 11.0597 60.9375 11.1431C61.3125 11.216 61.5156 11.2576 61.5469 11.2681C61.5781 11.1639 61.5938 11.0754 61.5938 11.0024C61.5938 10.7316 61.3646 10.5493 60.9062 10.4556C60.4479 10.3618 59.849 10.3149 59.1094 10.3149C57.5365 10.3149 56.1927 10.6326 55.0781 11.2681C54.5677 10.4035 54.3125 9.30973 54.3125 7.98682C54.3125 7.23682 54.4062 6.67952 54.5938 6.31494C55.3438 5.97119 56.2969 5.66911 57.4531 5.40869C58.6094 5.13786 59.8281 5.00244 61.1094 5.00244C63.7552 5.00244 65.7552 5.58057 67.1094 6.73682C68.4635 7.89307 69.1406 9.53369 69.1406 11.6587V14.7212ZM61.0312 15.4868C60.5938 15.4868 60.375 15.6847 60.375 16.0806C60.375 16.4556 60.6302 16.6431 61.1406 16.6431C61.4948 16.6431 61.7552 16.5597 61.9219 16.3931C62.0885 16.216 62.1719 15.9139 62.1719 15.4868C62.1719 15.4868 61.7917 15.4868 61.0312 15.4868Z" fill="#FF9500"/>
<path d="M43.8594 22.6587C42.6198 22.6587 41.6302 22.4347 40.8906 21.9868C40.0677 21.5181 39.6562 20.8254 39.6562 19.9087V11.8618C39.0417 10.9972 38.7344 9.93473 38.7344 8.67432C38.7344 7.40348 39.0417 6.30452 39.6562 5.37744H42.0469C43.276 5.37744 44.1562 5.77327 44.6875 6.56494C44.4271 6.85661 44.1979 7.2264 44 7.67432C43.8021 8.12223 43.7031 8.44515 43.7031 8.64307C43.7031 8.83057 43.75 8.97119 43.8438 9.06494C43.9479 9.15869 44.0938 9.20557 44.2812 9.20557C44.6458 7.75765 45.3385 6.69515 46.3594 6.01807C47.2031 5.44515 48.2448 5.15869 49.4844 5.15869C51.026 5.15869 52.2344 5.48682 53.1094 6.14307C53.4219 6.9764 53.5781 7.99723 53.5781 9.20557C53.5781 10.4035 53.3385 11.492 52.8594 12.4712C52.5052 12.6587 52.0156 12.8201 51.3906 12.9556C50.7656 13.0806 50.1354 13.1431 49.5 13.1431C48.8646 13.1431 48.2917 13.1014 47.7812 13.0181C47.2812 12.9243 46.9167 12.841 46.6875 12.7681C46.6042 12.8514 46.5625 12.9712 46.5625 13.1274C46.5625 13.2837 46.6615 13.4035 46.8594 13.4868C47.0677 13.5597 47.4115 13.6431 47.8906 13.7368V21.5806C46.7552 22.2993 45.4115 22.6587 43.8594 22.6587Z" fill="#FF9500"/>
<path d="M37.6406 14.7212C37.6406 15.4712 37.724 16.0754 37.8906 16.5337C38.0573 16.992 38.349 17.3514 38.7656 17.6118C38.776 17.6639 38.7812 17.7629 38.7812 17.9087V18.1899C38.7812 19.6691 38.3333 20.8201 37.4375 21.6431C36.6458 22.3722 35.6667 22.7368 34.5 22.7368C33.7083 22.7368 32.9844 22.5493 32.3281 22.1743C31.6719 21.7993 31.2031 21.2577 30.9219 20.5493C30.5677 20.5493 30.3906 20.7212 30.3906 21.0649C30.3906 21.3566 30.5729 21.6847 30.9375 22.0493C30.2604 22.5077 29.2396 22.7368 27.875 22.7368C25.9479 22.7368 24.4062 22.216 23.25 21.1743C22.1042 20.1222 21.5312 18.6587 21.5312 16.7837C21.5312 14.8983 22.1406 13.4399 23.3594 12.4087C24.474 11.4816 25.9167 11.0181 27.6875 11.0181C28.2917 11.0181 28.875 11.0597 29.4375 11.1431C29.8125 11.216 30.0156 11.2576 30.0469 11.2681C30.0781 11.1639 30.0938 11.0754 30.0938 11.0024C30.0938 10.7316 29.8646 10.5493 29.4062 10.4556C28.9479 10.3618 28.349 10.3149 27.6094 10.3149C26.0365 10.3149 24.6927 10.6326 23.5781 11.2681C23.0677 10.4035 22.8125 9.30973 22.8125 7.98682C22.8125 7.23682 22.9062 6.67952 23.0938 6.31494C23.8438 5.97119 24.7969 5.66911 25.9531 5.40869C27.1094 5.13786 28.3281 5.00244 29.6094 5.00244C32.2552 5.00244 34.2552 5.58057 35.6094 6.73682C36.9635 7.89307 37.6406 9.53369 37.6406 11.6587V14.7212ZM29.5312 15.4868C29.0938 15.4868 28.875 15.6847 28.875 16.0806C28.875 16.4556 29.1302 16.6431 29.6406 16.6431C29.9948 16.6431 30.2552 16.5597 30.4219 16.3931C30.5885 16.216 30.6719 15.9139 30.6719 15.4868C30.6719 15.4868 30.2917 15.4868 29.5312 15.4868Z" fill="#FF9500"/>
<path d="M11.4688 9.43994H20.7344C21.3281 10.3045 21.625 11.3566 21.625 12.5962C21.625 13.8254 21.3698 14.8254 20.8594 15.5962H20.2188V20.2837C18.1667 22.0649 15.4583 22.9556 12.0938 22.9556C10.0417 22.9556 8.21875 22.591 6.625 21.8618C4.88542 21.0806 3.53646 19.9399 2.57812 18.4399C1.52604 16.7941 1 14.7733 1 12.3774C1 8.97119 2.02083 6.33577 4.0625 4.47119C6 2.68994 8.625 1.79932 11.9375 1.79932C13.5729 1.79932 15.1146 2.04411 16.5625 2.53369C18.0208 3.02327 19.1719 3.63265 20.0156 4.36182C20.0156 4.98682 19.9375 5.75244 19.7812 6.65869C19.6354 7.56494 19.4479 8.25765 19.2188 8.73682H10.9844C10.651 9.09098 10.3333 9.6014 10.0312 10.2681C9.73958 10.9347 9.59375 11.7004 9.59375 12.5649C9.59375 13.7524 9.89062 14.6847 10.4844 15.3618C11.0052 15.9764 11.6719 16.2837 12.4844 16.2837C12.8177 16.2837 12.9844 16.1691 12.9844 15.9399V15.5806H12.8125C12.125 15.5806 11.5521 15.3149 11.0938 14.7837C10.6458 14.242 10.4219 13.4712 10.4219 12.4712C10.4219 11.2212 10.7708 10.2108 11.4688 9.43994Z" fill="#FF9500"/>
<path d="M105.062 12.0337C105.062 10.0337 104.307 8.3514 102.797 6.98682C101.297 5.61182 99.3021 4.92432 96.8125 4.92432C94.3229 4.92432 92.2656 5.68994 90.6406 7.22119C88.8802 8.86702 88 11.0962 88 13.9087C88 16.7108 88.8542 18.9191 90.5625 20.5337C92.2292 22.1379 94.5052 22.9399 97.3906 22.9399C99.1198 22.9399 100.589 22.7212 101.797 22.2837C102.651 21.992 103.484 21.5024 104.297 20.8149C104.391 20.4399 104.438 20.0129 104.438 19.5337C104.438 19.0441 104.359 18.5076 104.203 17.9243C104.057 17.3306 103.859 16.9243 103.609 16.7056C103.089 17.0701 102.396 17.3879 101.531 17.6587C100.677 17.9191 99.724 18.0493 98.6719 18.0493C97.6302 18.0493 96.6979 17.9087 95.875 17.6274C95.0521 17.367 94.6406 17.0806 94.6406 16.7681C94.6406 16.6014 94.6823 16.4868 94.7656 16.4243C95.7865 17.0389 97.0365 17.3462 98.5156 17.3462C100.495 17.3462 102.057 16.9191 103.203 16.0649C104.443 15.1587 105.062 13.8149 105.062 12.0337ZM106.062 12.0337C106.062 13.7183 105.565 15.148 104.526 16.23C104.847 16.6332 105.04 17.1507 105.168 17.6655H105.169C105.343 18.3144 105.438 18.9392 105.438 19.5337C105.438 20.0759 105.384 20.5866 105.267 21.0571L105.188 21.3706L104.942 21.5786C104.057 22.328 103.122 22.8841 102.137 23.2231C100.789 23.7111 99.1982 23.9399 97.3906 23.9399C94.3139 23.9399 91.7655 23.0795 89.8691 21.2544V21.2534C87.9583 19.4437 87.0308 17.0035 87.002 14.0513C87.28 13.377 87.4219 12.6167 87.4219 11.7681C87.4219 11.4414 87.4057 11.1319 87.3779 10.8394C87.8268 9.14614 88.6795 7.68598 89.958 6.49072C91.79 4.7659 94.1013 3.92432 96.8125 3.92432C99.4936 3.92432 101.749 4.66961 103.473 6.24951H103.472C105.185 7.79915 106.062 9.74731 106.062 12.0337ZM97.9688 11.7681C97.9688 12.1639 97.7083 12.3618 97.1875 12.3618C96.8125 12.3618 96.4792 12.2733 96.1875 12.0962C96.2708 11.5024 96.5885 11.2056 97.1406 11.2056C97.6927 11.2056 97.9688 11.3931 97.9688 11.7681Z" fill="black"/>
<path d="M87.7344 22.2993C87.7344 21.216 87.4792 20.2733 86.9688 19.4712C86.3438 18.492 85.4688 17.8566 84.3438 17.5649C83.1979 18.0441 81.8125 18.2837 80.1875 18.2837C79.6771 18.2837 79.2552 18.2472 78.9219 18.1743C78.599 18.091 78.4375 17.9347 78.4375 17.7056C78.4375 17.6222 78.4531 17.5337 78.4844 17.4399C78.9531 17.5337 79.5208 17.5806 80.1875 17.5806C82.3958 17.5806 84.151 17.0754 85.4531 16.0649C86.7656 15.0441 87.4219 13.6118 87.4219 11.7681C87.4219 10.7472 87.2865 9.89307 87.0156 9.20557C87.2448 8.82015 87.4167 8.45036 87.5312 8.09619C87.6562 7.74202 87.7188 7.27327 87.7188 6.68994C87.7188 5.63786 87.3958 4.90348 86.75 4.48682C86.2188 4.14307 85.4427 3.97119 84.4219 3.97119C83.4115 3.97119 82.599 4.09098 81.9844 4.33057V5.42432C80.9115 5.0389 79.7969 4.84619 78.6406 4.84619C76.2448 4.84619 74.2969 5.42432 72.7969 6.58057C71.2969 7.73682 70.5469 9.31494 70.5469 11.3149C70.5469 12.367 70.7448 13.2524 71.1406 13.9712C71.5469 14.6899 72.0365 15.2264 72.6094 15.5806C72.1823 15.8097 71.8594 16.1587 71.6406 16.6274C71.4219 17.0858 71.3125 17.5858 71.3125 18.1274C71.3125 19.5129 72.0104 20.5493 73.4062 21.2368C74.5521 21.8097 76.1302 22.0962 78.1406 22.0962C78.9219 22.0962 79.5729 22.0389 80.0938 21.9243C80.1562 22.0285 80.1875 22.1327 80.1875 22.2368C80.1875 22.4452 80.0312 22.591 79.7188 22.6743C79.4167 22.7577 78.7292 22.7993 77.6562 22.7993C76.5833 22.7993 75.5365 22.6639 74.5156 22.3931C73.5052 22.1222 72.7396 21.7681 72.2188 21.3306C71.9062 21.5077 71.6302 21.8358 71.3906 22.3149C71.151 22.7837 71.0312 23.2733 71.0312 23.7837C71.0312 25.117 71.6823 26.2004 72.9844 27.0337C74.3906 27.9504 76.3802 28.4087 78.9531 28.4087C81.5365 28.4087 83.6458 27.8722 85.2812 26.7993C86.9167 25.7264 87.7344 24.2264 87.7344 22.2993ZM79.1875 10.6899C79.4688 10.6899 79.6094 10.8774 79.6094 11.2524V12.0024C79.6094 12.3358 79.5781 12.5649 79.5156 12.6899C79.4531 12.8149 79.3385 12.8774 79.1719 12.8774C79.0052 12.8774 78.8802 12.841 78.7969 12.7681V11.1587C78.7969 10.8462 78.9271 10.6899 79.1875 10.6899ZM88.7188 6.68994C88.7188 7.33104 88.6522 7.92594 88.4746 8.4292L88.4727 8.42822C88.3768 8.71951 88.2521 9.01024 88.1025 9.30127C88.2517 9.80082 88.3455 10.3444 88.3896 10.9272C88.1301 11.8351 88 12.8288 88 13.9087C88 14.0167 88.0033 14.1237 88.0059 14.23C87.6258 15.2569 86.9843 16.1408 86.0674 16.854L86.0664 16.855C85.9771 16.9242 85.8854 16.9903 85.793 17.0552C86.6106 17.4837 87.288 18.113 87.8115 18.9331L87.8125 18.9341C88.4387 19.9181 88.7344 21.053 88.7344 22.2993C88.7344 24.5693 87.742 26.3809 85.8301 27.6353C83.987 28.8444 81.67 29.4087 78.9531 29.4087C76.2823 29.4087 74.0722 28.9365 72.4385 27.8716V27.8706C70.9073 26.8881 70.0312 25.5144 70.0312 23.7837C70.0312 23.11 70.1908 22.4649 70.5 21.8599C70.6949 21.4717 70.9388 21.1102 71.2461 20.8198C71.1618 20.7176 71.081 20.6126 71.0068 20.5024C70.5348 19.8014 70.3125 18.9966 70.3125 18.1274C70.3125 17.4469 70.4511 16.7985 70.7383 16.1968C70.838 15.9843 70.9568 15.7872 71.0918 15.605C70.7834 15.2702 70.5103 14.8875 70.2705 14.4634L70.2646 14.4536C69.7676 13.5511 69.5469 12.4893 69.5469 11.3149C69.5469 9.025 70.4254 7.14614 72.1865 5.78857C73.9033 4.46527 76.0833 3.84619 78.6406 3.84619C79.4384 3.84619 80.2201 3.92957 80.9844 4.09717V3.64697L81.6211 3.39893C82.3961 3.09681 83.3464 2.97119 84.4219 2.97119C85.5279 2.97119 86.5287 3.15257 87.293 3.64697H87.292C88.3227 4.31199 88.7188 5.43657 88.7188 6.68994Z" fill="black"/>
<path d="M52.0312 16.7837C52.0312 14.686 52.7143 12.9405 54.166 11.687C53.8833 11.1871 53.6748 10.6394 53.5352 10.0493C53.5628 9.77432 53.5781 9.49317 53.5781 9.20557C53.5781 8.40013 53.507 7.67837 53.3682 7.03955C53.4244 6.60306 53.528 6.2004 53.7041 5.85791L53.8623 5.55029L54.1768 5.40576C55.0107 5.02355 56.036 4.70278 57.2334 4.43311C58.4675 4.14475 59.7604 4.00244 61.1094 4.00244C63.8811 4.00244 66.1535 4.60541 67.7588 5.97607C69.3788 7.35934 70.1406 9.30337 70.1406 11.6587V14.7212C70.1406 15.4104 70.2187 15.8855 70.3301 16.1919C70.4087 16.408 70.5311 16.5744 70.7139 16.7085L70.7959 16.7642L71.1611 16.9927L71.2461 17.4155C71.2787 17.5786 71.2812 17.7732 71.2812 17.9087V18.1899C71.2812 19.8836 70.7598 21.327 69.6143 22.3794C68.6219 23.2931 67.3944 23.7368 66 23.7368C65.0429 23.7368 64.1467 23.508 63.332 23.0425C63.2282 22.9832 63.1281 22.9201 63.0312 22.854L62.998 22.8774C62.0781 23.5002 60.8192 23.7368 59.375 23.7368C57.2623 23.7368 55.462 23.1614 54.0811 21.9175L54.0732 21.9106C52.6796 20.6308 52.0312 18.8762 52.0312 16.7837ZM61.0312 15.4868H62.1719C62.1719 15.9139 62.0885 16.216 61.9219 16.3931C61.7552 16.5597 61.4948 16.6431 61.1406 16.6431C60.6302 16.6431 60.375 16.4556 60.375 16.0806C60.375 15.6847 60.5938 15.4868 61.0312 15.4868ZM54.3125 7.98682C54.3125 9.30973 54.5677 10.4035 55.0781 11.2681C56.1927 10.6326 57.5365 10.3149 59.1094 10.3149C59.849 10.3149 60.4479 10.3618 60.9062 10.4556C61.3646 10.5493 61.5938 10.7316 61.5938 11.0024C61.5938 11.0754 61.5781 11.1639 61.5469 11.2681C61.5156 11.2576 61.3125 11.216 60.9375 11.1431C60.375 11.0597 59.7917 11.0181 59.1875 11.0181C57.4167 11.0181 55.974 11.4816 54.8594 12.4087C53.6406 13.4399 53.0312 14.8983 53.0312 16.7837C53.0312 18.6587 53.6042 20.1222 54.75 21.1743C55.9062 22.216 57.4479 22.7368 59.375 22.7368C60.7396 22.7368 61.7604 22.5077 62.4375 22.0493C62.0729 21.6847 61.8906 21.3566 61.8906 21.0649C61.8906 20.7212 62.0677 20.5493 62.4219 20.5493C62.7031 21.2577 63.1719 21.7993 63.8281 22.1743C64.4844 22.5493 65.2083 22.7368 66 22.7368C67.1667 22.7368 68.1458 22.3722 68.9375 21.6431C69.8333 20.8202 70.2812 19.6691 70.2812 18.1899V17.9087C70.2812 17.7629 70.276 17.6639 70.2656 17.6118C69.849 17.3514 69.5573 16.992 69.3906 16.5337C69.224 16.0754 69.1406 15.4712 69.1406 14.7212V11.6587C69.1406 9.53369 68.4635 7.89307 67.1094 6.73682C65.7552 5.58057 63.7552 5.00244 61.1094 5.00244C59.8281 5.00244 58.6094 5.13786 57.4531 5.40869C56.2969 5.66911 55.3438 5.97119 54.5938 6.31494C54.4062 6.67952 54.3125 7.23682 54.3125 7.98682Z" fill="black"/>
<path d="M53.5781 9.20557C53.5781 7.99723 53.4219 6.9764 53.1094 6.14307C52.2344 5.48682 51.026 5.15869 49.4844 5.15869C48.2448 5.15869 47.2031 5.44515 46.3594 6.01807C45.3385 6.69515 44.6458 7.75765 44.2812 9.20557C44.0938 9.20557 43.9479 9.15869 43.8438 9.06494C43.75 8.97119 43.7031 8.83057 43.7031 8.64307C43.7031 8.44515 43.8021 8.12223 44 7.67432C44.1979 7.2264 44.4271 6.85661 44.6875 6.56494C44.1562 5.77327 43.276 5.37744 42.0469 5.37744V4.37744C43.33 4.37744 44.4505 4.75397 45.2256 5.63037C45.4076 5.47049 45.6008 5.32156 45.8066 5.18506C46.8471 4.48149 48.0921 4.15869 49.4844 4.15869C51.0517 4.15869 52.4214 4.47025 53.498 5.19287L53.709 5.34326L53.9434 5.51807L54.0459 5.7915C54.1883 6.17115 54.298 6.57724 54.3818 7.00635C54.335 7.28496 54.3125 7.61189 54.3125 7.98682C54.3125 8.7114 54.3918 9.36653 54.5449 9.95361C54.4622 11.0063 54.2056 11.9955 53.7578 12.9106L53.6143 13.2026L53.3271 13.355C52.8591 13.6028 52.2704 13.7884 51.6025 13.9331L51.5947 13.9351L51.5869 13.936C50.8975 14.0739 50.2015 14.1431 49.5 14.1431C49.2921 14.1431 49.089 14.1369 48.8906 14.1284V22.1313L48.4258 22.4253C47.1068 23.2603 45.5709 23.6587 43.8594 23.6587C42.5227 23.6587 41.3412 23.4202 40.3955 22.855C39.2734 22.2156 38.6562 21.199 38.6562 19.9087V19.4497C38.7393 19.0602 38.7812 18.6403 38.7812 18.1899V17.9087C38.7812 17.7629 38.776 17.6639 38.7656 17.6118C38.7277 17.5881 38.6921 17.5619 38.6562 17.5366V12.1616C38.0284 11.1565 37.7344 9.97959 37.7344 8.67432C37.7344 7.23578 38.0852 5.9381 38.8232 4.82471L39.1191 4.37744H42.0469V5.37744H39.6562C39.0417 6.30452 38.7344 7.40348 38.7344 8.67432C38.7344 9.93473 39.0417 10.9972 39.6562 11.8618V19.9087C39.6562 20.8254 40.0677 21.5181 40.8906 21.9868C41.6302 22.4347 42.6198 22.6587 43.8594 22.6587C45.4115 22.6587 46.7552 22.2993 47.8906 21.5806V13.7368C47.4115 13.6431 47.0677 13.5597 46.8594 13.4868C46.6615 13.4035 46.5625 13.2837 46.5625 13.1274C46.5625 12.9712 46.6042 12.8514 46.6875 12.7681C46.9167 12.841 47.2812 12.9243 47.7812 13.0181C48.2917 13.1014 48.8646 13.1431 49.5 13.1431C50.1354 13.1431 50.7656 13.0806 51.3906 12.9556C52.0156 12.8201 52.5052 12.6587 52.8594 12.4712C53.3385 11.492 53.5781 10.4035 53.5781 9.20557Z" fill="black"/>
<path d="M20.5312 16.7837C20.5312 16.3741 20.5577 15.9779 20.6104 15.5962H20.8594C21.3318 14.8827 21.582 13.9728 21.6172 12.8667C21.9068 12.4362 22.2552 12.0417 22.666 11.687C22.0764 10.6445 21.8125 9.393 21.8125 7.98682C21.8125 7.18923 21.9061 6.43762 22.2041 5.85791L22.3623 5.55029L22.6768 5.40576C23.5107 5.02355 24.536 4.70278 25.7334 4.43311C26.9675 4.14475 28.2604 4.00244 29.6094 4.00244C32.3811 4.00244 34.6535 4.60541 36.2588 5.97607C37.8788 7.35934 38.6406 9.30337 38.6406 11.6587V14.7212C38.6406 15.4104 38.7187 15.8855 38.8301 16.1919C38.9087 16.408 39.0311 16.5744 39.2139 16.7085L39.2959 16.7642L39.6562 16.9888V19.5386C39.4414 20.6541 38.9419 21.619 38.1143 22.3794C37.1219 23.2931 35.8944 23.7368 34.5 23.7368C33.5429 23.7368 32.6467 23.508 31.832 23.0425C31.7282 22.9832 31.6281 22.9201 31.5312 22.854L31.498 22.8774C30.5781 23.5002 29.3192 23.7368 27.875 23.7368C25.7623 23.7368 23.962 23.1614 22.5811 21.9175L22.5732 21.9106C21.1796 20.6308 20.5312 18.8762 20.5312 16.7837ZM29.5312 15.4868H30.6719C30.6719 15.9139 30.5885 16.216 30.4219 16.3931C30.2552 16.5597 29.9948 16.6431 29.6406 16.6431C29.1302 16.6431 28.875 16.4556 28.875 16.0806C28.875 15.6847 29.0938 15.4868 29.5312 15.4868ZM22.8125 7.98682C22.8125 9.30973 23.0677 10.4035 23.5781 11.2681C24.6927 10.6326 26.0365 10.3149 27.6094 10.3149C28.349 10.3149 28.9479 10.3618 29.4062 10.4556C29.8646 10.5493 30.0938 10.7316 30.0938 11.0024C30.0938 11.0754 30.0781 11.1639 30.0469 11.2681C30.0156 11.2576 29.8125 11.216 29.4375 11.1431C28.875 11.0597 28.2917 11.0181 27.6875 11.0181C25.9167 11.0181 24.474 11.4816 23.3594 12.4087C22.1406 13.4399 21.5312 14.8983 21.5312 16.7837C21.5312 18.6587 22.1042 20.1222 23.25 21.1743C24.4062 22.216 25.9479 22.7368 27.875 22.7368C29.2396 22.7368 30.2604 22.5077 30.9375 22.0493C30.5729 21.6847 30.3906 21.3566 30.3906 21.0649C30.3906 20.7212 30.5677 20.5493 30.9219 20.5493C31.2031 21.2577 31.6719 21.7993 32.3281 22.1743C32.9844 22.5493 33.7083 22.7368 34.5 22.7368C35.6667 22.7368 36.6458 22.3722 37.4375 21.6431C38.3333 20.8202 38.7812 19.6691 38.7812 18.1899V17.9087C38.7812 17.7629 38.776 17.6639 38.7656 17.6118C38.349 17.3514 38.0573 16.992 37.8906 16.5337C37.724 16.0754 37.6406 15.4712 37.6406 14.7212V11.6587C37.6406 9.53369 36.9635 7.89307 35.6094 6.73682C34.2552 5.58057 32.2552 5.00244 29.6094 5.00244C28.3281 5.00244 27.1094 5.13786 25.9531 5.40869C24.7969 5.66911 23.8438 5.97119 23.0938 6.31494C22.9062 6.67952 22.8125 7.23682 22.8125 7.98682Z" fill="black"/>
<path d="M20.0156 4.36182C19.1719 3.63265 18.0208 3.02327 16.5625 2.53369C15.1146 2.04411 13.5729 1.79932 11.9375 1.79932C8.625 1.79932 6 2.68994 4.0625 4.47119C2.02083 6.33577 1 8.97119 1 12.3774C1 14.7733 1.52604 16.7941 2.57812 18.4399C3.53646 19.9399 4.88542 21.0806 6.625 21.8618C8.21875 22.591 10.0417 22.9556 12.0938 22.9556C15.4583 22.9556 18.1667 22.0649 20.2188 20.2837V15.5962H20.8594C21.3698 14.8254 21.625 13.8254 21.625 12.5962C21.625 11.3566 21.3281 10.3045 20.7344 9.43994H11.4688C10.7708 10.2108 10.4219 11.2212 10.4219 12.4712C10.4219 13.4712 10.6458 14.242 11.0938 14.7837C11.5521 15.3149 12.125 15.5806 12.8125 15.5806H12.9844V15.9399C12.9844 16.1691 12.8177 16.2837 12.4844 16.2837C11.6719 16.2837 11.0052 15.9764 10.4844 15.3618C9.89062 14.6847 9.59375 13.7524 9.59375 12.5649C9.59375 11.7004 9.73958 10.9347 10.0312 10.2681C10.3333 9.6014 10.651 9.09098 10.9844 8.73682H19.2188C19.4479 8.25765 19.6354 7.56494 19.7812 6.65869C19.9375 5.75244 20.0156 4.98682 20.0156 4.36182ZM21.0156 4.36182C21.0156 5.06065 20.9282 5.88286 20.7676 6.81689C20.6705 7.42019 20.5517 7.9664 20.4023 8.43994H21.2607L21.5586 8.87354C22.2863 9.93325 22.625 11.1921 22.625 12.5962C22.625 12.8037 22.615 13.0074 22.6016 13.2075C21.9568 14.0597 21.6027 15.1156 21.541 16.3765L21.3965 16.5962H21.2188V20.7397L20.874 21.0386C18.5996 23.0128 15.6397 23.9556 12.0938 23.9556C9.92471 23.9556 7.95822 23.5695 6.21484 22.7729V22.7739C4.31108 21.9188 2.80602 20.6539 1.73535 18.978V18.979C0.559352 17.1393 0 14.9208 0 12.3774C0 8.76058 1.09208 5.82959 3.3877 3.73291C5.5538 1.74262 8.44291 0.799316 11.9375 0.799316C13.6731 0.799316 15.3226 1.05927 16.8799 1.58545C18.4178 2.10175 19.6981 2.76515 20.6699 3.60498L21.0156 3.90479V4.36182Z" fill="black"/>
<path d="M76.0111 49.0233C74.1124 49.0233 72.4484 48.65 71.0191 47.9033C69.6111 47.1353 68.5124 46.09 67.7231 44.7673C66.9551 43.4446 66.5711 41.9406 66.5711 40.2553C66.5711 38.5486 66.9444 37.0446 67.6911 35.7433C68.4591 34.4206 69.5044 33.386 70.8271 32.6393C72.1711 31.8926 73.6964 31.5193 75.4031 31.5193C77.0671 31.5193 78.5498 31.882 79.8511 32.6073C81.1524 33.3326 82.1764 34.3566 82.9231 35.6793C83.6698 37.002 84.0431 38.5593 84.0431 40.3513C84.0431 40.522 84.0324 40.714 84.0111 40.9273C84.0111 41.1406 84.0004 41.3433 83.9791 41.5353H69.7391V38.8793H81.8671L80.2991 39.7113C80.3204 38.73 80.1178 37.866 79.6911 37.1193C79.2644 36.3726 78.6778 35.786 77.9311 35.3593C77.2058 34.9326 76.3631 34.7193 75.4031 34.7193C74.4218 34.7193 73.5578 34.9326 72.8111 35.3593C72.0858 35.786 71.5098 36.3833 71.0831 37.1513C70.6778 37.898 70.4751 38.7833 70.4751 39.8073V40.4473C70.4751 41.4713 70.7098 42.378 71.1791 43.1673C71.6484 43.9566 72.3098 44.5646 73.1631 44.9913C74.0164 45.418 74.9978 45.6313 76.1071 45.6313C77.0671 45.6313 77.9311 45.482 78.6991 45.1833C79.4671 44.8846 80.1498 44.4153 80.7471 43.7753L82.8911 46.2393C82.1231 47.1353 81.1524 47.8286 79.9791 48.3193C78.8271 48.7886 77.5044 49.0233 76.0111 49.0233Z" fill="black"/>
<path d="M56.3844 55.2313C54.8057 55.2313 53.259 55.018 51.7444 54.5913C50.251 54.186 49.0244 53.5886 48.0644 52.7993L49.8564 49.7913C50.603 50.41 51.5417 50.9006 52.6724 51.2633C53.8244 51.6473 54.987 51.8393 56.1604 51.8393C58.0377 51.8393 59.4137 51.402 60.2884 50.5273C61.163 49.674 61.6004 48.3833 61.6004 46.6553V43.6153L61.9204 39.7433L61.7924 35.8713V31.7113H65.6004V46.2073C65.6004 49.3006 64.811 51.5726 63.2324 53.0233C61.6537 54.4953 59.371 55.2313 56.3844 55.2313ZM55.8724 48.0313C54.251 48.0313 52.779 47.69 51.4564 47.0073C50.155 46.3033 49.1204 45.3326 48.3524 44.0953C47.6057 42.858 47.2324 41.4073 47.2324 39.7433C47.2324 38.1006 47.6057 36.6606 48.3524 35.4233C49.1204 34.186 50.155 33.226 51.4564 32.5433C52.779 31.8606 54.251 31.5193 55.8724 31.5193C57.323 31.5193 58.6244 31.8073 59.7764 32.3833C60.9284 32.9593 61.8457 33.8553 62.5284 35.0713C63.2324 36.2873 63.5844 37.8446 63.5844 39.7433C63.5844 41.642 63.2324 43.21 62.5284 44.4473C61.8457 45.6633 60.9284 46.57 59.7764 47.1673C58.6244 47.7433 57.323 48.0313 55.8724 48.0313ZM56.4804 44.6393C57.483 44.6393 58.379 44.4366 59.1684 44.0313C59.9577 43.6046 60.5657 43.0286 60.9924 42.3033C61.4404 41.5566 61.6644 40.7033 61.6644 39.7433C61.6644 38.7833 61.4404 37.9406 60.9924 37.2153C60.5657 36.4686 59.9577 35.9033 59.1684 35.5193C58.379 35.114 57.483 34.9113 56.4804 34.9113C55.4777 34.9113 54.571 35.114 53.7604 35.5193C52.971 35.9033 52.3524 36.4686 51.9044 37.2153C51.4777 37.9406 51.2644 38.7833 51.2644 39.7433C51.2644 40.7033 51.4777 41.5566 51.9044 42.3033C52.3524 43.0286 52.971 43.6046 53.7604 44.0313C54.571 44.4366 55.4777 44.6393 56.4804 44.6393Z" fill="black"/>
<path d="M96.0003 48.2997C96.8285 48.2999 97.5003 48.9714 97.5003 49.7997C97.5002 51.3998 97.3249 53.3189 95.4905 54.7938C93.8388 56.1216 91.0589 56.8917 86.636 57.2938C83.7135 57.5595 80.7302 57.2893 77.1018 56.8514C73.4468 56.4103 69.088 55.7908 63.2483 55.2938C62.7715 55.2532 62.2843 55.2154 61.7874 55.1766C62.5751 54.8064 63.2849 54.3381 63.9075 53.7587L63.9085 53.7596C64.3362 53.3665 64.7083 52.9257 65.0296 52.4423C70.1895 52.9191 74.183 53.4773 77.4612 53.8729C81.0823 54.3099 83.7873 54.5398 86.3645 54.3055C90.7411 53.9076 92.7123 53.1781 93.6106 52.4559C94.3257 51.881 94.5002 51.1991 94.5003 49.7997C94.5003 48.9713 95.1718 48.2997 96.0003 48.2997ZM4.87136 53.3055C23.1843 51.7268 36.9894 51.3393 47.6604 51.5214L46.7649 53.0262L47.429 53.5721C47.8723 53.9366 48.3609 54.2596 48.8909 54.5448C38.1652 54.3106 24.0949 54.6589 5.12917 56.2938C4.30397 56.365 3.57752 55.7537 3.50612 54.9286C3.43497 54.1033 4.04604 53.3767 4.87136 53.3055ZM48.8108 51.5438C50.8937 51.5882 52.8539 51.6543 54.7024 51.7372C55.0408 51.7835 55.3798 51.816 55.72 51.83L56.1594 51.8397C56.307 51.8397 56.4517 51.8354 56.593 51.83C59.1021 51.963 61.3951 52.1262 63.5022 52.3055C63.6243 52.3159 63.7456 52.3273 63.8665 52.3378C63.6707 52.5828 63.4607 52.8129 63.2317 53.0233C62.1769 54.0067 60.8075 54.6589 59.1243 54.9852C56.9073 54.8404 54.5023 54.7158 51.8821 54.6278C51.8362 54.6153 51.7893 54.6046 51.7434 54.5917C50.2504 54.1864 49.0236 53.5889 48.0637 52.7997L48.8108 51.5438Z" fill="black"/>
<path d="M38.3953 48.7993V31.7113H42.2033V36.4153L41.7553 35.0393C42.2673 33.8873 43.0673 33.0126 44.1553 32.4153C45.2647 31.818 46.6407 31.5193 48.2833 31.5193V35.3273C48.1127 35.2846 47.9527 35.2633 47.8033 35.2633C47.654 35.242 47.5047 35.2313 47.3553 35.2313C45.8407 35.2313 44.6353 35.6793 43.7393 36.5753C42.8433 37.45 42.3953 38.762 42.3953 40.5113V48.7993H38.3953Z" fill="black"/>
<path d="M28.3303 49.0233C26.581 49.0233 25.0236 48.65 23.6583 47.9033C22.293 47.1353 21.2156 46.09 20.4263 44.7673C19.637 43.4446 19.2423 41.9406 19.2423 40.2553C19.2423 38.5486 19.637 37.0446 20.4263 35.7433C21.2156 34.4206 22.293 33.386 23.6583 32.6393C25.0236 31.8926 26.581 31.5193 28.3303 31.5193C30.101 31.5193 31.669 31.8926 33.0343 32.6393C34.421 33.386 35.4983 34.41 36.2663 35.7113C37.0556 37.0126 37.4503 38.5273 37.4503 40.2553C37.4503 41.9406 37.0556 43.4446 36.2663 44.7673C35.4983 46.09 34.421 47.1353 33.0343 47.9033C31.669 48.65 30.101 49.0233 28.3303 49.0233ZM28.3303 45.5993C29.3116 45.5993 30.1863 45.386 30.9543 44.9593C31.7223 44.5326 32.3196 43.914 32.7463 43.1033C33.1943 42.2926 33.4183 41.3433 33.4183 40.2553C33.4183 39.146 33.1943 38.1966 32.7463 37.4073C32.3196 36.5966 31.7223 35.978 30.9543 35.5513C30.1863 35.1246 29.3223 34.9113 28.3623 34.9113C27.381 34.9113 26.5063 35.1246 25.7383 35.5513C24.9916 35.978 24.3943 36.5966 23.9463 37.4073C23.4983 38.1966 23.2743 39.146 23.2743 40.2553C23.2743 41.3433 23.4983 42.2926 23.9463 43.1033C24.3943 43.914 24.9916 44.5326 25.7383 44.9593C26.5063 45.386 27.3703 45.5993 28.3303 45.5993Z" fill="black"/>
<path d="M7.81606 36.7033H18.9841V40.2233H7.81606V36.7033ZM8.16806 48.7993H4.00806V26.3993H20.3601V29.8873H8.16806V48.7993Z" fill="black"/>
</svg>
