<svg width="60" height="39" viewBox="0 0 60 39" fill="none" xmlns="http://www.w3.org/2000/svg">
<path d="M38.5205 18.48H57.6438V24.4514H38.5205V18.48ZM39.1233 39H22V1H60V6.91714H39.1233V39Z" fill="white"/>
<path d="M34.6904 5.48145C34.6904 6.61138 34.5493 7.97853 34.2744 9.57715L34.2754 9.57812C34.0179 11.1811 33.6812 12.4473 33.251 13.3486L33.1152 13.6328H18.6523C18.1706 14.1906 17.6891 14.9753 17.2207 16.0098L17.2217 16.0107C16.7448 17.1028 16.5 18.3721 16.5 19.8281C16.5 21.8229 16.9969 23.3225 17.9307 24.3896L17.9365 24.3965C18.7498 25.358 19.7736 25.832 21.0459 25.832C21.286 25.832 21.3851 25.7882 21.4131 25.7705C21.4146 25.7638 21.418 25.7513 21.418 25.7305V25.5967C20.1563 25.5464 19.0874 25.0191 18.2393 24.0342L18.2324 24.0264C17.351 22.9582 16.9453 21.4807 16.9453 19.6641C16.9453 17.3807 17.584 15.4853 18.9014 14.0273L19.0508 13.8623H35.709L35.8574 14.0801C36.9606 15.6897 37.5 17.6329 37.5 19.8828C37.5 22.0987 37.0412 23.9525 36.0811 25.4053L35.9326 25.6289H35.0459V33.5547L34.874 33.7041C31.1811 36.916 26.3269 38.5 20.3633 38.5C16.7218 38.5 13.4667 37.8518 10.6094 36.542V36.541C7.49254 35.1377 5.06112 33.0813 3.33301 30.3711C1.435 27.3959 0.5 23.7635 0.5 19.5C0.5 13.4378 2.31726 8.6808 6.00781 5.30371C9.50388 2.08393 14.2179 0.500016 20.0908 0.5C22.9961 0.5 25.7418 0.935626 28.3242 1.81055H28.3232C30.9085 2.68018 32.9819 3.77289 34.5186 5.10352L34.6904 5.25293V5.48145Z" fill="black" stroke="white"/>
</svg>
