<svg width="107" height="58" viewBox="0 0 107 58" fill="none" xmlns="http://www.w3.org/2000/svg">
<path d="M105 37.5997H102.667L96.832 46.3517C96.4362 46.9453 95.5638 46.9454 95.168 46.3517L89.333 37.5997H87V26.5997H105V37.5997Z" fill="white"/>
<path d="M97.3906 22.7404C94.5052 22.7404 92.2292 21.9383 90.5625 20.3341C88.8542 18.7195 88 16.5112 88 13.7091C88 10.8966 88.8802 8.66744 90.6406 7.02161C92.2656 5.49036 94.3229 4.72473 96.8125 4.72473C99.3021 4.72473 101.297 5.41223 102.797 6.78723C104.307 8.15181 105.062 9.83411 105.062 11.8341C105.062 13.6154 104.443 14.9591 103.203 15.8654C102.057 16.7195 100.495 17.1466 98.5156 17.1466C97.0365 17.1466 95.7865 16.8393 94.7656 16.2247C94.6823 16.2872 94.6406 16.4018 94.6406 16.5685C94.6406 16.881 95.0521 17.1674 95.875 17.4279C96.6979 17.7091 97.6302 17.8497 98.6719 17.8497C99.724 17.8497 100.677 17.7195 101.531 17.4591C102.396 17.1883 103.089 16.8706 103.609 16.506C103.859 16.7247 104.057 17.131 104.203 17.7247C104.359 18.3081 104.438 18.8445 104.438 19.3341C104.438 19.8133 104.391 20.2404 104.297 20.6154C103.484 21.3029 102.651 21.7924 101.797 22.0841C100.589 22.5216 99.1198 22.7404 97.3906 22.7404ZM97.1875 12.1622C97.7083 12.1622 97.9688 11.9643 97.9688 11.5685C97.9688 11.1935 97.6927 11.006 97.1406 11.006C96.5885 11.006 96.2708 11.3029 96.1875 11.8966C96.4792 12.0737 96.8125 12.1622 97.1875 12.1622Z" fill="black"/>
<path d="M79.6094 11.0529C79.6094 10.6779 79.4688 10.4904 79.1875 10.4904C78.9271 10.4904 78.7969 10.6466 78.7969 10.9591V12.5685C78.8802 12.6414 79.0052 12.6779 79.1719 12.6779C79.3385 12.6779 79.4531 12.6154 79.5156 12.4904C79.5781 12.3654 79.6094 12.1362 79.6094 11.8029V11.0529ZM80.1875 17.381C79.5208 17.381 78.9531 17.3341 78.4844 17.2404C78.4531 17.3341 78.4375 17.4226 78.4375 17.506C78.4375 17.7351 78.599 17.8914 78.9219 17.9747C79.2552 18.0476 79.6771 18.0841 80.1875 18.0841C81.8125 18.0841 83.1979 17.8445 84.3438 17.3654C85.4688 17.657 86.3438 18.2924 86.9688 19.2716C87.4792 20.0737 87.7344 21.0164 87.7344 22.0997C87.7344 24.0268 86.9167 25.5268 85.2812 26.5997C83.6458 27.6726 81.5365 28.2091 78.9531 28.2091C76.3802 28.2091 74.3906 27.7508 72.9844 26.8341C71.6823 26.0008 71.0312 24.9174 71.0312 23.5841C71.0312 23.0737 71.151 22.5841 71.3906 22.1154C71.6302 21.6362 71.9062 21.3081 72.2188 21.131C72.7396 21.5685 73.5052 21.9226 74.5156 22.1935C75.5365 22.4643 76.5833 22.5997 77.6562 22.5997C78.7292 22.5997 79.4167 22.5581 79.7188 22.4747C80.0312 22.3914 80.1875 22.2456 80.1875 22.0372C80.1875 21.9331 80.1562 21.8289 80.0938 21.7247C79.5729 21.8393 78.9219 21.8966 78.1406 21.8966C76.1302 21.8966 74.5521 21.6101 73.4062 21.0372C72.0104 20.3497 71.3125 19.3133 71.3125 17.9279C71.3125 17.3862 71.4219 16.8862 71.6406 16.4279C71.8594 15.9591 72.1823 15.6101 72.6094 15.381C72.0365 15.0268 71.5469 14.4904 71.1406 13.7716C70.7448 13.0529 70.5469 12.1674 70.5469 11.1154C70.5469 9.11536 71.2969 7.53723 72.7969 6.38098C74.2969 5.22473 76.2448 4.64661 78.6406 4.64661C79.7969 4.64661 80.9115 4.83931 81.9844 5.22473V4.13098C82.599 3.8914 83.4115 3.77161 84.4219 3.77161C85.4427 3.77161 86.2188 3.94348 86.75 4.28723C87.3958 4.7039 87.7188 5.43827 87.7188 6.49036C87.7188 7.07369 87.6562 7.54244 87.5312 7.89661C87.4167 8.25077 87.2448 8.62056 87.0156 9.00598C87.2865 9.69348 87.4219 10.5476 87.4219 11.5685C87.4219 13.4122 86.7656 14.8445 85.4531 15.8654C84.151 16.8758 82.3958 17.381 80.1875 17.381Z" fill="black"/>
<path d="M69.1406 14.5216C69.1406 15.2716 69.224 15.8758 69.3906 16.3341C69.5573 16.7924 69.849 17.1518 70.2656 17.4122C70.276 17.4643 70.2812 17.5633 70.2812 17.7091V17.9904C70.2812 19.4695 69.8333 20.6206 68.9375 21.4435C68.1458 22.1726 67.1667 22.5372 66 22.5372C65.2083 22.5372 64.4844 22.3497 63.8281 21.9747C63.1719 21.5997 62.7031 21.0581 62.4219 20.3497C62.0677 20.3497 61.8906 20.5216 61.8906 20.8654C61.8906 21.157 62.0729 21.4851 62.4375 21.8497C61.7604 22.3081 60.7396 22.5372 59.375 22.5372C57.4479 22.5372 55.9062 22.0164 54.75 20.9747C53.6042 19.9226 53.0312 18.4591 53.0312 16.5841C53.0312 14.6987 53.6406 13.2404 54.8594 12.2091C55.974 11.282 57.4167 10.8185 59.1875 10.8185C59.7917 10.8185 60.375 10.8601 60.9375 10.9435C61.3125 11.0164 61.5156 11.0581 61.5469 11.0685C61.5781 10.9643 61.5938 10.8758 61.5938 10.8029C61.5938 10.532 61.3646 10.3497 60.9062 10.256C60.4479 10.1622 59.849 10.1154 59.1094 10.1154C57.5365 10.1154 56.1927 10.4331 55.0781 11.0685C54.5677 10.2039 54.3125 9.11015 54.3125 7.78723C54.3125 7.03723 54.4062 6.47994 54.5938 6.11536C55.3438 5.77161 56.2969 5.46952 57.4531 5.20911C58.6094 4.93827 59.8281 4.80286 61.1094 4.80286C63.7552 4.80286 65.7552 5.38098 67.1094 6.53723C68.4635 7.69348 69.1406 9.33411 69.1406 11.4591V14.5216ZM61.0312 15.2872C60.5938 15.2872 60.375 15.4851 60.375 15.881C60.375 16.256 60.6302 16.4435 61.1406 16.4435C61.4948 16.4435 61.7552 16.3601 61.9219 16.1935C62.0885 16.0164 62.1719 15.7143 62.1719 15.2872C62.1719 15.2872 61.7917 15.2872 61.0312 15.2872Z" fill="black"/>
<path d="M43.8594 22.4591C42.6198 22.4591 41.6302 22.2351 40.8906 21.7872C40.0677 21.3185 39.6562 20.6258 39.6562 19.7091V11.6622C39.0417 10.7976 38.7344 9.73515 38.7344 8.47473C38.7344 7.2039 39.0417 6.10494 39.6562 5.17786H42.0469C43.276 5.17786 44.1562 5.57369 44.6875 6.36536C44.4271 6.65702 44.1979 7.02681 44 7.47473C43.8021 7.92265 43.7031 8.24556 43.7031 8.44348C43.7031 8.63098 43.75 8.77161 43.8438 8.86536C43.9479 8.95911 44.0938 9.00598 44.2812 9.00598C44.6458 7.55806 45.3385 6.49556 46.3594 5.81848C47.2031 5.24556 48.2448 4.95911 49.4844 4.95911C51.026 4.95911 52.2344 5.28723 53.1094 5.94348C53.4219 6.77681 53.5781 7.79765 53.5781 9.00598C53.5781 10.2039 53.3385 11.2924 52.8594 12.2716C52.5052 12.4591 52.0156 12.6206 51.3906 12.756C50.7656 12.881 50.1354 12.9435 49.5 12.9435C48.8646 12.9435 48.2917 12.9018 47.7812 12.8185C47.2812 12.7247 46.9167 12.6414 46.6875 12.5685C46.6042 12.6518 46.5625 12.7716 46.5625 12.9279C46.5625 13.0841 46.6615 13.2039 46.8594 13.2872C47.0677 13.3601 47.4115 13.4435 47.8906 13.5372V21.381C46.7552 22.0997 45.4115 22.4591 43.8594 22.4591Z" fill="black"/>
<path d="M37.6406 14.5216C37.6406 15.2716 37.724 15.8758 37.8906 16.3341C38.0573 16.7924 38.349 17.1518 38.7656 17.4122C38.776 17.4643 38.7812 17.5633 38.7812 17.7091V17.9904C38.7812 19.4695 38.3333 20.6206 37.4375 21.4435C36.6458 22.1726 35.6667 22.5372 34.5 22.5372C33.7083 22.5372 32.9844 22.3497 32.3281 21.9747C31.6719 21.5997 31.2031 21.0581 30.9219 20.3497C30.5677 20.3497 30.3906 20.5216 30.3906 20.8654C30.3906 21.157 30.5729 21.4851 30.9375 21.8497C30.2604 22.3081 29.2396 22.5372 27.875 22.5372C25.9479 22.5372 24.4062 22.0164 23.25 20.9747C22.1042 19.9226 21.5312 18.4591 21.5312 16.5841C21.5312 14.6987 22.1406 13.2404 23.3594 12.2091C24.474 11.282 25.9167 10.8185 27.6875 10.8185C28.2917 10.8185 28.875 10.8601 29.4375 10.9435C29.8125 11.0164 30.0156 11.0581 30.0469 11.0685C30.0781 10.9643 30.0938 10.8758 30.0938 10.8029C30.0938 10.532 29.8646 10.3497 29.4062 10.256C28.9479 10.1622 28.349 10.1154 27.6094 10.1154C26.0365 10.1154 24.6927 10.4331 23.5781 11.0685C23.0677 10.2039 22.8125 9.11015 22.8125 7.78723C22.8125 7.03723 22.9062 6.47994 23.0938 6.11536C23.8438 5.77161 24.7969 5.46952 25.9531 5.20911C27.1094 4.93827 28.3281 4.80286 29.6094 4.80286C32.2552 4.80286 34.2552 5.38098 35.6094 6.53723C36.9635 7.69348 37.6406 9.33411 37.6406 11.4591V14.5216ZM29.5312 15.2872C29.0938 15.2872 28.875 15.4851 28.875 15.881C28.875 16.256 29.1302 16.4435 29.6406 16.4435C29.9948 16.4435 30.2552 16.3601 30.4219 16.1935C30.5885 16.0164 30.6719 15.7143 30.6719 15.2872C30.6719 15.2872 30.2917 15.2872 29.5312 15.2872Z" fill="black"/>
<path d="M11.4688 9.24036H20.7344C21.3281 10.1049 21.625 11.157 21.625 12.3966C21.625 13.6258 21.3698 14.6258 20.8594 15.3966H20.2188V20.0841C18.1667 21.8654 15.4583 22.756 12.0938 22.756C10.0417 22.756 8.21875 22.3914 6.625 21.6622C4.88542 20.881 3.53646 19.7404 2.57812 18.2404C1.52604 16.5945 1 14.5737 1 12.1779C1 8.77161 2.02083 6.13619 4.0625 4.27161C6 2.49036 8.625 1.59973 11.9375 1.59973C13.5729 1.59973 15.1146 1.84452 16.5625 2.33411C18.0208 2.82369 19.1719 3.43306 20.0156 4.16223C20.0156 4.78723 19.9375 5.55286 19.7812 6.45911C19.6354 7.36536 19.4479 8.05806 19.2188 8.53723H10.9844C10.651 8.8914 10.3333 9.40181 10.0312 10.0685C9.73958 10.7351 9.59375 11.5008 9.59375 12.3654C9.59375 13.5529 9.89062 14.4851 10.4844 15.1622C11.0052 15.7768 11.6719 16.0841 12.4844 16.0841C12.8177 16.0841 12.9844 15.9695 12.9844 15.7404V15.381H12.8125C12.125 15.381 11.5521 15.1154 11.0938 14.5841C10.6458 14.0424 10.4219 13.2716 10.4219 12.2716C10.4219 11.0216 10.7708 10.0112 11.4688 9.24036Z" fill="black"/>
<path d="M105.062 11.8341C105.062 9.83411 104.307 8.15181 102.797 6.78723C101.297 5.41223 99.3021 4.72473 96.8125 4.72473C94.3229 4.72473 92.2656 5.49036 90.6406 7.02161C88.8802 8.66744 88 10.8966 88 13.7091C88 16.5112 88.8542 18.7195 90.5625 20.3341C92.2292 21.9383 94.5052 22.7404 97.3906 22.7404C99.1198 22.7404 100.589 22.5216 101.797 22.0841C102.651 21.7924 103.484 21.3029 104.297 20.6154C104.391 20.2404 104.438 19.8133 104.438 19.3341C104.438 18.8445 104.359 18.3081 104.203 17.7247C104.057 17.131 103.859 16.7247 103.609 16.506C103.089 16.8706 102.396 17.1883 101.531 17.4591C100.677 17.7195 99.724 17.8497 98.6719 17.8497C97.6302 17.8497 96.6979 17.7091 95.875 17.4279C95.0521 17.1674 94.6406 16.881 94.6406 16.5685C94.6406 16.4018 94.6823 16.2872 94.7656 16.2247C95.7865 16.8393 97.0365 17.1466 98.5156 17.1466C100.495 17.1466 102.057 16.7195 103.203 15.8654C104.443 14.9591 105.062 13.6154 105.062 11.8341ZM106.062 11.8341C106.062 13.5187 105.565 14.9484 104.526 16.0304C104.847 16.4336 105.04 16.9511 105.168 17.4659H105.169C105.343 18.1149 105.438 18.7396 105.438 19.3341C105.438 19.8763 105.384 20.387 105.267 20.8575L105.188 21.171L104.942 21.379C104.057 22.1285 103.122 22.6845 102.137 23.0236C100.789 23.5115 99.1982 23.7404 97.3906 23.7404C94.3139 23.7404 91.7655 22.88 89.8691 21.0548V21.0538C87.9583 19.2441 87.0308 16.804 87.002 13.8517C87.28 13.1774 87.4219 12.4171 87.4219 11.5685C87.4219 11.2418 87.4057 10.9323 87.3779 10.6398C87.8268 8.94655 88.6795 7.48639 89.958 6.29114C91.79 4.56632 94.1013 3.72473 96.8125 3.72473C99.4936 3.72473 101.749 4.47003 103.473 6.04993H103.472C105.185 7.59957 106.062 9.54773 106.062 11.8341ZM97.9688 11.5685C97.9688 11.9643 97.7083 12.1622 97.1875 12.1622C96.8125 12.1622 96.4792 12.0737 96.1875 11.8966C96.2708 11.3029 96.5885 11.006 97.1406 11.006C97.6927 11.006 97.9688 11.1935 97.9688 11.5685Z" fill="white"/>
<path d="M87.7344 22.0997C87.7344 21.0164 87.4792 20.0737 86.9688 19.2716C86.3438 18.2924 85.4688 17.657 84.3438 17.3654C83.1979 17.8445 81.8125 18.0841 80.1875 18.0841C79.6771 18.0841 79.2552 18.0476 78.9219 17.9747C78.599 17.8914 78.4375 17.7351 78.4375 17.506C78.4375 17.4226 78.4531 17.3341 78.4844 17.2404C78.9531 17.3341 79.5208 17.381 80.1875 17.381C82.3958 17.381 84.151 16.8758 85.4531 15.8654C86.7656 14.8445 87.4219 13.4122 87.4219 11.5685C87.4219 10.5476 87.2865 9.69348 87.0156 9.00598C87.2448 8.62056 87.4167 8.25077 87.5312 7.89661C87.6562 7.54244 87.7188 7.07369 87.7188 6.49036C87.7188 5.43827 87.3958 4.7039 86.75 4.28723C86.2188 3.94348 85.4427 3.77161 84.4219 3.77161C83.4115 3.77161 82.599 3.8914 81.9844 4.13098V5.22473C80.9115 4.83931 79.7969 4.64661 78.6406 4.64661C76.2448 4.64661 74.2969 5.22473 72.7969 6.38098C71.2969 7.53723 70.5469 9.11536 70.5469 11.1154C70.5469 12.1674 70.7448 13.0529 71.1406 13.7716C71.5469 14.4904 72.0365 15.0268 72.6094 15.381C72.1823 15.6101 71.8594 15.9591 71.6406 16.4279C71.4219 16.8862 71.3125 17.3862 71.3125 17.9279C71.3125 19.3133 72.0104 20.3497 73.4062 21.0372C74.5521 21.6101 76.1302 21.8966 78.1406 21.8966C78.9219 21.8966 79.5729 21.8393 80.0938 21.7247C80.1562 21.8289 80.1875 21.9331 80.1875 22.0372C80.1875 22.2456 80.0312 22.3914 79.7188 22.4747C79.4167 22.5581 78.7292 22.5997 77.6562 22.5997C76.5833 22.5997 75.5365 22.4643 74.5156 22.1935C73.5052 21.9226 72.7396 21.5685 72.2188 21.131C71.9062 21.3081 71.6302 21.6362 71.3906 22.1154C71.151 22.5841 71.0312 23.0737 71.0312 23.5841C71.0312 24.9174 71.6823 26.0008 72.9844 26.8341C74.3906 27.7508 76.3802 28.2091 78.9531 28.2091C81.5365 28.2091 83.6458 27.6726 85.2812 26.5997C86.9167 25.5268 87.7344 24.0268 87.7344 22.0997ZM79.1875 10.4904C79.4688 10.4904 79.6094 10.6779 79.6094 11.0529V11.8029C79.6094 12.1362 79.5781 12.3654 79.5156 12.4904C79.4531 12.6154 79.3385 12.6779 79.1719 12.6779C79.0052 12.6779 78.8802 12.6414 78.7969 12.5685V10.9591C78.7969 10.6466 78.9271 10.4904 79.1875 10.4904ZM88.7188 6.49036C88.7188 7.13146 88.6522 7.72636 88.4746 8.22961L88.4727 8.22864C88.3768 8.51992 88.2521 8.81065 88.1025 9.10168C88.2517 9.60123 88.3455 10.1448 88.3896 10.7277C88.1301 11.6355 88 12.6293 88 13.7091C88 13.8171 88.0033 13.9242 88.0059 14.0304C87.6258 15.0573 86.9843 15.9412 86.0674 16.6544L86.0664 16.6554C85.9771 16.7247 85.8854 16.7907 85.793 16.8556C86.6106 17.2841 87.288 17.9134 87.8115 18.7335L87.8125 18.7345C88.4387 19.7185 88.7344 20.8534 88.7344 22.0997C88.7344 24.3697 87.742 26.1813 85.8301 27.4357C83.987 28.6448 81.67 29.2091 78.9531 29.2091C76.2823 29.2091 74.0722 28.7369 72.4385 27.672V27.671C70.9073 26.6885 70.0312 25.3148 70.0312 23.5841C70.0312 22.9104 70.1908 22.2653 70.5 21.6603C70.6949 21.2721 70.9388 20.9106 71.2461 20.6202C71.1618 20.518 71.081 20.413 71.0068 20.3029C70.5348 19.6018 70.3125 18.7971 70.3125 17.9279C70.3125 17.2473 70.4511 16.5989 70.7383 15.9972C70.838 15.7847 70.9568 15.5876 71.0918 15.4054C70.7834 15.0707 70.5103 14.6879 70.2705 14.2638L70.2646 14.254C69.7676 13.3516 69.5469 12.2897 69.5469 11.1154C69.5469 8.82542 70.4254 6.94655 72.1865 5.58899C73.9033 4.26568 76.0833 3.64661 78.6406 3.64661C79.4384 3.64661 80.2201 3.72998 80.9844 3.89758V3.44739L81.6211 3.19934C82.3961 2.89722 83.3464 2.77161 84.4219 2.77161C85.5279 2.77161 86.5287 2.95298 87.293 3.44739H87.292C88.3227 4.1124 88.7188 5.23698 88.7188 6.49036Z" fill="white"/>
<path d="M52.0312 16.5841C52.0312 14.4864 52.7143 12.7409 54.166 11.4874C53.8833 10.9875 53.6748 10.4398 53.5352 9.84973C53.5628 9.57473 53.5781 9.29359 53.5781 9.00598C53.5781 8.20055 53.507 7.47878 53.3682 6.83997C53.4244 6.40347 53.528 6.00081 53.7041 5.65833L53.8623 5.35071L54.1768 5.20618C55.0107 4.82396 56.036 4.50319 57.2334 4.23352C58.4675 3.94517 59.7604 3.80286 61.1094 3.80286C63.8811 3.80286 66.1535 4.40583 67.7588 5.77649C69.3788 7.15975 70.1406 9.10379 70.1406 11.4591V14.5216C70.1406 15.2108 70.2187 15.686 70.3301 15.9923C70.4087 16.2084 70.5311 16.3748 70.7139 16.5089L70.7959 16.5646L71.1611 16.7931L71.2461 17.2159C71.2787 17.3791 71.2812 17.5736 71.2812 17.7091V17.9904C71.2812 19.684 70.7598 21.1274 69.6143 22.1798C68.6219 23.0935 67.3944 23.5372 66 23.5372C65.0429 23.5372 64.1467 23.3084 63.332 22.8429C63.2282 22.7836 63.1281 22.7205 63.0312 22.6544L62.998 22.6779C62.0781 23.3006 60.8192 23.5372 59.375 23.5372C57.2623 23.5372 55.462 22.9618 54.0811 21.7179L54.0732 21.7111C52.6796 20.4312 52.0312 18.6766 52.0312 16.5841ZM61.0312 15.2872H62.1719C62.1719 15.7143 62.0885 16.0164 61.9219 16.1935C61.7552 16.3601 61.4948 16.4435 61.1406 16.4435C60.6302 16.4435 60.375 16.256 60.375 15.881C60.375 15.4851 60.5938 15.2872 61.0312 15.2872ZM54.3125 7.78723C54.3125 9.11015 54.5677 10.2039 55.0781 11.0685C56.1927 10.4331 57.5365 10.1154 59.1094 10.1154C59.849 10.1154 60.4479 10.1622 60.9062 10.256C61.3646 10.3497 61.5938 10.532 61.5938 10.8029C61.5938 10.8758 61.5781 10.9643 61.5469 11.0685C61.5156 11.0581 61.3125 11.0164 60.9375 10.9435C60.375 10.8601 59.7917 10.8185 59.1875 10.8185C57.4167 10.8185 55.974 11.282 54.8594 12.2091C53.6406 13.2404 53.0312 14.6987 53.0312 16.5841C53.0312 18.4591 53.6042 19.9226 54.75 20.9747C55.9062 22.0164 57.4479 22.5372 59.375 22.5372C60.7396 22.5372 61.7604 22.3081 62.4375 21.8497C62.0729 21.4851 61.8906 21.157 61.8906 20.8654C61.8906 20.5216 62.0677 20.3497 62.4219 20.3497C62.7031 21.0581 63.1719 21.5997 63.8281 21.9747C64.4844 22.3497 65.2083 22.5372 66 22.5372C67.1667 22.5372 68.1458 22.1726 68.9375 21.4435C69.8333 20.6206 70.2812 19.4695 70.2812 17.9904V17.7091C70.2812 17.5633 70.276 17.4643 70.2656 17.4122C69.849 17.1518 69.5573 16.7924 69.3906 16.3341C69.224 15.8758 69.1406 15.2716 69.1406 14.5216V11.4591C69.1406 9.33411 68.4635 7.69348 67.1094 6.53723C65.7552 5.38098 63.7552 4.80286 61.1094 4.80286C59.8281 4.80286 58.6094 4.93827 57.4531 5.20911C56.2969 5.46952 55.3438 5.77161 54.5938 6.11536C54.4062 6.47994 54.3125 7.03723 54.3125 7.78723Z" fill="white"/>
<path d="M53.5781 9.00598C53.5781 7.79765 53.4219 6.77681 53.1094 5.94348C52.2344 5.28723 51.026 4.95911 49.4844 4.95911C48.2448 4.95911 47.2031 5.24556 46.3594 5.81848C45.3385 6.49556 44.6458 7.55806 44.2812 9.00598C44.0938 9.00598 43.9479 8.95911 43.8438 8.86536C43.75 8.77161 43.7031 8.63098 43.7031 8.44348C43.7031 8.24556 43.8021 7.92265 44 7.47473C44.1979 7.02681 44.4271 6.65702 44.6875 6.36536C44.1562 5.57369 43.276 5.17786 42.0469 5.17786V4.17786C43.33 4.17786 44.4505 4.55438 45.2256 5.43079C45.4076 5.2709 45.6008 5.12198 45.8066 4.98547C46.8471 4.2819 48.0921 3.95911 49.4844 3.95911C51.0517 3.95911 52.4214 4.27067 53.498 4.99329L53.709 5.14368L53.9434 5.31848L54.0459 5.59192C54.1883 5.97156 54.298 6.37765 54.3818 6.80676C54.335 7.08537 54.3125 7.4123 54.3125 7.78723C54.3125 8.51182 54.3918 9.16694 54.5449 9.75403C54.4622 10.8067 54.2056 11.7959 53.7578 12.7111L53.6143 13.0031L53.3271 13.1554C52.8591 13.4032 52.2704 13.5888 51.6025 13.7335L51.5947 13.7355L51.5869 13.7365C50.8975 13.8743 50.2015 13.9435 49.5 13.9435C49.2921 13.9435 49.089 13.9373 48.8906 13.9288V21.9318L48.4258 22.2257C47.1068 23.0607 45.5709 23.4591 43.8594 23.4591C42.5227 23.4591 41.3412 23.2207 40.3955 22.6554C39.2734 22.0161 38.6562 20.9994 38.6562 19.7091V19.2501C38.7393 18.8606 38.7812 18.4407 38.7812 17.9904V17.7091C38.7812 17.5633 38.776 17.4643 38.7656 17.4122C38.7277 17.3885 38.6921 17.3624 38.6562 17.337V11.962C38.0284 10.9569 37.7344 9.78001 37.7344 8.47473C37.7344 7.0362 38.0852 5.73851 38.8232 4.62512L39.1191 4.17786H42.0469V5.17786H39.6562C39.0417 6.10494 38.7344 7.2039 38.7344 8.47473C38.7344 9.73515 39.0417 10.7976 39.6562 11.6622V19.7091C39.6562 20.6258 40.0677 21.3185 40.8906 21.7872C41.6302 22.2351 42.6198 22.4591 43.8594 22.4591C45.4115 22.4591 46.7552 22.0997 47.8906 21.381V13.5372C47.4115 13.4435 47.0677 13.3601 46.8594 13.2872C46.6615 13.2039 46.5625 13.0841 46.5625 12.9279C46.5625 12.7716 46.6042 12.6518 46.6875 12.5685C46.9167 12.6414 47.2812 12.7247 47.7812 12.8185C48.2917 12.9018 48.8646 12.9435 49.5 12.9435C50.1354 12.9435 50.7656 12.881 51.3906 12.756C52.0156 12.6206 52.5052 12.4591 52.8594 12.2716C53.3385 11.2924 53.5781 10.2039 53.5781 9.00598Z" fill="white"/>
<path d="M20.5312 16.5841C20.5312 16.1745 20.5577 15.7784 20.6104 15.3966H20.8594C21.3318 14.6831 21.582 13.7732 21.6172 12.6671C21.9068 12.2366 22.2552 11.8422 22.666 11.4874C22.0764 10.4449 21.8125 9.19342 21.8125 7.78723C21.8125 6.98964 21.9061 6.23804 22.2041 5.65833L22.3623 5.35071L22.6768 5.20618C23.5107 4.82396 24.536 4.50319 25.7334 4.23352C26.9675 3.94517 28.2604 3.80286 29.6094 3.80286C32.3811 3.80286 34.6535 4.40583 36.2588 5.77649C37.8788 7.15975 38.6406 9.10379 38.6406 11.4591V14.5216C38.6406 15.2108 38.7187 15.686 38.8301 15.9923C38.9087 16.2084 39.0311 16.3748 39.2139 16.5089L39.2959 16.5646L39.6562 16.7892V19.339C39.4414 20.4545 38.9419 21.4195 38.1143 22.1798C37.1219 23.0935 35.8944 23.5372 34.5 23.5372C33.5429 23.5372 32.6467 23.3084 31.832 22.8429C31.7282 22.7836 31.6281 22.7205 31.5312 22.6544L31.498 22.6779C30.5781 23.3006 29.3192 23.5372 27.875 23.5372C25.7623 23.5372 23.962 22.9618 22.5811 21.7179L22.5732 21.7111C21.1796 20.4312 20.5312 18.6766 20.5312 16.5841ZM29.5312 15.2872H30.6719C30.6719 15.7143 30.5885 16.0164 30.4219 16.1935C30.2552 16.3601 29.9948 16.4435 29.6406 16.4435C29.1302 16.4435 28.875 16.256 28.875 15.881C28.875 15.4851 29.0938 15.2872 29.5312 15.2872ZM22.8125 7.78723C22.8125 9.11015 23.0677 10.2039 23.5781 11.0685C24.6927 10.4331 26.0365 10.1154 27.6094 10.1154C28.349 10.1154 28.9479 10.1622 29.4062 10.256C29.8646 10.3497 30.0938 10.532 30.0938 10.8029C30.0938 10.8758 30.0781 10.9643 30.0469 11.0685C30.0156 11.0581 29.8125 11.0164 29.4375 10.9435C28.875 10.8601 28.2917 10.8185 27.6875 10.8185C25.9167 10.8185 24.474 11.282 23.3594 12.2091C22.1406 13.2404 21.5312 14.6987 21.5312 16.5841C21.5312 18.4591 22.1042 19.9226 23.25 20.9747C24.4062 22.0164 25.9479 22.5372 27.875 22.5372C29.2396 22.5372 30.2604 22.3081 30.9375 21.8497C30.5729 21.4851 30.3906 21.157 30.3906 20.8654C30.3906 20.5216 30.5677 20.3497 30.9219 20.3497C31.2031 21.0581 31.6719 21.5997 32.3281 21.9747C32.9844 22.3497 33.7083 22.5372 34.5 22.5372C35.6667 22.5372 36.6458 22.1726 37.4375 21.4435C38.3333 20.6206 38.7812 19.4695 38.7812 17.9904V17.7091C38.7812 17.5633 38.776 17.4643 38.7656 17.4122C38.349 17.1518 38.0573 16.7924 37.8906 16.3341C37.724 15.8758 37.6406 15.2716 37.6406 14.5216V11.4591C37.6406 9.33411 36.9635 7.69348 35.6094 6.53723C34.2552 5.38098 32.2552 4.80286 29.6094 4.80286C28.3281 4.80286 27.1094 4.93827 25.9531 5.20911C24.7969 5.46952 23.8438 5.77161 23.0938 6.11536C22.9062 6.47994 22.8125 7.03723 22.8125 7.78723Z" fill="white"/>
<path d="M20.0156 4.16223C19.1719 3.43306 18.0208 2.82369 16.5625 2.33411C15.1146 1.84452 13.5729 1.59973 11.9375 1.59973C8.625 1.59973 6 2.49036 4.0625 4.27161C2.02083 6.13619 1 8.77161 1 12.1779C1 14.5737 1.52604 16.5945 2.57812 18.2404C3.53646 19.7404 4.88542 20.881 6.625 21.6622C8.21875 22.3914 10.0417 22.756 12.0938 22.756C15.4583 22.756 18.1667 21.8654 20.2188 20.0841V15.3966H20.8594C21.3698 14.6258 21.625 13.6258 21.625 12.3966C21.625 11.157 21.3281 10.1049 20.7344 9.24036H11.4688C10.7708 10.0112 10.4219 11.0216 10.4219 12.2716C10.4219 13.2716 10.6458 14.0424 11.0938 14.5841C11.5521 15.1154 12.125 15.381 12.8125 15.381H12.9844V15.7404C12.9844 15.9695 12.8177 16.0841 12.4844 16.0841C11.6719 16.0841 11.0052 15.7768 10.4844 15.1622C9.89062 14.4851 9.59375 13.5529 9.59375 12.3654C9.59375 11.5008 9.73958 10.7351 10.0312 10.0685C10.3333 9.40181 10.651 8.8914 10.9844 8.53723H19.2188C19.4479 8.05806 19.6354 7.36536 19.7812 6.45911C19.9375 5.55286 20.0156 4.78723 20.0156 4.16223ZM21.0156 4.16223C21.0156 4.86107 20.9282 5.68327 20.7676 6.61731C20.6705 7.22061 20.5517 7.76681 20.4023 8.24036H21.2607L21.5586 8.67395C22.2863 9.73366 22.625 10.9925 22.625 12.3966C22.625 12.6041 22.615 12.8078 22.6016 13.0079C21.9568 13.8601 21.6027 14.916 21.541 16.1769L21.3965 16.3966H21.2188V20.5402L20.874 20.839C18.5996 22.8132 15.6397 23.756 12.0938 23.756C9.92471 23.756 7.95822 23.3699 6.21484 22.5734V22.5743C4.31108 21.7193 2.80602 20.4543 1.73535 18.7784V18.7794C0.559352 16.9397 0 14.7212 0 12.1779C0 8.56099 1.09208 5.63 3.3877 3.53333C5.5538 1.54303 8.44291 0.599731 11.9375 0.599731C13.6731 0.599731 15.3226 0.859684 16.8799 1.38586C18.4178 1.90217 19.6981 2.56556 20.6699 3.4054L21.0156 3.7052V4.16223Z" fill="white"/>
<path d="M76.0111 48.8237C74.1124 48.8237 72.4484 48.4504 71.0191 47.7037C69.6111 46.9357 68.5124 45.8904 67.7231 44.5677C66.9551 43.245 66.5711 41.741 66.5711 40.0557C66.5711 38.349 66.9444 36.845 67.6911 35.5437C68.4591 34.221 69.5044 33.1864 70.8271 32.4397C72.1711 31.693 73.6964 31.3197 75.4031 31.3197C77.0671 31.3197 78.5498 31.6824 79.8511 32.4077C81.1524 33.133 82.1764 34.157 82.9231 35.4797C83.6698 36.8024 84.0431 38.3597 84.0431 40.1517C84.0431 40.3224 84.0324 40.5144 84.0111 40.7277C84.0111 40.941 84.0004 41.1437 83.9791 41.3357H69.7391V38.6797H81.8671L80.2991 39.5117C80.3204 38.5304 80.1178 37.6664 79.6911 36.9197C79.2644 36.173 78.6778 35.5864 77.9311 35.1597C77.2058 34.733 76.3631 34.5197 75.4031 34.5197C74.4218 34.5197 73.5578 34.733 72.8111 35.1597C72.0858 35.5864 71.5098 36.1837 71.0831 36.9517C70.6778 37.6984 70.4751 38.5837 70.4751 39.6077V40.2477C70.4751 41.2717 70.7098 42.1784 71.1791 42.9677C71.6484 43.757 72.3098 44.365 73.1631 44.7917C74.0164 45.2184 74.9978 45.4317 76.1071 45.4317C77.0671 45.4317 77.9311 45.2824 78.6991 44.9837C79.4671 44.685 80.1498 44.2157 80.7471 43.5757L82.8911 46.0397C82.1231 46.9357 81.1524 47.629 79.9791 48.1197C78.8271 48.589 77.5044 48.8237 76.0111 48.8237Z" fill="white"/>
<path d="M56.3844 55.0317C54.8057 55.0317 53.259 54.8184 51.7444 54.3917C50.251 53.9864 49.0244 53.389 48.0644 52.5997L49.8564 49.5917C50.603 50.2104 51.5417 50.701 52.6724 51.0637C53.8244 51.4477 54.987 51.6397 56.1604 51.6397C58.0377 51.6397 59.4137 51.2024 60.2884 50.3277C61.163 49.4744 61.6004 48.1837 61.6004 46.4557V43.4157L61.9204 39.5437L61.7924 35.6717V31.5117H65.6004V46.0077C65.6004 49.101 64.811 51.373 63.2324 52.8237C61.6537 54.2957 59.371 55.0317 56.3844 55.0317ZM55.8724 47.8317C54.251 47.8317 52.779 47.4904 51.4564 46.8077C50.155 46.1037 49.1204 45.133 48.3524 43.8957C47.6057 42.6584 47.2324 41.2077 47.2324 39.5437C47.2324 37.901 47.6057 36.461 48.3524 35.2237C49.1204 33.9864 50.155 33.0264 51.4564 32.3437C52.779 31.661 54.251 31.3197 55.8724 31.3197C57.323 31.3197 58.6244 31.6077 59.7764 32.1837C60.9284 32.7597 61.8457 33.6557 62.5284 34.8717C63.2324 36.0877 63.5844 37.645 63.5844 39.5437C63.5844 41.4424 63.2324 43.0104 62.5284 44.2477C61.8457 45.4637 60.9284 46.3704 59.7764 46.9677C58.6244 47.5437 57.323 47.8317 55.8724 47.8317ZM56.4804 44.4397C57.483 44.4397 58.379 44.237 59.1684 43.8317C59.9577 43.405 60.5657 42.829 60.9924 42.1037C61.4404 41.357 61.6644 40.5037 61.6644 39.5437C61.6644 38.5837 61.4404 37.741 60.9924 37.0157C60.5657 36.269 59.9577 35.7037 59.1684 35.3197C58.379 34.9144 57.483 34.7117 56.4804 34.7117C55.4777 34.7117 54.571 34.9144 53.7604 35.3197C52.971 35.7037 52.3524 36.269 51.9044 37.0157C51.4777 37.741 51.2644 38.5837 51.2644 39.5437C51.2644 40.5037 51.4777 41.357 51.9044 42.1037C52.3524 42.829 52.971 43.405 53.7604 43.8317C54.571 44.237 55.4777 44.4397 56.4804 44.4397Z" fill="white"/>
<path d="M96.0003 48.1001C96.8285 48.1003 97.5003 48.7718 97.5003 49.6001C97.5002 51.2002 97.3249 53.1193 95.4905 54.5942C93.8388 55.922 91.0589 56.6921 86.636 57.0942C83.7135 57.3599 80.7302 57.0898 77.1018 56.6519C73.4468 56.2107 69.088 55.5913 63.2483 55.0942C62.7715 55.0537 62.2843 55.0158 61.7874 54.9771C62.5751 54.6068 63.2849 54.1385 63.9075 53.5591L63.9085 53.5601C64.3362 53.167 64.7083 52.7262 65.0296 52.2427C70.1895 52.7196 74.183 53.2777 77.4612 53.6733C81.0823 54.1104 83.7873 54.3402 86.3645 54.106C90.7411 53.7081 92.7123 52.9785 93.6106 52.2563C94.3257 51.6815 94.5002 50.9995 94.5003 49.6001C94.5003 48.7717 95.1718 48.1001 96.0003 48.1001ZM4.87136 53.106C23.1843 51.5273 36.9894 51.1397 47.6604 51.3218L46.7649 52.8267L47.429 53.3726C47.8723 53.737 48.3609 54.06 48.8909 54.3452C38.1652 54.111 24.0949 54.4593 5.12917 56.0942C4.30397 56.1654 3.57752 55.5541 3.50612 54.729C3.43497 53.9037 4.04604 53.1772 4.87136 53.106ZM48.8108 51.3442C50.8937 51.3886 52.8539 51.4547 54.7024 51.5376C55.0408 51.5839 55.3798 51.6164 55.72 51.6304L56.1594 51.6401C56.307 51.6401 56.4517 51.6358 56.593 51.6304C59.1021 51.7634 61.3951 51.9266 63.5022 52.106C63.6243 52.1163 63.7456 52.1277 63.8665 52.1382C63.6707 52.3832 63.4607 52.6133 63.2317 52.8237C62.1769 53.8071 60.8075 54.4593 59.1243 54.7856C56.9073 54.6408 54.5023 54.5162 51.8821 54.4282C51.8362 54.4157 51.7893 54.405 51.7434 54.3921C50.2504 53.9868 49.0236 53.3893 48.0637 52.6001L48.8108 51.3442Z" fill="white"/>
<path d="M38.3953 48.5997V31.5117H42.2033V36.2157L41.7553 34.8397C42.2673 33.6877 43.0673 32.813 44.1553 32.2157C45.2647 31.6184 46.6407 31.3197 48.2833 31.3197V35.1277C48.1127 35.085 47.9527 35.0637 47.8033 35.0637C47.654 35.0424 47.5047 35.0317 47.3553 35.0317C45.8407 35.0317 44.6353 35.4797 43.7393 36.3757C42.8433 37.2504 42.3953 38.5624 42.3953 40.3117V48.5997H38.3953Z" fill="white"/>
<path d="M28.3303 48.8237C26.581 48.8237 25.0236 48.4504 23.6583 47.7037C22.293 46.9357 21.2156 45.8904 20.4263 44.5677C19.637 43.245 19.2423 41.741 19.2423 40.0557C19.2423 38.349 19.637 36.845 20.4263 35.5437C21.2156 34.221 22.293 33.1864 23.6583 32.4397C25.0236 31.693 26.581 31.3197 28.3303 31.3197C30.101 31.3197 31.669 31.693 33.0343 32.4397C34.421 33.1864 35.4983 34.2104 36.2663 35.5117C37.0556 36.813 37.4503 38.3277 37.4503 40.0557C37.4503 41.741 37.0556 43.245 36.2663 44.5677C35.4983 45.8904 34.421 46.9357 33.0343 47.7037C31.669 48.4504 30.101 48.8237 28.3303 48.8237ZM28.3303 45.3997C29.3116 45.3997 30.1863 45.1864 30.9543 44.7597C31.7223 44.333 32.3196 43.7144 32.7463 42.9037C33.1943 42.093 33.4183 41.1437 33.4183 40.0557C33.4183 38.9464 33.1943 37.997 32.7463 37.2077C32.3196 36.397 31.7223 35.7784 30.9543 35.3517C30.1863 34.925 29.3223 34.7117 28.3623 34.7117C27.381 34.7117 26.5063 34.925 25.7383 35.3517C24.9916 35.7784 24.3943 36.397 23.9463 37.2077C23.4983 37.997 23.2743 38.9464 23.2743 40.0557C23.2743 41.1437 23.4983 42.093 23.9463 42.9037C24.3943 43.7144 24.9916 44.333 25.7383 44.7597C26.5063 45.1864 27.3703 45.3997 28.3303 45.3997Z" fill="white"/>
<path d="M7.81606 36.5037H18.9841V40.0237H7.81606V36.5037ZM8.16806 48.5997H4.00806V26.1997H20.3601V29.6877H8.16806V48.5997Z" fill="white"/>
</svg>
