<svg width="107" height="57" viewBox="0 0 107 57" fill="none" xmlns="http://www.w3.org/2000/svg">
<path d="M105 37.1996H102.667L96.832 45.9515C96.4362 46.5452 95.5638 46.5452 95.168 45.9515L89.333 37.1996H87V26.1996H105V37.1996Z" fill="white"/>
<path d="M97.3906 22.3402C94.5052 22.3402 92.2292 21.5381 90.5625 19.934C88.8542 18.3194 88 16.111 88 13.309C88 10.4965 88.8802 8.26729 90.6406 6.62146C92.2656 5.09021 94.3229 4.32458 96.8125 4.32458C99.3021 4.32458 101.297 5.01208 102.797 6.38708C104.307 7.75167 105.062 9.43396 105.062 11.434C105.062 13.2152 104.443 14.559 103.203 15.4652C102.057 16.3194 100.495 16.7465 98.5156 16.7465C97.0365 16.7465 95.7865 16.4392 94.7656 15.8246C94.6823 15.8871 94.6406 16.0017 94.6406 16.1683C94.6406 16.4808 95.0521 16.7673 95.875 17.0277C96.6979 17.309 97.6302 17.4496 98.6719 17.4496C99.724 17.4496 100.677 17.3194 101.531 17.059C102.396 16.7881 103.089 16.4704 103.609 16.1058C103.859 16.3246 104.057 16.7308 104.203 17.3246C104.359 17.9079 104.438 18.4444 104.438 18.934C104.438 19.4131 104.391 19.8402 104.297 20.2152C103.484 20.9027 102.651 21.3923 101.797 21.684C100.589 22.1215 99.1198 22.3402 97.3906 22.3402ZM97.1875 11.7621C97.7083 11.7621 97.9688 11.5642 97.9688 11.1683C97.9688 10.7933 97.6927 10.6058 97.1406 10.6058C96.5885 10.6058 96.2708 10.9027 96.1875 11.4965C96.4792 11.6735 96.8125 11.7621 97.1875 11.7621Z" fill="#FF9500"/>
<path d="M79.6094 10.6527C79.6094 10.2777 79.4688 10.0902 79.1875 10.0902C78.9271 10.0902 78.7969 10.2465 78.7969 10.559V12.1683C78.8802 12.2413 79.0052 12.2777 79.1719 12.2777C79.3385 12.2777 79.4531 12.2152 79.5156 12.0902C79.5781 11.9652 79.6094 11.736 79.6094 11.4027V10.6527ZM80.1875 16.9808C79.5208 16.9808 78.9531 16.934 78.4844 16.8402C78.4531 16.934 78.4375 17.0225 78.4375 17.1058C78.4375 17.335 78.599 17.4913 78.9219 17.5746C79.2552 17.6475 79.6771 17.684 80.1875 17.684C81.8125 17.684 83.1979 17.4444 84.3438 16.9652C85.4688 17.2569 86.3438 17.8923 86.9688 18.8715C87.4792 19.6735 87.7344 20.6163 87.7344 21.6996C87.7344 23.6267 86.9167 25.1267 85.2812 26.1996C83.6458 27.2725 81.5365 27.809 78.9531 27.809C76.3802 27.809 74.3906 27.3506 72.9844 26.434C71.6823 25.6006 71.0312 24.5173 71.0312 23.184C71.0312 22.6735 71.151 22.184 71.3906 21.7152C71.6302 21.236 71.9062 20.9079 72.2188 20.7308C72.7396 21.1683 73.5052 21.5225 74.5156 21.7933C75.5365 22.0642 76.5833 22.1996 77.6562 22.1996C78.7292 22.1996 79.4167 22.1579 79.7188 22.0746C80.0312 21.9913 80.1875 21.8454 80.1875 21.6371C80.1875 21.5329 80.1562 21.4288 80.0938 21.3246C79.5729 21.4392 78.9219 21.4965 78.1406 21.4965C76.1302 21.4965 74.5521 21.21 73.4062 20.6371C72.0104 19.9496 71.3125 18.9131 71.3125 17.5277C71.3125 16.986 71.4219 16.486 71.6406 16.0277C71.8594 15.559 72.1823 15.21 72.6094 14.9808C72.0365 14.6267 71.5469 14.0902 71.1406 13.3715C70.7448 12.6527 70.5469 11.7673 70.5469 10.7152C70.5469 8.71521 71.2969 7.13708 72.7969 5.98083C74.2969 4.82458 76.2448 4.24646 78.6406 4.24646C79.7969 4.24646 80.9115 4.43917 81.9844 4.82458V3.73083C82.599 3.49125 83.4115 3.37146 84.4219 3.37146C85.4427 3.37146 86.2188 3.54333 86.75 3.88708C87.3958 4.30375 87.7188 5.03813 87.7188 6.09021C87.7188 6.67354 87.6562 7.14229 87.5312 7.49646C87.4167 7.85063 87.2448 8.22042 87.0156 8.60583C87.2865 9.29333 87.4219 10.1475 87.4219 11.1683C87.4219 13.0121 86.7656 14.4444 85.4531 15.4652C84.151 16.4756 82.3958 16.9808 80.1875 16.9808Z" fill="#FF9500"/>
<path d="M69.1406 14.1215C69.1406 14.8715 69.224 15.4756 69.3906 15.934C69.5573 16.3923 69.849 16.7517 70.2656 17.0121C70.276 17.0642 70.2812 17.1631 70.2812 17.309V17.5902C70.2812 19.0694 69.8333 20.2204 68.9375 21.0433C68.1458 21.7725 67.1667 22.1371 66 22.1371C65.2083 22.1371 64.4844 21.9496 63.8281 21.5746C63.1719 21.1996 62.7031 20.6579 62.4219 19.9496C62.0677 19.9496 61.8906 20.1215 61.8906 20.4652C61.8906 20.7569 62.0729 21.085 62.4375 21.4496C61.7604 21.9079 60.7396 22.1371 59.375 22.1371C57.4479 22.1371 55.9062 21.6163 54.75 20.5746C53.6042 19.5225 53.0312 18.059 53.0312 16.184C53.0312 14.2985 53.6406 12.8402 54.8594 11.809C55.974 10.8819 57.4167 10.4183 59.1875 10.4183C59.7917 10.4183 60.375 10.46 60.9375 10.5433C61.3125 10.6163 61.5156 10.6579 61.5469 10.6683C61.5781 10.5642 61.5938 10.4756 61.5938 10.4027C61.5938 10.1319 61.3646 9.94958 60.9062 9.85583C60.4479 9.76208 59.849 9.71521 59.1094 9.71521C57.5365 9.71521 56.1927 10.0329 55.0781 10.6683C54.5677 9.80375 54.3125 8.71 54.3125 7.38708C54.3125 6.63708 54.4062 6.07979 54.5938 5.71521C55.3438 5.37146 56.2969 5.06938 57.4531 4.80896C58.6094 4.53813 59.8281 4.40271 61.1094 4.40271C63.7552 4.40271 65.7552 4.98083 67.1094 6.13708C68.4635 7.29333 69.1406 8.93396 69.1406 11.059V14.1215ZM61.0312 14.8871C60.5938 14.8871 60.375 15.085 60.375 15.4808C60.375 15.8558 60.6302 16.0433 61.1406 16.0433C61.4948 16.0433 61.7552 15.96 61.9219 15.7933C62.0885 15.6163 62.1719 15.3142 62.1719 14.8871C62.1719 14.8871 61.7917 14.8871 61.0312 14.8871Z" fill="#FF9500"/>
<path d="M43.8594 22.059C42.6198 22.059 41.6302 21.835 40.8906 21.3871C40.0677 20.9183 39.6562 20.2256 39.6562 19.309V11.2621C39.0417 10.3975 38.7344 9.335 38.7344 8.07458C38.7344 6.80375 39.0417 5.70479 39.6562 4.77771H42.0469C43.276 4.77771 44.1562 5.17354 44.6875 5.96521C44.4271 6.25688 44.1979 6.62667 44 7.07458C43.8021 7.5225 43.7031 7.84542 43.7031 8.04333C43.7031 8.23083 43.75 8.37146 43.8438 8.46521C43.9479 8.55896 44.0938 8.60583 44.2812 8.60583C44.6458 7.15792 45.3385 6.09542 46.3594 5.41833C47.2031 4.84542 48.2448 4.55896 49.4844 4.55896C51.026 4.55896 52.2344 4.88708 53.1094 5.54333C53.4219 6.37667 53.5781 7.3975 53.5781 8.60583C53.5781 9.80375 53.3385 10.8923 52.8594 11.8715C52.5052 12.059 52.0156 12.2204 51.3906 12.3558C50.7656 12.4808 50.1354 12.5433 49.5 12.5433C48.8646 12.5433 48.2917 12.5017 47.7812 12.4183C47.2812 12.3246 46.9167 12.2413 46.6875 12.1683C46.6042 12.2517 46.5625 12.3715 46.5625 12.5277C46.5625 12.684 46.6615 12.8038 46.8594 12.8871C47.0677 12.96 47.4115 13.0433 47.8906 13.1371V20.9808C46.7552 21.6996 45.4115 22.059 43.8594 22.059Z" fill="#FF9500"/>
<path d="M37.6406 14.1215C37.6406 14.8715 37.724 15.4756 37.8906 15.934C38.0573 16.3923 38.349 16.7517 38.7656 17.0121C38.776 17.0642 38.7812 17.1631 38.7812 17.309V17.5902C38.7812 19.0694 38.3333 20.2204 37.4375 21.0433C36.6458 21.7725 35.6667 22.1371 34.5 22.1371C33.7083 22.1371 32.9844 21.9496 32.3281 21.5746C31.6719 21.1996 31.2031 20.6579 30.9219 19.9496C30.5677 19.9496 30.3906 20.1215 30.3906 20.4652C30.3906 20.7569 30.5729 21.085 30.9375 21.4496C30.2604 21.9079 29.2396 22.1371 27.875 22.1371C25.9479 22.1371 24.4062 21.6163 23.25 20.5746C22.1042 19.5225 21.5312 18.059 21.5312 16.184C21.5312 14.2985 22.1406 12.8402 23.3594 11.809C24.474 10.8819 25.9167 10.4183 27.6875 10.4183C28.2917 10.4183 28.875 10.46 29.4375 10.5433C29.8125 10.6163 30.0156 10.6579 30.0469 10.6683C30.0781 10.5642 30.0938 10.4756 30.0938 10.4027C30.0938 10.1319 29.8646 9.94958 29.4062 9.85583C28.9479 9.76208 28.349 9.71521 27.6094 9.71521C26.0365 9.71521 24.6927 10.0329 23.5781 10.6683C23.0677 9.80375 22.8125 8.71 22.8125 7.38708C22.8125 6.63708 22.9062 6.07979 23.0938 5.71521C23.8438 5.37146 24.7969 5.06938 25.9531 4.80896C27.1094 4.53813 28.3281 4.40271 29.6094 4.40271C32.2552 4.40271 34.2552 4.98083 35.6094 6.13708C36.9635 7.29333 37.6406 8.93396 37.6406 11.059V14.1215ZM29.5312 14.8871C29.0938 14.8871 28.875 15.085 28.875 15.4808C28.875 15.8558 29.1302 16.0433 29.6406 16.0433C29.9948 16.0433 30.2552 15.96 30.4219 15.7933C30.5885 15.6163 30.6719 15.3142 30.6719 14.8871C30.6719 14.8871 30.2917 14.8871 29.5312 14.8871Z" fill="#FF9500"/>
<path d="M11.4688 8.84021H20.7344C21.3281 9.70479 21.625 10.7569 21.625 11.9965C21.625 13.2256 21.3698 14.2256 20.8594 14.9965H20.2188V19.684C18.1667 21.4652 15.4583 22.3558 12.0938 22.3558C10.0417 22.3558 8.21875 21.9913 6.625 21.2621C4.88542 20.4808 3.53646 19.3402 2.57812 17.8402C1.52604 16.1944 1 14.1735 1 11.7777C1 8.37146 2.02083 5.73604 4.0625 3.87146C6 2.09021 8.625 1.19958 11.9375 1.19958C13.5729 1.19958 15.1146 1.44438 16.5625 1.93396C18.0208 2.42354 19.1719 3.03292 20.0156 3.76208C20.0156 4.38708 19.9375 5.15271 19.7812 6.05896C19.6354 6.96521 19.4479 7.65792 19.2188 8.13708H10.9844C10.651 8.49125 10.3333 9.00167 10.0312 9.66833C9.73958 10.335 9.59375 11.1006 9.59375 11.9652C9.59375 13.1527 9.89062 14.085 10.4844 14.7621C11.0052 15.3767 11.6719 15.684 12.4844 15.684C12.8177 15.684 12.9844 15.5694 12.9844 15.3402V14.9808H12.8125C12.125 14.9808 11.5521 14.7152 11.0938 14.184C10.6458 13.6423 10.4219 12.8715 10.4219 11.8715C10.4219 10.6215 10.7708 9.61104 11.4688 8.84021Z" fill="#FF9500"/>
<path d="M105.062 11.434C105.062 9.43396 104.307 7.75167 102.797 6.38708C101.297 5.01208 99.3021 4.32458 96.8125 4.32458C94.3229 4.32458 92.2656 5.09021 90.6406 6.62146C88.8802 8.26729 88 10.4965 88 13.309C88 16.111 88.8542 18.3194 90.5625 19.934C92.2292 21.5381 94.5052 22.3402 97.3906 22.3402C99.1198 22.3402 100.589 22.1215 101.797 21.684C102.651 21.3923 103.484 20.9027 104.297 20.2152C104.391 19.8402 104.438 19.4131 104.438 18.934C104.438 18.4444 104.359 17.9079 104.203 17.3246C104.057 16.7308 103.859 16.3246 103.609 16.1058C103.089 16.4704 102.396 16.7881 101.531 17.059C100.677 17.3194 99.724 17.4496 98.6719 17.4496C97.6302 17.4496 96.6979 17.309 95.875 17.0277C95.0521 16.7673 94.6406 16.4808 94.6406 16.1683C94.6406 16.0017 94.6823 15.8871 94.7656 15.8246C95.7865 16.4392 97.0365 16.7465 98.5156 16.7465C100.495 16.7465 102.057 16.3194 103.203 15.4652C104.443 14.559 105.062 13.2152 105.062 11.434ZM106.062 11.434C106.062 13.1186 105.565 14.5483 104.526 15.6302C104.847 16.0335 105.04 16.551 105.168 17.0658H105.169C105.343 17.7147 105.438 18.3395 105.438 18.934C105.438 19.4762 105.384 19.9869 105.267 20.4574L105.188 20.7709L104.942 20.9789C104.057 21.7283 103.122 22.2844 102.137 22.6234C100.789 23.1114 99.1982 23.3402 97.3906 23.3402C94.3139 23.3402 91.7655 22.4798 89.8691 20.6547V20.6537C87.9583 18.8439 87.0308 16.4038 87.002 13.4515C87.28 12.7772 87.4219 12.017 87.4219 11.1683C87.4219 10.8416 87.4057 10.5322 87.3779 10.2396C87.8268 8.54641 88.6795 7.08624 89.958 5.89099C91.79 4.16617 94.1013 3.32458 96.8125 3.32458C99.4936 3.32458 101.749 4.06988 103.473 5.64978H103.472C105.185 7.19942 106.062 9.14758 106.062 11.434ZM97.9688 11.1683C97.9688 11.5642 97.7083 11.7621 97.1875 11.7621C96.8125 11.7621 96.4792 11.6735 96.1875 11.4965C96.2708 10.9027 96.5885 10.6058 97.1406 10.6058C97.6927 10.6058 97.9688 10.7933 97.9688 11.1683Z" fill="white"/>
<path d="M87.7344 21.6996C87.7344 20.6163 87.4792 19.6735 86.9688 18.8715C86.3438 17.8923 85.4688 17.2569 84.3438 16.9652C83.1979 17.4444 81.8125 17.684 80.1875 17.684C79.6771 17.684 79.2552 17.6475 78.9219 17.5746C78.599 17.4913 78.4375 17.335 78.4375 17.1058C78.4375 17.0225 78.4531 16.934 78.4844 16.8402C78.9531 16.934 79.5208 16.9808 80.1875 16.9808C82.3958 16.9808 84.151 16.4756 85.4531 15.4652C86.7656 14.4444 87.4219 13.0121 87.4219 11.1683C87.4219 10.1475 87.2865 9.29333 87.0156 8.60583C87.2448 8.22042 87.4167 7.85063 87.5312 7.49646C87.6562 7.14229 87.7188 6.67354 87.7188 6.09021C87.7188 5.03813 87.3958 4.30375 86.75 3.88708C86.2188 3.54333 85.4427 3.37146 84.4219 3.37146C83.4115 3.37146 82.599 3.49125 81.9844 3.73083V4.82458C80.9115 4.43917 79.7969 4.24646 78.6406 4.24646C76.2448 4.24646 74.2969 4.82458 72.7969 5.98083C71.2969 7.13708 70.5469 8.71521 70.5469 10.7152C70.5469 11.7673 70.7448 12.6527 71.1406 13.3715C71.5469 14.0902 72.0365 14.6267 72.6094 14.9808C72.1823 15.21 71.8594 15.559 71.6406 16.0277C71.4219 16.486 71.3125 16.986 71.3125 17.5277C71.3125 18.9131 72.0104 19.9496 73.4062 20.6371C74.5521 21.21 76.1302 21.4965 78.1406 21.4965C78.9219 21.4965 79.5729 21.4392 80.0938 21.3246C80.1562 21.4288 80.1875 21.5329 80.1875 21.6371C80.1875 21.8454 80.0312 21.9913 79.7188 22.0746C79.4167 22.1579 78.7292 22.1996 77.6562 22.1996C76.5833 22.1996 75.5365 22.0642 74.5156 21.7933C73.5052 21.5225 72.7396 21.1683 72.2188 20.7308C71.9062 20.9079 71.6302 21.236 71.3906 21.7152C71.151 22.184 71.0312 22.6735 71.0312 23.184C71.0312 24.5173 71.6823 25.6006 72.9844 26.434C74.3906 27.3506 76.3802 27.809 78.9531 27.809C81.5365 27.809 83.6458 27.2725 85.2812 26.1996C86.9167 25.1267 87.7344 23.6267 87.7344 21.6996ZM79.1875 10.0902C79.4688 10.0902 79.6094 10.2777 79.6094 10.6527V11.4027C79.6094 11.736 79.5781 11.9652 79.5156 12.0902C79.4531 12.2152 79.3385 12.2777 79.1719 12.2777C79.0052 12.2777 78.8802 12.2413 78.7969 12.1683V10.559C78.7969 10.2465 78.9271 10.0902 79.1875 10.0902ZM88.7188 6.09021C88.7188 6.73131 88.6522 7.32621 88.4746 7.82947L88.4727 7.82849C88.3768 8.11978 88.2521 8.41051 88.1025 8.70154C88.2517 9.20108 88.3455 9.74468 88.3896 10.3275C88.1301 11.2354 88 12.2291 88 13.309C88 13.417 88.0033 13.524 88.0059 13.6302C87.6258 14.6572 86.9843 15.541 86.0674 16.2543L86.0664 16.2552C85.9771 16.3245 85.8854 16.3906 85.793 16.4554C86.6106 16.8839 87.288 17.5133 87.8115 18.3334L87.8125 18.3344C88.4387 19.3184 88.7344 20.4533 88.7344 21.6996C88.7344 23.9696 87.742 25.7811 85.8301 27.0355C83.987 28.2447 81.67 28.809 78.9531 28.809C76.2823 28.809 74.0722 28.3367 72.4385 27.2719V27.2709C70.9073 26.2883 70.0312 24.9146 70.0312 23.184C70.0312 22.5103 70.1908 21.8652 70.5 21.2601C70.6949 20.872 70.9388 20.5104 71.2461 20.2201C71.1618 20.1179 71.081 20.0129 71.0068 19.9027C70.5348 19.2017 70.3125 18.3969 70.3125 17.5277C70.3125 16.8471 70.4511 16.1987 70.7383 15.597C70.838 15.3846 70.9568 15.1875 71.0918 15.0052C70.7834 14.6705 70.5103 14.2878 70.2705 13.8636L70.2646 13.8539C69.7676 12.9514 69.5469 11.8895 69.5469 10.7152C69.5469 8.42527 70.4254 6.54641 72.1865 5.18884C73.9033 3.86554 76.0833 3.24646 78.6406 3.24646C79.4384 3.24646 80.2201 3.32984 80.9844 3.49744V3.04724L81.6211 2.79919C82.3961 2.49707 83.3464 2.37146 84.4219 2.37146C85.5279 2.37146 86.5287 2.55283 87.293 3.04724H87.292C88.3227 3.71226 88.7188 4.83684 88.7188 6.09021Z" fill="white"/>
<path d="M52.0312 16.184C52.0312 14.0862 52.7143 12.3407 54.166 11.0873C53.8833 10.5874 53.6748 10.0397 53.5352 9.44958C53.5628 9.17459 53.5781 8.89344 53.5781 8.60583C53.5781 7.8004 53.507 7.07864 53.3682 6.43982C53.4244 6.00333 53.528 5.60067 53.7041 5.25818L53.8623 4.95056L54.1768 4.80603C55.0107 4.42381 56.036 4.10305 57.2334 3.83337C58.4675 3.54502 59.7604 3.40271 61.1094 3.40271C63.8811 3.40271 66.1535 4.00568 67.7588 5.37634C69.3788 6.75961 70.1406 8.70364 70.1406 11.059V14.1215C70.1406 14.8107 70.2187 15.2858 70.3301 15.5922C70.4087 15.8083 70.5311 15.9747 70.7139 16.1088L70.7959 16.1644L71.1611 16.3929L71.2461 16.8158C71.2787 16.9789 71.2812 17.1734 71.2812 17.309V17.5902C71.2812 19.2839 70.7598 20.7273 69.6143 21.7797C68.6219 22.6933 67.3944 23.1371 66 23.1371C65.0429 23.1371 64.1467 22.9083 63.332 22.4427C63.2282 22.3834 63.1281 22.3203 63.0312 22.2543L62.998 22.2777C62.0781 22.9005 60.8192 23.1371 59.375 23.1371C57.2623 23.1371 55.462 22.5617 54.0811 21.3177L54.0732 21.3109C52.6796 20.0311 52.0312 18.2765 52.0312 16.184ZM61.0312 14.8871H62.1719C62.1719 15.3142 62.0885 15.6163 61.9219 15.7933C61.7552 15.96 61.4948 16.0433 61.1406 16.0433C60.6302 16.0433 60.375 15.8558 60.375 15.4808C60.375 15.085 60.5938 14.8871 61.0312 14.8871ZM54.3125 7.38708C54.3125 8.71 54.5677 9.80375 55.0781 10.6683C56.1927 10.0329 57.5365 9.71521 59.1094 9.71521C59.849 9.71521 60.4479 9.76208 60.9062 9.85583C61.3646 9.94958 61.5938 10.1319 61.5938 10.4027C61.5938 10.4756 61.5781 10.5642 61.5469 10.6683C61.5156 10.6579 61.3125 10.6163 60.9375 10.5433C60.375 10.46 59.7917 10.4183 59.1875 10.4183C57.4167 10.4183 55.974 10.8819 54.8594 11.809C53.6406 12.8402 53.0312 14.2985 53.0312 16.184C53.0312 18.059 53.6042 19.5225 54.75 20.5746C55.9062 21.6163 57.4479 22.1371 59.375 22.1371C60.7396 22.1371 61.7604 21.9079 62.4375 21.4496C62.0729 21.085 61.8906 20.7569 61.8906 20.4652C61.8906 20.1215 62.0677 19.9496 62.4219 19.9496C62.7031 20.6579 63.1719 21.1996 63.8281 21.5746C64.4844 21.9496 65.2083 22.1371 66 22.1371C67.1667 22.1371 68.1458 21.7725 68.9375 21.0433C69.8333 20.2204 70.2812 19.0694 70.2812 17.5902V17.309C70.2812 17.1631 70.276 17.0642 70.2656 17.0121C69.849 16.7517 69.5573 16.3923 69.3906 15.934C69.224 15.4756 69.1406 14.8715 69.1406 14.1215V11.059C69.1406 8.93396 68.4635 7.29333 67.1094 6.13708C65.7552 4.98083 63.7552 4.40271 61.1094 4.40271C59.8281 4.40271 58.6094 4.53813 57.4531 4.80896C56.2969 5.06938 55.3438 5.37146 54.5938 5.71521C54.4062 6.07979 54.3125 6.63708 54.3125 7.38708Z" fill="white"/>
<path d="M53.5781 8.60583C53.5781 7.3975 53.4219 6.37667 53.1094 5.54333C52.2344 4.88708 51.026 4.55896 49.4844 4.55896C48.2448 4.55896 47.2031 4.84542 46.3594 5.41833C45.3385 6.09542 44.6458 7.15792 44.2812 8.60583C44.0938 8.60583 43.9479 8.55896 43.8438 8.46521C43.75 8.37146 43.7031 8.23083 43.7031 8.04333C43.7031 7.84542 43.8021 7.5225 44 7.07458C44.1979 6.62667 44.4271 6.25688 44.6875 5.96521C44.1562 5.17354 43.276 4.77771 42.0469 4.77771V3.77771C43.33 3.77771 44.4505 4.15424 45.2256 5.03064C45.4076 4.87076 45.6008 4.72183 45.8066 4.58533C46.8471 3.88176 48.0921 3.55896 49.4844 3.55896C51.0517 3.55896 52.4214 3.87052 53.498 4.59314L53.709 4.74353L53.9434 4.91833L54.0459 5.19177C54.1883 5.57142 54.298 5.97751 54.3818 6.40662C54.335 6.68523 54.3125 7.01216 54.3125 7.38708C54.3125 8.11167 54.3918 8.76679 54.5449 9.35388C54.4622 10.4066 54.2056 11.3957 53.7578 12.3109L53.6143 12.6029L53.3271 12.7552C52.8591 13.003 52.2704 13.1887 51.6025 13.3334L51.5947 13.3353L51.5869 13.3363C50.8975 13.4742 50.2015 13.5433 49.5 13.5433C49.2921 13.5433 49.089 13.5372 48.8906 13.5287V21.5316L48.4258 21.8256C47.1068 22.6605 45.5709 23.059 43.8594 23.059C42.5227 23.059 41.3412 22.8205 40.3955 22.2552C39.2734 21.6159 38.6562 20.5993 38.6562 19.309V18.85C38.7393 18.4604 38.7812 18.0406 38.7812 17.5902V17.309C38.7812 17.1631 38.776 17.0642 38.7656 17.0121C38.7277 16.9884 38.6921 16.9622 38.6562 16.9369V11.5619C38.0284 10.5567 37.7344 9.37986 37.7344 8.07458C37.7344 6.63605 38.0852 5.33836 38.8232 4.22498L39.1191 3.77771H42.0469V4.77771H39.6562C39.0417 5.70479 38.7344 6.80375 38.7344 8.07458C38.7344 9.335 39.0417 10.3975 39.6562 11.2621V19.309C39.6562 20.2256 40.0677 20.9183 40.8906 21.3871C41.6302 21.835 42.6198 22.059 43.8594 22.059C45.4115 22.059 46.7552 21.6996 47.8906 20.9808V13.1371C47.4115 13.0433 47.0677 12.96 46.8594 12.8871C46.6615 12.8038 46.5625 12.684 46.5625 12.5277C46.5625 12.3715 46.6042 12.2517 46.6875 12.1683C46.9167 12.2413 47.2812 12.3246 47.7812 12.4183C48.2917 12.5017 48.8646 12.5433 49.5 12.5433C50.1354 12.5433 50.7656 12.4808 51.3906 12.3558C52.0156 12.2204 52.5052 12.059 52.8594 11.8715C53.3385 10.8923 53.5781 9.80375 53.5781 8.60583Z" fill="white"/>
<path d="M20.5312 16.184C20.5312 15.7744 20.5577 15.3782 20.6104 14.9965H20.8594C21.3318 14.283 21.582 13.3731 21.6172 12.267C21.9068 11.8365 22.2552 11.442 22.666 11.0873C22.0764 10.0447 21.8125 8.79327 21.8125 7.38708C21.8125 6.5895 21.9061 5.83789 22.2041 5.25818L22.3623 4.95056L22.6768 4.80603C23.5107 4.42381 24.536 4.10305 25.7334 3.83337C26.9675 3.54502 28.2604 3.40271 29.6094 3.40271C32.3811 3.40271 34.6535 4.00568 36.2588 5.37634C37.8788 6.75961 38.6406 8.70364 38.6406 11.059V14.1215C38.6406 14.8107 38.7187 15.2858 38.8301 15.5922C38.9087 15.8083 39.0311 15.9747 39.2139 16.1088L39.2959 16.1644L39.6562 16.389V18.9388C39.4414 20.0543 38.9419 21.0193 38.1143 21.7797C37.1219 22.6933 35.8944 23.1371 34.5 23.1371C33.5429 23.1371 32.6467 22.9083 31.832 22.4427C31.7282 22.3834 31.6281 22.3203 31.5312 22.2543L31.498 22.2777C30.5781 22.9005 29.3192 23.1371 27.875 23.1371C25.7623 23.1371 23.962 22.5617 22.5811 21.3177L22.5732 21.3109C21.1796 20.0311 20.5312 18.2765 20.5312 16.184ZM29.5312 14.8871H30.6719C30.6719 15.3142 30.5885 15.6163 30.4219 15.7933C30.2552 15.96 29.9948 16.0433 29.6406 16.0433C29.1302 16.0433 28.875 15.8558 28.875 15.4808C28.875 15.085 29.0938 14.8871 29.5312 14.8871ZM22.8125 7.38708C22.8125 8.71 23.0677 9.80375 23.5781 10.6683C24.6927 10.0329 26.0365 9.71521 27.6094 9.71521C28.349 9.71521 28.9479 9.76208 29.4062 9.85583C29.8646 9.94958 30.0938 10.1319 30.0938 10.4027C30.0938 10.4756 30.0781 10.5642 30.0469 10.6683C30.0156 10.6579 29.8125 10.6163 29.4375 10.5433C28.875 10.46 28.2917 10.4183 27.6875 10.4183C25.9167 10.4183 24.474 10.8819 23.3594 11.809C22.1406 12.8402 21.5312 14.2985 21.5312 16.184C21.5312 18.059 22.1042 19.5225 23.25 20.5746C24.4062 21.6163 25.9479 22.1371 27.875 22.1371C29.2396 22.1371 30.2604 21.9079 30.9375 21.4496C30.5729 21.085 30.3906 20.7569 30.3906 20.4652C30.3906 20.1215 30.5677 19.9496 30.9219 19.9496C31.2031 20.6579 31.6719 21.1996 32.3281 21.5746C32.9844 21.9496 33.7083 22.1371 34.5 22.1371C35.6667 22.1371 36.6458 21.7725 37.4375 21.0433C38.3333 20.2204 38.7812 19.0694 38.7812 17.5902V17.309C38.7812 17.1631 38.776 17.0642 38.7656 17.0121C38.349 16.7517 38.0573 16.3923 37.8906 15.934C37.724 15.4756 37.6406 14.8715 37.6406 14.1215V11.059C37.6406 8.93396 36.9635 7.29333 35.6094 6.13708C34.2552 4.98083 32.2552 4.40271 29.6094 4.40271C28.3281 4.40271 27.1094 4.53813 25.9531 4.80896C24.7969 5.06938 23.8438 5.37146 23.0938 5.71521C22.9062 6.07979 22.8125 6.63708 22.8125 7.38708Z" fill="white"/>
<path d="M20.0156 3.76208C19.1719 3.03292 18.0208 2.42354 16.5625 1.93396C15.1146 1.44438 13.5729 1.19958 11.9375 1.19958C8.625 1.19958 6 2.09021 4.0625 3.87146C2.02083 5.73604 1 8.37146 1 11.7777C1 14.1735 1.52604 16.1944 2.57812 17.8402C3.53646 19.3402 4.88542 20.4808 6.625 21.2621C8.21875 21.9913 10.0417 22.3558 12.0938 22.3558C15.4583 22.3558 18.1667 21.4652 20.2188 19.684V14.9965H20.8594C21.3698 14.2256 21.625 13.2256 21.625 11.9965C21.625 10.7569 21.3281 9.70479 20.7344 8.84021H11.4688C10.7708 9.61104 10.4219 10.6215 10.4219 11.8715C10.4219 12.8715 10.6458 13.6423 11.0938 14.184C11.5521 14.7152 12.125 14.9808 12.8125 14.9808H12.9844V15.3402C12.9844 15.5694 12.8177 15.684 12.4844 15.684C11.6719 15.684 11.0052 15.3767 10.4844 14.7621C9.89062 14.085 9.59375 13.1527 9.59375 11.9652C9.59375 11.1006 9.73958 10.335 10.0312 9.66833C10.3333 9.00167 10.651 8.49125 10.9844 8.13708H19.2188C19.4479 7.65792 19.6354 6.96521 19.7812 6.05896C19.9375 5.15271 20.0156 4.38708 20.0156 3.76208ZM21.0156 3.76208C21.0156 4.46092 20.9282 5.28313 20.7676 6.21716C20.6705 6.82046 20.5517 7.36666 20.4023 7.84021H21.2607L21.5586 8.2738C22.2863 9.33352 22.625 10.5924 22.625 11.9965C22.625 12.2039 22.615 12.4077 22.6016 12.6078C21.9568 13.46 21.6027 14.5159 21.541 15.7767L21.3965 15.9965H21.2188V20.14L20.874 20.4388C18.5996 22.4131 15.6397 23.3558 12.0938 23.3558C9.92471 23.3558 7.95822 22.9698 6.21484 22.1732V22.1742C4.31108 21.3191 2.80602 20.0541 1.73535 18.3783V18.3793C0.559352 16.5396 0 14.321 0 11.7777C0 8.16084 1.09208 5.22986 3.3877 3.13318C5.5538 1.14288 8.44291 0.199585 11.9375 0.199585C13.6731 0.199585 15.3226 0.459537 16.8799 0.985718C18.4178 1.50202 19.6981 2.16542 20.6699 3.00525L21.0156 3.30505V3.76208Z" fill="white"/>
<path d="M76.0111 48.4236C74.1124 48.4236 72.4484 48.0502 71.0191 47.3036C69.6111 46.5356 68.5124 45.4902 67.7231 44.1676C66.9551 42.8449 66.5711 41.3409 66.5711 39.6556C66.5711 37.9489 66.9444 36.4449 67.6911 35.1436C68.4591 33.8209 69.5044 32.7862 70.8271 32.0396C72.1711 31.2929 73.6964 30.9196 75.4031 30.9196C77.0671 30.9196 78.5498 31.2822 79.8511 32.0076C81.1524 32.7329 82.1764 33.7569 82.9231 35.0796C83.6698 36.4022 84.0431 37.9596 84.0431 39.7516C84.0431 39.9222 84.0324 40.1142 84.0111 40.3276C84.0111 40.5409 84.0004 40.7436 83.9791 40.9356H69.7391V38.2796H81.8671L80.2991 39.1116C80.3204 38.1302 80.1178 37.2662 79.6911 36.5196C79.2644 35.7729 78.6778 35.1862 77.9311 34.7596C77.2058 34.3329 76.3631 34.1196 75.4031 34.1196C74.4218 34.1196 73.5578 34.3329 72.8111 34.7596C72.0858 35.1862 71.5098 35.7836 71.0831 36.5516C70.6778 37.2982 70.4751 38.1836 70.4751 39.2076V39.8476C70.4751 40.8716 70.7098 41.7782 71.1791 42.5676C71.6484 43.3569 72.3098 43.9649 73.1631 44.3916C74.0164 44.8182 74.9978 45.0316 76.1071 45.0316C77.0671 45.0316 77.9311 44.8822 78.6991 44.5836C79.4671 44.2849 80.1498 43.8156 80.7471 43.1756L82.8911 45.6396C82.1231 46.5356 81.1524 47.2289 79.9791 47.7196C78.8271 48.1889 77.5044 48.4236 76.0111 48.4236Z" fill="white"/>
<path d="M56.3844 54.6316C54.8057 54.6316 53.259 54.4182 51.7444 53.9916C50.251 53.5862 49.0244 52.9889 48.0644 52.1996L49.8564 49.1916C50.603 49.8102 51.5417 50.3009 52.6724 50.6636C53.8244 51.0476 54.987 51.2396 56.1604 51.2396C58.0377 51.2396 59.4137 50.8022 60.2884 49.9276C61.163 49.0742 61.6004 47.7836 61.6004 46.0556V43.0156L61.9204 39.1436L61.7924 35.2716V31.1116H65.6004V45.6076C65.6004 48.7009 64.811 50.9729 63.2324 52.4236C61.6537 53.8956 59.371 54.6316 56.3844 54.6316ZM55.8724 47.4316C54.251 47.4316 52.779 47.0902 51.4564 46.4076C50.155 45.7036 49.1204 44.7329 48.3524 43.4956C47.6057 42.2582 47.2324 40.8076 47.2324 39.1436C47.2324 37.5009 47.6057 36.0609 48.3524 34.8236C49.1204 33.5862 50.155 32.6262 51.4564 31.9436C52.779 31.2609 54.251 30.9196 55.8724 30.9196C57.323 30.9196 58.6244 31.2076 59.7764 31.7836C60.9284 32.3596 61.8457 33.2556 62.5284 34.4716C63.2324 35.6876 63.5844 37.2449 63.5844 39.1436C63.5844 41.0422 63.2324 42.6102 62.5284 43.8476C61.8457 45.0636 60.9284 45.9702 59.7764 46.5676C58.6244 47.1436 57.323 47.4316 55.8724 47.4316ZM56.4804 44.0396C57.483 44.0396 58.379 43.8369 59.1684 43.4316C59.9577 43.0049 60.5657 42.4289 60.9924 41.7036C61.4404 40.9569 61.6644 40.1036 61.6644 39.1436C61.6644 38.1836 61.4404 37.3409 60.9924 36.6156C60.5657 35.8689 59.9577 35.3036 59.1684 34.9196C58.379 34.5142 57.483 34.3116 56.4804 34.3116C55.4777 34.3116 54.571 34.5142 53.7604 34.9196C52.971 35.3036 52.3524 35.8689 51.9044 36.6156C51.4777 37.3409 51.2644 38.1836 51.2644 39.1436C51.2644 40.1036 51.4777 40.9569 51.9044 41.7036C52.3524 42.4289 52.971 43.0049 53.7604 43.4316C54.571 43.8369 55.4777 44.0396 56.4804 44.0396Z" fill="white"/>
<path d="M96.0003 47.7C96.8285 47.7002 97.5003 48.3717 97.5003 49.2C97.5002 50.8001 97.3249 52.7192 95.4905 54.1941C93.8388 55.5219 91.0589 56.292 86.636 56.6941C83.7135 56.9598 80.7302 56.6896 77.1018 56.2517C73.4468 55.8106 69.088 55.1911 63.2483 54.6941C62.7715 54.6535 62.2843 54.6157 61.7874 54.5769C62.5751 54.2066 63.2849 53.7383 63.9075 53.1589L63.9085 53.1599C64.3362 52.7668 64.7083 52.326 65.0296 51.8425C70.1895 52.3194 74.183 52.8775 77.4612 53.2732C81.0823 53.7102 83.7873 53.9401 86.3645 53.7058C90.7411 53.3079 92.7123 52.5783 93.6106 51.8562C94.3257 51.2813 94.5002 50.5994 94.5003 49.2C94.5003 48.3715 95.1718 47.7 96.0003 47.7ZM4.87136 52.7058C23.1843 51.1271 36.9894 50.7396 47.6604 50.9216L46.7649 52.4265L47.429 52.9724C47.8723 53.3369 48.3609 53.6599 48.8909 53.9451C38.1652 53.7108 24.0949 54.0591 5.12917 55.6941C4.30397 55.7652 3.57752 55.154 3.50612 54.3289C3.43497 53.5035 4.04604 52.777 4.87136 52.7058ZM48.8108 50.9441C50.8937 50.9885 52.8539 51.0546 54.7024 51.1375C55.0408 51.1838 55.3798 51.2163 55.72 51.2302L56.1594 51.24C56.307 51.24 56.4517 51.2356 56.593 51.2302C59.1021 51.3632 61.3951 51.5265 63.5022 51.7058C63.6243 51.7162 63.7456 51.7275 63.8665 51.738C63.6707 51.9831 63.4607 52.2131 63.2317 52.4236C62.1769 53.407 60.8075 54.0591 59.1243 54.3855C56.9073 54.2407 54.5023 54.1161 51.8821 54.0281C51.8362 54.0155 51.7893 54.0049 51.7434 53.9919C50.2504 53.5866 49.0236 52.9891 48.0637 52.2L48.8108 50.9441Z" fill="white"/>
<path d="M38.3953 48.1996V31.1116H42.2033V35.8156L41.7553 34.4396C42.2673 33.2876 43.0673 32.4129 44.1553 31.8156C45.2647 31.2182 46.6407 30.9196 48.2833 30.9196V34.7276C48.1127 34.6849 47.9527 34.6636 47.8033 34.6636C47.654 34.6422 47.5047 34.6316 47.3553 34.6316C45.8407 34.6316 44.6353 35.0796 43.7393 35.9756C42.8433 36.8502 42.3953 38.1622 42.3953 39.9116V48.1996H38.3953Z" fill="white"/>
<path d="M28.3303 48.4236C26.581 48.4236 25.0236 48.0502 23.6583 47.3036C22.293 46.5356 21.2156 45.4902 20.4263 44.1676C19.637 42.8449 19.2423 41.3409 19.2423 39.6556C19.2423 37.9489 19.637 36.4449 20.4263 35.1436C21.2156 33.8209 22.293 32.7862 23.6583 32.0396C25.0236 31.2929 26.581 30.9196 28.3303 30.9196C30.101 30.9196 31.669 31.2929 33.0343 32.0396C34.421 32.7862 35.4983 33.8102 36.2663 35.1116C37.0556 36.4129 37.4503 37.9276 37.4503 39.6556C37.4503 41.3409 37.0556 42.8449 36.2663 44.1676C35.4983 45.4902 34.421 46.5356 33.0343 47.3036C31.669 48.0502 30.101 48.4236 28.3303 48.4236ZM28.3303 44.9996C29.3116 44.9996 30.1863 44.7862 30.9543 44.3596C31.7223 43.9329 32.3196 43.3142 32.7463 42.5036C33.1943 41.6929 33.4183 40.7436 33.4183 39.6556C33.4183 38.5462 33.1943 37.5969 32.7463 36.8076C32.3196 35.9969 31.7223 35.3782 30.9543 34.9516C30.1863 34.5249 29.3223 34.3116 28.3623 34.3116C27.381 34.3116 26.5063 34.5249 25.7383 34.9516C24.9916 35.3782 24.3943 35.9969 23.9463 36.8076C23.4983 37.5969 23.2743 38.5462 23.2743 39.6556C23.2743 40.7436 23.4983 41.6929 23.9463 42.5036C24.3943 43.3142 24.9916 43.9329 25.7383 44.3596C26.5063 44.7862 27.3703 44.9996 28.3303 44.9996Z" fill="white"/>
<path d="M7.81606 36.1036H18.9841V39.6236H7.81606V36.1036ZM8.16806 48.1996H4.00806V25.7996H20.3601V29.2876H8.16806V48.1996Z" fill="white"/>
</svg>
