<svg width="286" height="200" viewBox="0 0 286 200" fill="none" xmlns="http://www.w3.org/2000/svg">
<path d="M175.774 147.731H213.229C219.312 147.731 219.143 151.632 218.298 153.583C217.547 154.512 215.707 156.871 214.355 158.877C213.004 160.884 210.037 162.128 208.723 162.5H182.815C178.534 162.5 176.337 160.642 175.774 159.713L172.676 153.583C171.099 149.57 174.085 148.009 175.774 147.731Z" fill="#3A72FF" stroke="#FF9500" stroke-width="2"/>
<path d="M169.455 147.731H206.91C212.993 147.731 212.824 151.632 211.979 153.583C211.228 154.512 209.388 156.871 208.036 158.877C206.684 160.884 203.718 162.128 202.404 162.5H176.495C172.215 162.5 170.018 160.642 169.455 159.713L166.357 153.583C164.78 149.57 167.765 148.009 169.455 147.731Z" fill="#3A72FF" stroke="#FF9500" stroke-width="2"/>
<path d="M160.458 150.466H197.913C203.996 150.466 203.827 154.367 202.982 156.318C202.231 157.247 200.391 159.606 199.039 161.612C197.687 163.619 194.721 164.863 193.407 165.235H167.498C163.218 165.235 161.021 163.377 160.458 162.448L157.36 156.318C155.783 152.305 158.768 150.744 160.458 150.466Z" fill="#3A72FF" stroke="#FF9500" stroke-width="2"/>
<path d="M154.139 150.466H191.594C197.676 150.466 197.507 154.367 196.663 156.318C195.912 157.247 194.072 159.606 192.72 161.612C191.368 163.619 188.402 164.863 187.088 165.235H161.179C156.899 165.235 154.702 163.377 154.139 162.448L151.041 156.318C149.464 152.305 152.449 150.744 154.139 150.466Z" fill="#3A72FF" stroke="#FF9500" stroke-width="2"/>
<path d="M107.398 147.731H144.853C150.936 147.731 150.767 151.632 149.922 153.583C149.171 154.512 147.331 156.871 145.979 158.877C144.627 160.884 141.661 162.128 140.347 162.5H114.438C110.158 162.5 107.961 160.642 107.398 159.713L104.3 153.583C102.723 149.57 105.708 148.009 107.398 147.731Z" fill="#3A72FF" stroke="#FF9500" stroke-width="2"/>
<path d="M101.079 147.731H138.534C144.616 147.731 144.447 151.632 143.603 153.583C142.852 154.512 141.012 156.871 139.66 158.877C138.308 160.884 135.342 162.128 134.028 162.5H108.119C103.839 162.5 101.642 160.642 101.079 159.713L97.9812 153.583C96.4041 149.57 99.3892 148.009 101.079 147.731Z" fill="#3A72FF" stroke="#FF9500" stroke-width="2"/>
<path d="M92.0819 150.466H129.537C135.619 150.466 135.451 154.367 134.606 156.318C133.855 157.247 132.015 159.606 130.663 161.612C129.311 163.619 126.345 164.863 125.031 165.235H99.1223C94.8418 165.235 92.6452 163.377 92.0819 162.448L88.9842 156.318C87.4071 152.305 90.3923 150.744 92.0819 150.466Z" fill="#3A72FF" stroke="#FF9500" stroke-width="2"/>
<path d="M85.7627 150.466H123.217C129.3 150.466 129.131 154.367 128.286 156.318C127.536 157.247 125.696 159.606 124.344 161.612C122.992 163.619 120.026 164.863 118.712 165.235H92.8031C88.5226 165.235 86.326 163.377 85.7627 162.448L82.665 156.318C81.088 152.305 84.0731 150.744 85.7627 150.466Z" fill="#3A72FF" stroke="#FF9500" stroke-width="2"/>
<path d="M219.547 146.09L252.094 96.5855L261.667 66.5H250.18L197.12 71.4231L168.128 74.4316L166.214 76.8932L69.6667 81.2692L76.7778 133.782H75.1368V137.338L82.7949 144.449V147.457H197.12L219.547 146.09Z" fill="#3A72FF"/>
<path d="M197.12 147.457C197.12 146.582 228.846 112.996 244.709 96.312M197.12 147.457L219.547 146.09L252.094 96.5855M197.12 147.457V71.4231M197.12 147.457H82.7949V144.449L75.1368 137.338V133.782H76.7778L69.6667 81.2692L166.214 76.8932L168.128 74.4316L197.12 71.4231M244.709 96.312L252.094 96.5855M244.709 96.312L197.12 71.4231M244.709 96.312L250.18 66.5M252.094 96.5855L261.667 66.5H250.18M197.12 71.4231L250.18 66.5" stroke="#FF9500" stroke-width="2"/>
<path d="M80.7095 162.931C80.7095 162.842 80.7095 162.752 75.494 162.256C70.2786 161.76 59.8477 160.861 49.1008 159.934" stroke="#FF9500" stroke-width="2" stroke-linecap="round"/>
<path d="M77.7121 158.027L37.3837 150.942" stroke="#FF9500" stroke-width="2" stroke-linecap="round"/>
<path d="M75.5322 150.124L25.6667 136.5" stroke="#FF9500" stroke-width="2" stroke-linecap="round"/>
</svg>
