<svg width="150" height="150" viewBox="0 0 150 150" fill="none" xmlns="http://www.w3.org/2000/svg">
<g clip-path="url(#clip0_260_168)">
<path d="M0 138.625C0 138.875 0 139.125 0 139.375C2.5 139.458 5 139.533 7.5 139.6C17.5 139.867 27.5 140 37.5 140C72.5 140 107.5 139.819 142.5 139.456C145 139.43 147.5 139.403 150 139.375C150 139.125 150 138.875 150 138.625C147.5 138.597 145 138.57 142.5 138.544C107.5 138.181 72.5 138 37.5 138C27.5 138 17.5 138.133 7.5 138.4C5 138.467 2.5 138.542 0 138.625Z" fill="white"/>
<path d="M6.28455 150C6.53455 150 6.78455 150 7.03455 150C7.11788 147.449 7.19288 144.898 7.25955 142.347C7.52621 132.143 7.65954 121.939 7.65954 111.735C7.65954 76.0204 7.47806 40.3061 7.1151 4.59184C7.08917 2.0408 7.06232 -0.510173 7.03454 -3.06122C6.78454 -3.06122 6.53454 -3.06122 6.28454 -3.06122C6.25676 -0.510173 6.22991 2.0408 6.20398 4.59184C5.84102 40.3061 5.65954 76.0204 5.65954 111.735C5.65954 121.939 5.79288 132.143 6.05955 142.347C6.12621 144.898 6.20121 147.449 6.28455 150Z" fill="white"/>
</g>
<defs>
<clipPath id="clip0_260_168">
<rect width="150" height="150" fill="white"/>
</clipPath>
</defs>
</svg>
