<svg width="1440" height="109" viewBox="0 0 1440 109" fill="none" xmlns="http://www.w3.org/2000/svg">
<path d="M220.599 1.06954C238.72 -1.70239 253.714 1.2573 264.544 6.00719C277.772 11.8086 282.952 22.0267 285.082 29.0913C291.081 28.4899 298.918 27.5701 309.14 26.2335C336.769 22.6206 381.701 12.4072 410.997 6.95869C424.383 4.46905 433.205 3.00655 439.139 2.35595C442.38 2.00058 453.996 0.329983 464.686 6.18651L465.194 6.47065L465.625 6.72122C472.077 10.534 477.153 16.3044 479.373 23.3127C486.657 21.8655 494.178 20.5003 501.787 19.3052C540.951 13.155 581.099 11.7229 635.029 12.933C688.796 14.1395 756.354 18.0562 793.479 20.8103C831.381 23.6221 837.196 25.2371 844.833 26.7592C848.66 27.522 854.489 28.389 869.328 28.8571C888.746 29.4696 904.842 29.9773 915.353 30.7363C919.891 31.064 926.181 31.5951 931.336 32.9366C932.806 33.3189 935.337 34.0519 938.124 35.3939C938.515 35.5824 939.047 35.8455 939.679 36.1923C945.09 36.2877 953.078 36.318 964.66 36.198C1009.51 35.7335 1099.31 33.3276 1147.76 32.5485C1171.43 32.1679 1184.57 32.1954 1192.32 32.5476C1196.13 32.7208 1199.97 33.019 1203.64 33.7505C1207.12 34.4435 1209.77 35.4135 1211.26 36.0163C1211.3 36.0214 1211.34 36.0281 1211.38 36.0335C1213.57 36.3078 1218.47 36.6707 1228.62 36.6812C1249.06 36.7023 1286.37 35.2827 1305.13 34.3008C1310.94 33.9965 1314.54 33.7539 1316.59 33.5966C1316.59 33.5957 1316.6 33.595 1316.6 33.5941L1317.8 33.4328C1319.1 33.2704 1320.72 33.1157 1322.34 33.0799C1322.7 33.072 1323.48 33.0598 1324.45 33.0987C1324.92 33.1177 1325.81 33.1622 1326.9 33.2887C1327.5 33.3585 1330.35 33.6701 1333.72 34.8437C1334.09 34.9722 1334.61 35.1581 1335.24 35.4144C1338.3 34.9729 1341.22 34.5046 1343.94 34.0199C1348.68 33.1745 1352.45 32.346 1355.08 31.6436C1355.89 31.4291 1356.46 31.2549 1356.85 31.1335L1358.62 30.0821L1362.28 28.9881C1370.61 26.5005 1387.63 22.3661 1403.52 18.497C1418.87 14.7559 1434.74 22.7636 1438.96 36.3831C1443.18 50.0028 1434.15 64.0773 1418.79 67.8186L1406.59 70.7992C1396.59 73.2511 1388.14 75.3672 1382.95 76.8136C1378.77 78.66 1374.55 79.8627 1371.7 80.6237C1366.82 81.9237 1361.2 83.114 1355.31 84.1644C1343.5 86.2703 1329.21 88.0649 1315.05 88.9882L1312.76 89.1373L1310.48 88.9637C1309.17 88.8646 1307.29 88.6891 1305.25 88.3283C1304.54 88.2043 1301.14 87.6616 1297.12 85.9086C1276.59 86.8286 1246.92 87.8486 1228.56 87.8296C1208.97 87.8093 1198.72 86.7599 1190.14 83.6674C1189.91 83.6548 1189.65 83.6418 1189.37 83.6289C1183.9 83.3804 1172.67 83.305 1148.81 83.6887C1102.21 84.438 1009.87 86.8818 965.334 87.3432C943.348 87.5709 930.681 87.3444 923.623 86.6128C921.804 86.4242 919.076 86.0831 916.19 85.3321C914.749 84.9571 912.321 84.2423 909.618 82.9083C908.93 82.5688 908.045 82.0989 907.043 81.4802C898.071 80.9544 884.832 80.5265 867.277 79.9727C850.436 79.4415 840.746 78.3692 832.186 76.663C828.494 75.9272 827.162 75.5404 821.995 74.8566C816.421 74.1191 806.832 73.1275 788.671 71.7802C752.298 69.0819 685.907 65.2394 633.57 64.065C581.394 62.8943 545.582 64.3718 511.843 69.67C477.271 75.0993 445.541 84.2128 428.014 88.6173C423.641 89.7161 419.896 90.5697 416.779 91.1402C415.118 91.4441 409.287 92.592 403.146 91.882C401.246 91.6624 397.52 91.0867 393.361 89.2011C388.912 87.1839 382.572 82.9552 379.316 75.266C377.93 71.9928 377.441 68.8856 377.457 66.1113C356.3 70.3684 333.716 74.7214 317.553 76.8349C298.959 79.2663 285.849 80.6614 276.682 81.0626C272.161 81.2605 267.372 81.2825 262.81 80.7335C258.667 80.2348 251.012 78.8724 244.102 73.6971C242.174 72.2533 232.295 65.1462 230.106 52.6978C230.037 52.306 229.978 51.9212 229.926 51.5481C217.433 53.481 203.027 56.5808 185.247 64.1158C172.767 69.4049 159.701 75.1115 148.999 82.0493C136.579 90.1009 125.668 96.9241 117.583 101.293C113.992 103.233 108.904 105.84 103.732 107.375C102.043 107.876 94.9567 110.036 86.3932 108.394C81.1277 107.384 74.4166 104.735 69.2616 98.9135C67.0382 96.4026 65.5636 93.8161 64.5988 91.3678C58.8263 95.0914 52.5748 99.1336 45.8495 103.49C32.9884 111.821 14.9464 109.328 5.55233 97.9227C-3.84156 86.5171 -1.03067 70.5176 11.8301 62.1866C34.2888 47.6386 51.7581 36.3988 63.8287 28.8071C69.8261 25.0351 74.7214 22.0184 78.314 19.9096C80.0499 18.8906 81.8744 17.8519 83.5345 17.001C84.2934 16.6121 85.6169 15.9503 87.1854 15.3232C87.9308 15.0252 89.402 14.4622 91.2961 13.9721C92.0824 13.7686 97.36 12.2922 104.113 13.2433L104.771 13.3424L105.299 13.4325C116.352 15.3844 124.627 21.8073 128.883 29.7939C129.283 30.5433 129.637 31.2907 129.954 32.0309C141.088 26.1589 152.071 21.4872 160.379 17.9664C184.436 7.77125 204.38 3.5506 220.599 1.06954ZM908.644 37.7825C908.507 37.8605 908.318 37.9675 908.088 38.106C908.329 37.9635 908.52 37.8528 908.644 37.7825Z" fill="#3A72FF"/>
</svg>
