<svg width="150" height="150" viewBox="0 0 150 150" fill="none" xmlns="http://www.w3.org/2000/svg">
<g clip-path="url(#clip0_260_172)">
<path d="M150 8.31378C150 8.06378 150 7.81378 150 7.56378C147.5 7.48045 145 7.40545 142.5 7.33878C132.5 7.07212 122.5 6.93878 112.5 6.93878C77.5 6.93878 42.5 7.12026 7.5 7.48323C5.00001 7.50915 2.49999 7.536 0 7.56378C0 7.81378 0 8.06378 0 8.31378C2.49999 8.34156 5.00001 8.36841 7.5 8.39434C42.5 8.7573 77.5 8.93878 112.5 8.93878C122.5 8.93878 132.5 8.80545 142.5 8.53878C145 8.47212 147.5 8.39712 150 8.31378Z" fill="white"/>
<path d="M143.715 -3.06122C143.465 -3.06122 143.215 -3.06122 142.965 -3.06122C142.882 -0.510198 142.807 2.04082 142.74 4.59184C142.474 14.7959 142.34 25 142.34 35.2041C142.34 70.9184 142.522 106.633 142.885 142.347C142.911 144.898 142.938 147.449 142.965 150C143.215 150 143.465 150 143.715 150C143.743 147.449 143.77 144.898 143.796 142.347C144.159 106.633 144.34 70.9184 144.34 35.2041C144.34 25 144.207 14.7959 143.94 4.59184C143.874 2.04082 143.799 -0.510198 143.715 -3.06122Z" fill="white"/>
</g>
<defs>
<clipPath id="clip0_260_172">
<rect width="150" height="150" fill="white"/>
</clipPath>
</defs>
</svg>
